G75*
%MOIN*%
%OFA0B0*%
%FSLAX25Y25*%
%IPPOS*%
%LPD*%
%AMOC8*
5,1,8,0,0,1.08239X$1,22.5*
%
%ADD10C,0.13800*%
%ADD11R,0.03300X0.05800*%
%ADD12C,0.00500*%
%ADD13C,0.08200*%
%ADD14C,0.03300*%
%ADD15R,0.05800X0.03300*%
D10*
X0038750Y0118750D03*
X0118750Y0118750D03*
X0140750Y0118750D03*
X0220750Y0118750D03*
X0242750Y0118750D03*
X0322750Y0118750D03*
X0322750Y0220750D03*
X0242750Y0220750D03*
X0220750Y0220750D03*
X0140750Y0220750D03*
X0118750Y0220750D03*
X0038750Y0220750D03*
X0038750Y0322750D03*
X0118750Y0322750D03*
X0140750Y0322750D03*
X0220750Y0322750D03*
X0242750Y0322750D03*
X0322750Y0322750D03*
D11*
X0286750Y0297750D03*
X0282750Y0297750D03*
X0278750Y0297750D03*
X0184750Y0297750D03*
X0180750Y0297750D03*
X0176750Y0297750D03*
X0082750Y0297750D03*
X0078750Y0297750D03*
X0074750Y0297750D03*
X0074750Y0195750D03*
X0078750Y0195750D03*
X0082750Y0195750D03*
X0176750Y0195750D03*
X0180750Y0195750D03*
X0184750Y0195750D03*
X0278750Y0195750D03*
X0282750Y0195750D03*
X0286750Y0195750D03*
X0286750Y0093750D03*
X0282750Y0093750D03*
X0278750Y0093750D03*
X0184750Y0093750D03*
X0180750Y0093750D03*
X0176750Y0093750D03*
X0082750Y0093750D03*
X0078750Y0093750D03*
X0074750Y0093750D03*
D12*
X0076000Y0093556D02*
X0081500Y0093556D01*
X0081500Y0093250D02*
X0081500Y0094250D01*
X0076000Y0094250D01*
X0076000Y0093250D01*
X0081500Y0093250D01*
X0081500Y0094055D02*
X0076000Y0094055D01*
X0103250Y0084500D02*
X0103250Y0083000D01*
X0104250Y0083000D01*
X0104250Y0084500D01*
X0103250Y0084500D01*
X0103250Y0084085D02*
X0104250Y0084085D01*
X0104250Y0083586D02*
X0103250Y0083586D01*
X0103250Y0083088D02*
X0104250Y0083088D01*
X0178000Y0093250D02*
X0183500Y0093250D01*
X0183500Y0094250D01*
X0178000Y0094250D01*
X0178000Y0093250D01*
X0178000Y0093556D02*
X0183500Y0093556D01*
X0183500Y0094055D02*
X0178000Y0094055D01*
X0205250Y0084500D02*
X0205250Y0083000D01*
X0206250Y0083000D01*
X0206250Y0084500D01*
X0205250Y0084500D01*
X0205250Y0084085D02*
X0206250Y0084085D01*
X0206250Y0083586D02*
X0205250Y0083586D01*
X0205250Y0083088D02*
X0206250Y0083088D01*
X0280000Y0093250D02*
X0285500Y0093250D01*
X0285500Y0094250D01*
X0280000Y0094250D01*
X0280000Y0093250D01*
X0280000Y0093556D02*
X0285500Y0093556D01*
X0285500Y0094055D02*
X0280000Y0094055D01*
X0307250Y0084500D02*
X0307250Y0083000D01*
X0308250Y0083000D01*
X0308250Y0084500D01*
X0307250Y0084500D01*
X0307250Y0084085D02*
X0308250Y0084085D01*
X0308250Y0083586D02*
X0307250Y0083586D01*
X0307250Y0083088D02*
X0308250Y0083088D01*
X0308250Y0185000D02*
X0308250Y0186500D01*
X0307250Y0186500D01*
X0307250Y0185000D01*
X0308250Y0185000D01*
X0308250Y0185283D02*
X0307250Y0185283D01*
X0307250Y0185781D02*
X0308250Y0185781D01*
X0308250Y0186280D02*
X0307250Y0186280D01*
X0285500Y0195250D02*
X0285500Y0196250D01*
X0280000Y0196250D01*
X0280000Y0195250D01*
X0285500Y0195250D01*
X0285500Y0195253D02*
X0280000Y0195253D01*
X0280000Y0195751D02*
X0285500Y0195751D01*
X0285500Y0196250D02*
X0280000Y0196250D01*
X0206250Y0186500D02*
X0205250Y0186500D01*
X0205250Y0185000D01*
X0206250Y0185000D01*
X0206250Y0186500D01*
X0206250Y0186280D02*
X0205250Y0186280D01*
X0205250Y0185781D02*
X0206250Y0185781D01*
X0206250Y0185283D02*
X0205250Y0185283D01*
X0183500Y0195250D02*
X0183500Y0196250D01*
X0178000Y0196250D01*
X0178000Y0195250D01*
X0183500Y0195250D01*
X0183500Y0195253D02*
X0178000Y0195253D01*
X0178000Y0195751D02*
X0183500Y0195751D01*
X0183500Y0196250D02*
X0178000Y0196250D01*
X0104250Y0186500D02*
X0103250Y0186500D01*
X0103250Y0185000D01*
X0104250Y0185000D01*
X0104250Y0186500D01*
X0104250Y0186280D02*
X0103250Y0186280D01*
X0103250Y0185781D02*
X0104250Y0185781D01*
X0104250Y0185283D02*
X0103250Y0185283D01*
X0081500Y0195250D02*
X0081500Y0196250D01*
X0076000Y0196250D01*
X0076000Y0195250D01*
X0081500Y0195250D01*
X0081500Y0195253D02*
X0076000Y0195253D01*
X0076000Y0195751D02*
X0081500Y0195751D01*
X0081500Y0196250D02*
X0076000Y0196250D01*
X0103250Y0287000D02*
X0104250Y0287000D01*
X0104250Y0288500D01*
X0103250Y0288500D01*
X0103250Y0287000D01*
X0103250Y0287477D02*
X0104250Y0287477D01*
X0104250Y0287976D02*
X0103250Y0287976D01*
X0103250Y0288474D02*
X0104250Y0288474D01*
X0081500Y0297250D02*
X0081500Y0298250D01*
X0076000Y0298250D01*
X0076000Y0297250D01*
X0081500Y0297250D01*
X0081500Y0297448D02*
X0076000Y0297448D01*
X0076000Y0297946D02*
X0081500Y0297946D01*
X0178000Y0297946D02*
X0183500Y0297946D01*
X0183500Y0298250D02*
X0183500Y0297250D01*
X0178000Y0297250D01*
X0178000Y0298250D01*
X0183500Y0298250D01*
X0183500Y0297448D02*
X0178000Y0297448D01*
X0205250Y0288500D02*
X0206250Y0288500D01*
X0206250Y0287000D01*
X0205250Y0287000D01*
X0205250Y0288500D01*
X0205250Y0288474D02*
X0206250Y0288474D01*
X0206250Y0287976D02*
X0205250Y0287976D01*
X0205250Y0287477D02*
X0206250Y0287477D01*
X0280000Y0297250D02*
X0285500Y0297250D01*
X0285500Y0298250D01*
X0280000Y0298250D01*
X0280000Y0297250D01*
X0280000Y0297448D02*
X0285500Y0297448D01*
X0285500Y0297946D02*
X0280000Y0297946D01*
X0307250Y0288500D02*
X0308250Y0288500D01*
X0308250Y0287000D01*
X0307250Y0287000D01*
X0307250Y0288500D01*
X0307250Y0288474D02*
X0308250Y0288474D01*
X0308250Y0287976D02*
X0307250Y0287976D01*
X0307250Y0287477D02*
X0308250Y0287477D01*
D13*
X0058750Y0033750D03*
X0068750Y0033750D03*
X0078750Y0033750D03*
X0088750Y0033750D03*
X0098750Y0033750D03*
X0160750Y0033750D03*
X0170750Y0033750D03*
X0180750Y0033750D03*
X0190750Y0033750D03*
X0200750Y0033750D03*
X0262750Y0033750D03*
X0272750Y0033750D03*
X0282750Y0033750D03*
X0292750Y0033750D03*
X0302750Y0033750D03*
X0302750Y0135750D03*
X0292750Y0135750D03*
X0282750Y0135750D03*
X0272750Y0135750D03*
X0262750Y0135750D03*
X0200750Y0135750D03*
X0190750Y0135750D03*
X0180750Y0135750D03*
X0170750Y0135750D03*
X0160750Y0135750D03*
X0098750Y0135750D03*
X0088750Y0135750D03*
X0078750Y0135750D03*
X0068750Y0135750D03*
X0058750Y0135750D03*
X0058750Y0237750D03*
X0068750Y0237750D03*
X0078750Y0237750D03*
X0088750Y0237750D03*
X0098750Y0237750D03*
X0160750Y0237750D03*
X0170750Y0237750D03*
X0180750Y0237750D03*
X0190750Y0237750D03*
X0200750Y0237750D03*
X0262750Y0237750D03*
X0272750Y0237750D03*
X0282750Y0237750D03*
X0292750Y0237750D03*
X0302750Y0237750D03*
D14*
X0329250Y0236250D03*
X0235750Y0227750D03*
X0227250Y0236250D03*
X0133750Y0227750D03*
X0125250Y0236250D03*
X0031750Y0227750D03*
X0125250Y0134250D03*
X0133750Y0125750D03*
X0227250Y0134250D03*
X0235750Y0125750D03*
X0329250Y0134250D03*
X0329250Y0032250D03*
X0227250Y0032250D03*
X0125250Y0032250D03*
X0031750Y0125750D03*
X0031750Y0329750D03*
X0133750Y0329750D03*
X0235750Y0329750D03*
D15*
X0205750Y0289750D03*
X0205750Y0285750D03*
X0307750Y0285750D03*
X0307750Y0289750D03*
X0307750Y0187750D03*
X0307750Y0183750D03*
X0205750Y0183750D03*
X0205750Y0187750D03*
X0103750Y0187750D03*
X0103750Y0183750D03*
X0103750Y0085750D03*
X0103750Y0081750D03*
X0205750Y0081750D03*
X0205750Y0085750D03*
X0307750Y0085750D03*
X0307750Y0081750D03*
X0103750Y0285750D03*
X0103750Y0289750D03*
M02*
