M48
;GenerationSoftware,Autodesk,EAGLE,9.6.0*%
;CreationDate,2020-03-25T21:12:43Z*%
FMAT,2
ICI,OFF
METRIC,TZ,000.000
T3C0.305
T2C1.016
T1C3.302
%
G90
M71
T1
X48768Y74676
X80264Y152400
X2540Y22860
X22860Y22860
X28448Y22860
X48768Y22860
X54356Y22860
X74676Y22860
X80264Y22860
X100584Y22860
X2540Y48768
X22860Y48768
X28448Y48768
X48768Y48768
X54356Y48768
X74676Y48768
X80264Y48768
X100584Y48768
X2540Y74676
X22860Y74676
X28448Y74676
X2540Y152400
X54356Y74676
X74676Y74676
X80264Y74676
X100584Y74676
X2540Y100584
X22860Y100584
X28448Y100584
X48768Y100584
X54356Y100584
X74676Y100584
X80264Y100584
X100584Y100584
X2540Y126492
X22860Y126492
X28448Y126492
X48768Y126492
X54356Y126492
X74676Y126492
X80264Y126492
X100584Y126492
X100584Y152400
X22860Y152400
X28448Y152400
X48768Y152400
X54356Y152400
X74676Y152400
T2
X61976Y1270
X95504Y130810
X7620Y1270
X10160Y1270
X12700Y1270
X15240Y1270
X17780Y1270
X33528Y1270
X36068Y1270
X38608Y1270
X41148Y1270
X43688Y1270
X59436Y1270
X64516Y1270
X67056Y1270
X69596Y1270
X85344Y1270
X87884Y1270
X90424Y1270
X92964Y1270
X95504Y1270
X7620Y27178
X10160Y27178
X12700Y27178
X15240Y27178
X17780Y27178
X33528Y27178
X36068Y27178
X38608Y27178
X41148Y27178
X43688Y27178
X59436Y27178
X61976Y27178
X64516Y27178
X67056Y27178
X69596Y27178
X85344Y27178
X87884Y27178
X90424Y27178
X92964Y27178
X95504Y27178
X7620Y53086
X10160Y53086
X12700Y53086
X15240Y53086
X17780Y53086
X33528Y53086
X36068Y53086
X38608Y53086
X41148Y53086
X43688Y53086
X59436Y53086
X61976Y53086
X64516Y53086
X67056Y53086
X69596Y53086
X85344Y53086
X87884Y53086
X90424Y53086
X92964Y53086
X95504Y53086
X7620Y78994
X10160Y78994
X12700Y78994
X15240Y78994
X17780Y78994
X33528Y78994
X36068Y78994
X38608Y78994
X41148Y78994
X43688Y78994
X59436Y78994
X61976Y78994
X64516Y78994
X67056Y78994
X69596Y78994
X85344Y78994
X87884Y78994
X90424Y78994
X92964Y78994
X95504Y78994
X7620Y104902
X10160Y104902
X12700Y104902
X15240Y104902
X17780Y104902
X33528Y104902
X36068Y104902
X38608Y104902
X41148Y104902
X43688Y104902
X59436Y104902
X61976Y104902
X64516Y104902
X67056Y104902
X69596Y104902
X85344Y104902
X87884Y104902
X90424Y104902
X92964Y104902
X95504Y104902
X7620Y130810
X10160Y130810
X12700Y130810
X15240Y130810
X17780Y130810
X33528Y130810
X36068Y130810
X38608Y130810
X41148Y130810
X43688Y130810
X59436Y130810
X61976Y130810
X64516Y130810
X67056Y130810
X69596Y130810
X85344Y130810
X87884Y130810
X90424Y130810
X92964Y130810
T3
X39243Y44196
X38608Y40259
X41148Y36068
X41986Y44958
X37973Y45720
X37973Y43688
X67056Y34798
X70231Y38108
X62656Y41148
X62992Y37465
X59436Y39878
X56261Y41148
X59436Y46228
X67818Y45771
X56896Y29718
X70866Y42418
X69596Y36703
X68707Y46228
X68326Y38227
X58166Y38100
X59436Y43688
X68961Y39878
X66399Y42418
X58801Y42418
X70866Y41275
X58166Y41148
X62959Y39751
X68326Y43688
X68326Y39243
X65151Y44196
X64516Y40259
X67056Y36068
X67894Y44958
X63881Y45720
X63881Y43688
X92964Y34798
X96139Y38108
X88564Y41148
X88900Y37465
X85344Y39878
X82169Y41148
X85344Y46228
X93726Y45771
X82804Y29718
X96774Y42418
X95504Y36703
X94615Y46228
X94234Y38227
X84074Y38100
X85344Y43688
X94869Y39878
X92307Y42418
X84709Y42418
X96774Y41275
X84074Y41148
X88867Y39751
X94234Y43688
X94234Y39243
X91059Y44196
X90424Y40259
X92964Y36068
X93802Y44958
X89789Y45720
X89789Y43688
X15240Y60706
X18415Y64016
X10840Y67056
X11176Y63373
X7620Y65786
X4445Y67056
X7620Y72136
X16002Y71679
X5080Y55626
X19050Y68326
X17780Y62611
X16891Y72136
X16510Y64135
X6350Y64008
X7620Y69596
X17145Y65786
X14583Y68326
X6985Y68326
X19050Y67183
X6350Y67056
X11143Y65659
X16510Y69596
X16510Y65151
X13335Y70104
X12700Y66167
X15240Y61976
X16078Y70866
X12065Y71628
X12065Y69596
X41148Y60706
X44323Y64016
X36748Y67056
X37084Y63373
X33528Y65786
X30353Y67056
X33528Y72136
X41910Y71679
X30988Y55626
X44958Y68326
X43688Y62611
X42799Y72136
X42418Y64135
X32258Y64008
X33528Y69596
X43053Y65786
X40491Y68326
X32893Y68326
X44958Y67183
X32258Y67056
X37051Y65659
X42418Y69596
X42418Y65151
X39243Y70104
X38608Y66167
X41148Y61976
X41986Y70866
X37973Y71628
X37973Y69596
X67056Y60706
X70231Y64016
X62656Y67056
X62992Y63373
X59436Y65786
X56261Y67056
X59436Y72136
X67818Y71679
X56896Y55626
X70866Y68326
X69596Y62611
X68707Y72136
X68326Y64135
X58166Y64008
X59436Y69596
X68961Y65786
X66399Y68326
X58801Y68326
X70866Y67183
X58166Y67056
X62959Y65659
X68326Y69596
X68326Y65151
X65151Y70104
X64516Y66167
X67056Y61976
X67894Y70866
X63881Y71628
X63881Y69596
X92964Y60706
X96139Y64016
X88564Y67056
X88900Y63373
X85344Y65786
X82169Y67056
X85344Y72136
X93726Y71679
X82804Y55626
X96774Y68326
X95504Y62611
X94615Y72136
X94234Y64135
X84074Y64008
X85344Y69596
X94869Y65786
X92307Y68326
X84709Y68326
X96774Y67183
X84074Y67056
X88867Y65659
X94234Y69596
X94234Y65151
X91059Y70104
X90424Y66167
X92964Y61976
X93802Y70866
X89789Y71628
X89789Y69596
X15240Y86614
X18415Y89924
X10840Y92964
X11176Y89281
X7620Y91694
X4445Y92964
X7620Y98044
X16002Y97587
X5080Y81534
X19050Y94234
X17780Y88519
X16891Y98044
X16510Y90043
X6350Y89916
X7620Y95504
X17145Y91694
X14583Y94234
X6985Y94234
X19050Y93091
X6350Y92964
X11143Y91567
X16510Y95504
X16510Y91059
X13335Y96012
X12700Y92075
X15240Y87884
X16078Y96774
X12065Y97536
X12065Y95504
X41148Y86614
X44323Y89924
X36748Y92964
X37084Y89281
X33528Y91694
X30353Y92964
X33528Y98044
X41910Y97587
X30988Y81534
X44958Y94234
X43688Y88519
X42799Y98044
X42418Y90043
X32258Y89916
X33528Y95504
X43053Y91694
X40491Y94234
X32893Y94234
X44958Y93091
X32258Y92964
X37051Y91567
X42418Y95504
X42418Y91059
X39243Y96012
X38608Y92075
X41148Y87884
X41986Y96774
X37973Y97536
X37973Y95504
X67056Y86614
X70231Y89924
X62656Y92964
X62992Y89281
X59436Y91694
X56261Y92964
X59436Y98044
X67818Y97587
X56896Y81534
X70866Y94234
X69596Y88519
X68707Y98044
X68326Y90043
X58166Y89916
X59436Y95504
X68961Y91694
X66399Y94234
X58801Y94234
X70866Y93091
X58166Y92964
X62959Y91567
X68326Y95504
X68326Y91059
X65151Y96012
X64516Y92075
X67056Y87884
X94234Y17780
X63881Y97536
X63881Y95504
X92964Y86614
X96139Y89924
X88564Y92964
X88900Y89281
X85344Y91694
X82169Y92964
X85344Y98044
X93726Y97587
X82804Y81534
X96774Y94234
X95504Y88519
X94615Y98044
X94234Y90043
X84074Y89916
X85344Y95504
X94869Y91694
X92307Y94234
X84709Y94234
X96774Y93091
X84074Y92964
X88867Y91567
X94234Y95504
X94234Y91059
X91059Y96012
X90424Y92075
X92964Y87884
X93802Y96774
X89789Y97536
X89789Y95504
X15240Y112522
X18415Y115832
X10840Y118872
X11176Y115189
X7620Y117602
X4445Y118872
X7620Y123952
X16002Y123495
X5080Y107442
X19050Y120142
X17780Y114427
X16891Y123952
X16510Y115951
X6350Y115824
X7620Y121412
X17145Y117602
X14583Y120142
X6985Y120142
X19050Y118999
X6350Y118872
X11143Y117475
X16510Y121412
X16510Y116967
X13335Y121920
X12700Y117983
X15240Y113792
X16078Y122682
X12065Y123444
X12065Y121412
X41148Y112522
X44323Y115832
X36748Y118872
X37084Y115189
X33528Y117602
X30353Y118872
X33528Y123952
X41910Y123495
X30988Y107442
X44958Y120142
X43688Y114427
X42799Y123952
X42418Y115951
X32258Y115824
X33528Y121412
X43053Y117602
X40491Y120142
X32893Y120142
X44958Y118999
X32258Y118872
X37051Y117475
X42418Y121412
X42418Y116967
X39243Y121920
X38608Y117983
X41148Y113792
X41986Y122682
X37973Y123444
X37973Y121412
X67056Y112522
X70231Y115832
X62656Y118872
X62992Y115189
X59436Y117602
X56261Y118872
X59436Y123952
X67818Y123495
X56896Y107442
X70866Y120142
X69596Y114427
X68707Y123952
X68326Y115951
X58166Y115824
X59436Y121412
X68961Y117602
X66399Y120142
X58801Y120142
X70866Y118999
X58166Y118872
X62959Y117475
X68326Y121412
X68326Y116967
X65151Y121920
X64516Y117983
X67056Y113792
X67894Y122682
X63881Y123444
X63881Y121412
X92964Y112522
X96139Y115832
X88564Y118872
X88900Y115189
X85344Y117602
X82169Y118872
X85344Y123952
X93726Y123495
X82804Y107442
X96774Y120142
X95504Y114427
X94615Y123952
X94234Y115951
X84074Y115824
X85344Y121412
X94869Y117602
X92307Y120142
X84709Y120142
X96774Y118999
X84074Y118872
X88867Y117475
X94234Y121412
X94234Y116967
X91059Y121920
X90424Y117983
X92964Y113792
X93802Y122682
X89789Y123444
X89789Y121412
X15240Y138430
X18415Y141740
X10840Y144780
X11176Y141097
X7620Y143510
X4445Y144780
X7620Y149860
X16002Y149403
X5080Y133350
X19050Y146050
X17780Y140335
X16891Y149860
X16510Y141859
X6350Y141732
X7620Y147320
X17145Y143510
X14583Y146050
X6985Y146050
X19050Y144907
X6350Y144780
X11143Y143383
X16510Y147320
X16510Y142875
X13335Y147828
X12700Y143891
X15240Y139700
X16078Y148590
X12065Y149352
X12065Y147320
X41148Y138430
X44323Y141740
X36748Y144780
X37084Y141097
X33528Y143510
X30353Y144780
X33528Y149860
X41910Y149403
X30988Y133350
X44958Y146050
X43688Y140335
X42799Y149860
X42418Y141859
X32258Y141732
X33528Y147320
X43053Y143510
X40491Y146050
X32893Y146050
X44958Y144907
X32258Y144780
X37051Y143383
X42418Y147320
X42418Y142875
X39243Y147828
X38608Y143891
X41148Y139700
X41986Y148590
X37973Y149352
X37973Y147320
X67056Y138430
X70231Y141740
X62656Y144780
X62992Y141097
X59436Y143510
X56261Y144780
X59436Y149860
X67818Y149403
X56896Y133350
X15240Y8890
X69596Y140335
X68707Y149860
X68326Y141859
X58166Y141732
X59436Y147320
X68961Y143510
X66399Y146050
X58801Y146050
X70866Y144907
X58166Y144780
X62959Y143383
X68326Y147320
X68326Y142875
X65151Y147828
X64516Y143891
X67056Y139700
X67894Y148590
X63881Y149352
X63881Y147320
X92964Y138430
X96139Y141740
X88564Y144780
X88900Y141097
X85344Y143510
X82169Y144780
X85344Y149860
X93726Y149403
X82804Y133350
X96774Y146050
X95504Y140335
X94615Y149860
X94234Y141859
X84074Y141732
X85344Y147320
X94869Y143510
X92307Y146050
X84709Y146050
X96774Y144907
X84074Y144780
X88867Y143383
X94234Y147320
X94234Y142875
X91059Y147828
X90424Y143891
X92964Y139700
X93802Y148590
X89789Y149352
X89789Y147320
X18415Y12200
X10840Y15240
X11176Y11557
X7620Y13970
X4445Y15240
X7620Y20320
X16002Y19863
X5080Y3810
X19050Y16510
X17780Y10795
X16891Y20320
X16510Y12319
X6350Y12192
X7620Y17780
X17145Y13970
X14583Y16510
X6985Y16510
X19050Y15367
X6350Y15240
X11143Y13843
X16510Y17780
X16510Y13335
X13335Y18288
X12700Y14351
X15240Y10160
X16078Y19050
X12065Y19812
X12065Y17780
X41148Y8890
X44323Y12200
X36748Y15240
X37084Y11557
X33528Y13970
X30353Y15240
X33528Y20320
X41910Y19863
X30988Y3810
X44958Y16510
X43688Y10795
X42799Y20320
X42418Y12319
X32258Y12192
X33528Y17780
X43053Y13970
X40491Y16510
X32893Y16510
X44958Y15367
X32258Y15240
X37051Y13843
X42418Y17780
X42418Y13335
X39243Y18288
X38608Y14351
X41148Y10160
X41986Y19050
X37973Y19812
X37973Y17780
X67056Y8890
X70231Y12200
X67894Y96774
X62656Y15240
X62992Y11557
X59436Y13970
X56261Y15240
X59436Y20320
X67818Y19863
X56896Y3810
X70866Y16510
X69596Y10795
X68707Y20320
X68326Y12319
X58166Y12192
X59436Y17780
X68961Y13970
X66399Y16510
X58801Y16510
X70866Y15367
X58166Y15240
X62959Y13843
X68326Y17780
X68326Y13335
X65151Y18288
X64516Y14351
X67056Y10160
X67894Y19050
X63881Y19812
X63881Y17780
X92964Y8890
X96139Y12200
X88564Y15240
X88900Y11557
X85344Y13970
X82169Y15240
X85344Y20320
X93726Y19863
X82804Y3810
X96774Y16510
X95504Y10795
X94615Y20320
X94234Y12319
X84074Y12192
X85344Y17780
X94869Y13970
X92307Y16510
X84709Y16510
X96774Y15367
X84074Y15240
X88867Y13843
X94234Y13335
X91059Y18288
X90424Y14351
X92964Y10160
X93802Y19050
X89789Y19812
X89789Y17780
X15240Y34798
X18415Y38108
X10840Y41148
X11176Y37465
X7620Y39878
X4445Y41148
X7620Y46228
X16002Y45771
X5080Y29718
X19050Y42418
X17780Y36703
X16891Y46228
X16510Y38227
X6350Y38100
X7620Y43688
X17145Y39878
X14583Y42418
X6985Y42418
X19050Y41275
X6350Y41148
X11143Y39751
X16510Y43688
X16510Y39243
X13335Y44196
X12700Y40259
X15240Y36068
X16078Y44958
X12065Y45720
X12065Y43688
X41148Y34798
X44323Y38108
X36748Y41148
X37084Y37465
X33528Y39878
X30353Y41148
X33528Y46228
X41910Y45771
X30988Y29718
X44958Y42418
X43688Y36703
X42799Y46228
X42418Y38227
X32258Y38100
X33528Y43688
X43053Y39878
X40491Y42418
X32893Y42418
X44958Y41275
X32258Y41148
X37051Y39751
X42418Y43688
X42418Y39243
X70866Y146050
M30