%
M48
M72
T01C0.0120
T02C0.0400
T03C0.1300
%
T01
X4875Y4375
X7275Y7425
X7262Y8325
X7143Y8875
X7875Y8525
X8616Y9375
X8125Y10075
X7625Y9875
X7625Y10675
X9175Y10695
X9205Y10375
X9375Y9875
X10375Y9375
X10375Y8925
X9625Y8375
X9375Y8125
X9375Y7725
X10125Y7678
X9875Y7125
X8875Y6875
X8875Y6375
X5875Y8375
X5375Y7675
X5375Y8875
X5625Y9375
X5875Y9875
X5875Y10875
X4625Y8875
X9525Y10875
X4875Y14575
X7275Y17625
X7262Y18525
X7143Y19075
X7875Y18725
X8616Y19575
X8125Y20275
X7625Y20075
X7625Y20875
X9175Y20895
X9205Y20575
X9375Y20075
X9525Y21075
X10375Y19575
X10375Y19125
X9625Y18575
X9375Y18325
X9375Y17925
X9875Y17325
X10125Y17878
X8875Y17075
X8875Y16575
X5875Y18575
X5375Y19075
X5625Y19575
X5875Y20075
X5875Y21075
X4625Y19075
X5375Y17875
X4875Y24775
X5375Y28075
X5875Y28775
X5375Y29275
X5625Y29775
X5875Y30275
X5875Y31275
X7625Y31075
X8125Y30475
X7625Y30275
X8616Y29775
X9375Y30275
X9205Y30775
X9175Y31095
X9525Y31275
X10375Y29775
X10375Y29325
X9625Y28775
X9375Y28525
X9375Y28125
X10125Y28078
X9875Y27525
X8875Y27275
X8875Y26775
X7275Y27825
X7262Y28725
X7143Y29275
X7875Y28925
X4625Y29275
X14825Y29275
X15575Y29275
X16075Y28775
X15575Y28075
X17343Y29275
X17462Y28725
X18075Y28925
X18816Y29775
X18325Y30475
X17825Y30275
X17825Y31075
X19375Y31095
X19405Y30775
X19575Y30275
X19725Y31275
X20575Y29775
X20575Y29325
X19825Y28775
X19575Y28525
X19575Y28125
X20325Y28078
X20075Y27525
X19075Y27275
X19075Y26775
X17475Y27825
X15825Y29775
X16075Y30275
X16075Y31275
X15075Y24775
X16075Y21075
X16075Y20075
X15825Y19575
X15575Y19075
X16075Y18575
X15575Y17875
X14825Y19075
X17343Y19075
X17462Y18525
X18075Y18725
X18816Y19575
X18325Y20275
X17825Y20075
X17825Y20875
X19375Y20895
X19405Y20575
X19575Y20075
X19725Y21075
X20575Y19575
X20575Y19125
X19825Y18575
X19575Y18325
X19575Y17925
X20325Y17878
X20075Y17325
X19075Y17075
X19075Y16575
X17475Y17625
X15075Y14575
X16075Y10875
X16075Y9875
X15825Y9375
X15575Y8875
X14825Y8875
X16075Y8375
X15575Y7675
X17343Y8875
X17462Y8325
X18075Y8525
X18816Y9375
X19575Y9875
X19405Y10375
X19375Y10695
X19725Y10875
X18325Y10075
X17825Y9875
X17825Y10675
X19825Y8375
X19575Y8125
X19575Y7725
X20325Y7678
X20075Y7125
X19075Y6875
X19075Y6375
X17475Y7425
X20575Y8925
X20575Y9375
X25025Y8875
X25775Y8875
X26025Y9375
X26275Y9875
X26275Y10875
X28025Y10675
X28525Y10075
X28025Y9875
X29016Y9375
X29775Y9875
X29605Y10375
X29575Y10695
X29925Y10875
X30775Y9375
X30775Y8925
X30025Y8375
X29775Y8125
X29775Y7725
X30525Y7678
X30275Y7125
X29275Y6875
X29275Y6375
X27675Y7425
X27662Y8325
X28275Y8525
X27543Y8875
X26275Y8375
X25775Y7675
X25275Y4375
X15075Y4375
X25275Y14575
X27675Y17625
X27662Y18525
X27543Y19075
X28275Y18725
X29016Y19575
X28525Y20275
X28025Y20075
X28025Y20875
X29575Y20895
X29605Y20575
X29775Y20075
X29925Y21075
X30775Y19575
X30775Y19125
X30025Y18575
X29775Y18325
X29775Y17925
X30275Y17325
X30525Y17878
X29275Y17075
X29275Y16575
X26275Y18575
X25775Y19075
X26025Y19575
X26275Y20075
X26275Y21075
X25025Y19075
X25775Y17875
X25275Y24775
X25775Y28075
X26275Y28775
X25775Y29275
X26025Y29775
X26275Y30275
X26275Y31275
X28025Y31075
X28525Y30475
X28025Y30275
X29016Y29775
X29775Y30275
X29605Y30775
X29575Y31095
X29925Y31275
X30775Y29775
X30775Y29325
X30025Y28775
X29775Y28525
X29775Y28125
X30525Y28078
X30275Y27525
X29275Y27275
X29275Y26775
X27675Y27825
X27662Y28725
X27543Y29275
X28275Y28925
X25025Y29275
T02
X26275Y23775
X27275Y23775
X28275Y23775
X29275Y23775
X30275Y23775
X20075Y23775
X19075Y23775
X18075Y23775
X17075Y23775
X16075Y23775
X9875Y23775
X8875Y23775
X7875Y23775
X6875Y23775
X5875Y23775
X5875Y13575
X6875Y13575
X7875Y13575
X8875Y13575
X9875Y13575
X16075Y13575
X17075Y13575
X18075Y13575
X19075Y13575
X20075Y13575
X26275Y13575
X27275Y13575
X28275Y13575
X29275Y13575
X30275Y13575
X30275Y3375
X29275Y3375
X28275Y3375
X27275Y3375
X26275Y3375
X20075Y3375
X19075Y3375
X18075Y3375
X17075Y3375
X16075Y3375
X9875Y3375
X8875Y3375
X7875Y3375
X6875Y3375
X5875Y3375
T03
X3875Y11875
X11875Y11875
X14075Y11875
X22075Y11875
X24275Y11875
X32275Y11875
X32275Y22075
X24275Y22075
X22075Y22075
X14075Y22075
X11875Y22075
X3875Y22075
X3875Y32275
X11875Y32275
X14075Y32275
X22075Y32275
X24275Y32275
X32275Y32275
M30
