G04 EAGLE Gerber RS-274X export*
G75*
%MOMM*%
%FSLAX34Y34*%
%LPD*%
%INSoldermask Top*%
%IPPOS*%
%AMOC8*
5,1,8,0,0,1.08239X$1,22.5*%
G01*
%ADD10C,3.505200*%
%ADD11C,0.838200*%
%ADD12R,1.303200X1.203200*%
%ADD13R,2.203200X1.403200*%
%ADD14R,1.553200X0.803200*%
%ADD15C,2.082800*%
%ADD16C,0.505344*%
%ADD17R,1.203200X1.303200*%
%ADD18R,0.703200X0.453200*%
%ADD19R,0.838200X1.473200*%
%ADD20R,1.003200X1.203200*%
%ADD21R,1.003200X2.103200*%
%ADD22R,1.303200X0.603200*%
%ADD23C,1.203200*%
%ADD24C,1.270000*%
%ADD25C,1.703200*%


D10*
X25400Y228600D03*
X228600Y228600D03*
D11*
X245110Y8890D03*
X7620Y246380D03*
D12*
X97400Y165100D03*
X80400Y165100D03*
X173600Y165100D03*
X156600Y165100D03*
D13*
X14050Y155000D03*
X14050Y99000D03*
D14*
X50800Y142000D03*
X50800Y132000D03*
X50800Y122000D03*
X50800Y112000D03*
D15*
X76200Y12700D03*
X101600Y12700D03*
X127000Y12700D03*
X152400Y12700D03*
D13*
X239950Y99000D03*
X239950Y155000D03*
D14*
X203200Y112000D03*
X203200Y122000D03*
X203200Y132000D03*
X203200Y142000D03*
D15*
X177800Y12700D03*
D12*
X156600Y152400D03*
X173600Y152400D03*
X16900Y25400D03*
X33900Y25400D03*
D16*
X30680Y34610D02*
X30680Y41590D01*
X37660Y41590D01*
X37660Y34610D01*
X30680Y34610D01*
X30680Y39410D02*
X37660Y39410D01*
X13140Y41590D02*
X13140Y34610D01*
X13140Y41590D02*
X20120Y41590D01*
X20120Y34610D01*
X13140Y34610D01*
X13140Y39410D02*
X20120Y39410D01*
D17*
X88900Y182000D03*
X88900Y199000D03*
D18*
X118500Y134500D03*
X118500Y129500D03*
X118500Y124500D03*
X118500Y119500D03*
X135500Y119500D03*
X135500Y124500D03*
X135500Y129500D03*
X135500Y134500D03*
D19*
X21336Y177800D03*
X29464Y177800D03*
D17*
X50800Y186300D03*
X50800Y169300D03*
D20*
X152400Y115000D03*
D21*
X152400Y135270D03*
D22*
X149500Y178210D03*
X149500Y184710D03*
X149500Y191210D03*
X149500Y197710D03*
X104500Y197710D03*
X104500Y191210D03*
X104500Y184710D03*
X104500Y178210D03*
D12*
X97400Y152400D03*
X80400Y152400D03*
D16*
X98110Y132280D02*
X105090Y132280D01*
X98110Y132280D02*
X98110Y139260D01*
X105090Y139260D01*
X105090Y132280D01*
X105090Y137080D02*
X98110Y137080D01*
X98110Y114740D02*
X105090Y114740D01*
X98110Y114740D02*
X98110Y121720D01*
X105090Y121720D01*
X105090Y114740D01*
X105090Y119540D02*
X98110Y119540D01*
X132280Y105090D02*
X132280Y98110D01*
X132280Y105090D02*
X139260Y105090D01*
X139260Y98110D01*
X132280Y98110D01*
X132280Y102910D02*
X139260Y102910D01*
X114740Y105090D02*
X114740Y98110D01*
X114740Y105090D02*
X121720Y105090D01*
X121720Y98110D01*
X114740Y98110D01*
X114740Y102910D02*
X121720Y102910D01*
X121720Y148910D02*
X121720Y155890D01*
X121720Y148910D02*
X114740Y148910D01*
X114740Y155890D01*
X121720Y155890D01*
X121720Y153710D02*
X114740Y153710D01*
X139260Y155890D02*
X139260Y148910D01*
X132280Y148910D01*
X132280Y155890D01*
X139260Y155890D01*
X139260Y153710D02*
X132280Y153710D01*
D17*
X88900Y118500D03*
X88900Y135500D03*
D12*
X118500Y88900D03*
X135500Y88900D03*
X135500Y165100D03*
X118500Y165100D03*
D10*
X284480Y228600D03*
X487680Y228600D03*
D11*
X504190Y8890D03*
X266700Y246380D03*
D12*
X356480Y165100D03*
X339480Y165100D03*
X432680Y165100D03*
X415680Y165100D03*
D13*
X273130Y155000D03*
X273130Y99000D03*
D14*
X309880Y142000D03*
X309880Y132000D03*
X309880Y122000D03*
X309880Y112000D03*
D15*
X335280Y12700D03*
X360680Y12700D03*
X386080Y12700D03*
X411480Y12700D03*
D13*
X499030Y99000D03*
X499030Y155000D03*
D14*
X462280Y112000D03*
X462280Y122000D03*
X462280Y132000D03*
X462280Y142000D03*
D15*
X436880Y12700D03*
D12*
X415680Y152400D03*
X432680Y152400D03*
X275980Y25400D03*
X292980Y25400D03*
D16*
X289760Y34610D02*
X289760Y41590D01*
X296740Y41590D01*
X296740Y34610D01*
X289760Y34610D01*
X289760Y39410D02*
X296740Y39410D01*
X272220Y41590D02*
X272220Y34610D01*
X272220Y41590D02*
X279200Y41590D01*
X279200Y34610D01*
X272220Y34610D01*
X272220Y39410D02*
X279200Y39410D01*
D17*
X347980Y182000D03*
X347980Y199000D03*
D18*
X377580Y134500D03*
X377580Y129500D03*
X377580Y124500D03*
X377580Y119500D03*
X394580Y119500D03*
X394580Y124500D03*
X394580Y129500D03*
X394580Y134500D03*
D19*
X280416Y177800D03*
X288544Y177800D03*
D17*
X309880Y186300D03*
X309880Y169300D03*
D20*
X411480Y115000D03*
D21*
X411480Y135270D03*
D22*
X408580Y178210D03*
X408580Y184710D03*
X408580Y191210D03*
X408580Y197710D03*
X363580Y197710D03*
X363580Y191210D03*
X363580Y184710D03*
X363580Y178210D03*
D12*
X356480Y152400D03*
X339480Y152400D03*
D16*
X357190Y132280D02*
X364170Y132280D01*
X357190Y132280D02*
X357190Y139260D01*
X364170Y139260D01*
X364170Y132280D01*
X364170Y137080D02*
X357190Y137080D01*
X357190Y114740D02*
X364170Y114740D01*
X357190Y114740D02*
X357190Y121720D01*
X364170Y121720D01*
X364170Y114740D01*
X364170Y119540D02*
X357190Y119540D01*
X391360Y105090D02*
X391360Y98110D01*
X391360Y105090D02*
X398340Y105090D01*
X398340Y98110D01*
X391360Y98110D01*
X391360Y102910D02*
X398340Y102910D01*
X373820Y105090D02*
X373820Y98110D01*
X373820Y105090D02*
X380800Y105090D01*
X380800Y98110D01*
X373820Y98110D01*
X373820Y102910D02*
X380800Y102910D01*
X380800Y148910D02*
X380800Y155890D01*
X380800Y148910D02*
X373820Y148910D01*
X373820Y155890D01*
X380800Y155890D01*
X380800Y153710D02*
X373820Y153710D01*
X398340Y155890D02*
X398340Y148910D01*
X391360Y148910D01*
X391360Y155890D01*
X398340Y155890D01*
X398340Y153710D02*
X391360Y153710D01*
D17*
X347980Y118500D03*
X347980Y135500D03*
D12*
X377580Y88900D03*
X394580Y88900D03*
X394580Y165100D03*
X377580Y165100D03*
D10*
X543560Y228600D03*
X746760Y228600D03*
D11*
X763270Y8890D03*
X525780Y246380D03*
D12*
X615560Y165100D03*
X598560Y165100D03*
X691760Y165100D03*
X674760Y165100D03*
D13*
X532210Y155000D03*
X532210Y99000D03*
D14*
X568960Y142000D03*
X568960Y132000D03*
X568960Y122000D03*
X568960Y112000D03*
D15*
X594360Y12700D03*
X619760Y12700D03*
X645160Y12700D03*
X670560Y12700D03*
D13*
X758110Y99000D03*
X758110Y155000D03*
D14*
X721360Y112000D03*
X721360Y122000D03*
X721360Y132000D03*
X721360Y142000D03*
D15*
X695960Y12700D03*
D12*
X674760Y152400D03*
X691760Y152400D03*
X535060Y25400D03*
X552060Y25400D03*
D16*
X548840Y34610D02*
X548840Y41590D01*
X555820Y41590D01*
X555820Y34610D01*
X548840Y34610D01*
X548840Y39410D02*
X555820Y39410D01*
X531300Y41590D02*
X531300Y34610D01*
X531300Y41590D02*
X538280Y41590D01*
X538280Y34610D01*
X531300Y34610D01*
X531300Y39410D02*
X538280Y39410D01*
D17*
X607060Y182000D03*
X607060Y199000D03*
D18*
X636660Y134500D03*
X636660Y129500D03*
X636660Y124500D03*
X636660Y119500D03*
X653660Y119500D03*
X653660Y124500D03*
X653660Y129500D03*
X653660Y134500D03*
D19*
X539496Y177800D03*
X547624Y177800D03*
D17*
X568960Y186300D03*
X568960Y169300D03*
D20*
X670560Y115000D03*
D21*
X670560Y135270D03*
D22*
X667660Y178210D03*
X667660Y184710D03*
X667660Y191210D03*
X667660Y197710D03*
X622660Y197710D03*
X622660Y191210D03*
X622660Y184710D03*
X622660Y178210D03*
D12*
X615560Y152400D03*
X598560Y152400D03*
D16*
X616270Y132280D02*
X623250Y132280D01*
X616270Y132280D02*
X616270Y139260D01*
X623250Y139260D01*
X623250Y132280D01*
X623250Y137080D02*
X616270Y137080D01*
X616270Y114740D02*
X623250Y114740D01*
X616270Y114740D02*
X616270Y121720D01*
X623250Y121720D01*
X623250Y114740D01*
X623250Y119540D02*
X616270Y119540D01*
X650440Y105090D02*
X650440Y98110D01*
X650440Y105090D02*
X657420Y105090D01*
X657420Y98110D01*
X650440Y98110D01*
X650440Y102910D02*
X657420Y102910D01*
X632900Y105090D02*
X632900Y98110D01*
X632900Y105090D02*
X639880Y105090D01*
X639880Y98110D01*
X632900Y98110D01*
X632900Y102910D02*
X639880Y102910D01*
X639880Y148910D02*
X639880Y155890D01*
X639880Y148910D02*
X632900Y148910D01*
X632900Y155890D01*
X639880Y155890D01*
X639880Y153710D02*
X632900Y153710D01*
X657420Y155890D02*
X657420Y148910D01*
X650440Y148910D01*
X650440Y155890D01*
X657420Y155890D01*
X657420Y153710D02*
X650440Y153710D01*
D17*
X607060Y118500D03*
X607060Y135500D03*
D12*
X636660Y88900D03*
X653660Y88900D03*
X653660Y165100D03*
X636660Y165100D03*
D10*
X802640Y228600D03*
X1005840Y228600D03*
D11*
X1022350Y8890D03*
X784860Y246380D03*
D12*
X874640Y165100D03*
X857640Y165100D03*
X950840Y165100D03*
X933840Y165100D03*
D13*
X791290Y155000D03*
X791290Y99000D03*
D14*
X828040Y142000D03*
X828040Y132000D03*
X828040Y122000D03*
X828040Y112000D03*
D15*
X853440Y12700D03*
X878840Y12700D03*
X904240Y12700D03*
X929640Y12700D03*
D13*
X1017190Y99000D03*
X1017190Y155000D03*
D14*
X980440Y112000D03*
X980440Y122000D03*
X980440Y132000D03*
X980440Y142000D03*
D15*
X955040Y12700D03*
D12*
X933840Y152400D03*
X950840Y152400D03*
X794140Y25400D03*
X811140Y25400D03*
D16*
X807920Y34610D02*
X807920Y41590D01*
X814900Y41590D01*
X814900Y34610D01*
X807920Y34610D01*
X807920Y39410D02*
X814900Y39410D01*
X790380Y41590D02*
X790380Y34610D01*
X790380Y41590D02*
X797360Y41590D01*
X797360Y34610D01*
X790380Y34610D01*
X790380Y39410D02*
X797360Y39410D01*
D17*
X866140Y182000D03*
X866140Y199000D03*
D18*
X895740Y134500D03*
X895740Y129500D03*
X895740Y124500D03*
X895740Y119500D03*
X912740Y119500D03*
X912740Y124500D03*
X912740Y129500D03*
X912740Y134500D03*
D19*
X798576Y177800D03*
X806704Y177800D03*
D17*
X828040Y186300D03*
X828040Y169300D03*
D20*
X929640Y115000D03*
D21*
X929640Y135270D03*
D22*
X926740Y178210D03*
X926740Y184710D03*
X926740Y191210D03*
X926740Y197710D03*
X881740Y197710D03*
X881740Y191210D03*
X881740Y184710D03*
X881740Y178210D03*
D12*
X874640Y152400D03*
X857640Y152400D03*
D16*
X875350Y132280D02*
X882330Y132280D01*
X875350Y132280D02*
X875350Y139260D01*
X882330Y139260D01*
X882330Y132280D01*
X882330Y137080D02*
X875350Y137080D01*
X875350Y114740D02*
X882330Y114740D01*
X875350Y114740D02*
X875350Y121720D01*
X882330Y121720D01*
X882330Y114740D01*
X882330Y119540D02*
X875350Y119540D01*
X909520Y105090D02*
X909520Y98110D01*
X909520Y105090D02*
X916500Y105090D01*
X916500Y98110D01*
X909520Y98110D01*
X909520Y102910D02*
X916500Y102910D01*
X891980Y105090D02*
X891980Y98110D01*
X891980Y105090D02*
X898960Y105090D01*
X898960Y98110D01*
X891980Y98110D01*
X891980Y102910D02*
X898960Y102910D01*
X898960Y148910D02*
X898960Y155890D01*
X898960Y148910D02*
X891980Y148910D01*
X891980Y155890D01*
X898960Y155890D01*
X898960Y153710D02*
X891980Y153710D01*
X916500Y155890D02*
X916500Y148910D01*
X909520Y148910D01*
X909520Y155890D01*
X916500Y155890D01*
X916500Y153710D02*
X909520Y153710D01*
D17*
X866140Y118500D03*
X866140Y135500D03*
D12*
X895740Y88900D03*
X912740Y88900D03*
X912740Y165100D03*
X895740Y165100D03*
D10*
X25400Y487680D03*
X228600Y487680D03*
D11*
X245110Y267970D03*
X7620Y505460D03*
D12*
X97400Y424180D03*
X80400Y424180D03*
X173600Y424180D03*
X156600Y424180D03*
D13*
X14050Y414080D03*
X14050Y358080D03*
D14*
X50800Y401080D03*
X50800Y391080D03*
X50800Y381080D03*
X50800Y371080D03*
D15*
X76200Y271780D03*
X101600Y271780D03*
X127000Y271780D03*
X152400Y271780D03*
D13*
X239950Y358080D03*
X239950Y414080D03*
D14*
X203200Y371080D03*
X203200Y381080D03*
X203200Y391080D03*
X203200Y401080D03*
D15*
X177800Y271780D03*
D12*
X156600Y411480D03*
X173600Y411480D03*
X16900Y284480D03*
X33900Y284480D03*
D16*
X30680Y293690D02*
X30680Y300670D01*
X37660Y300670D01*
X37660Y293690D01*
X30680Y293690D01*
X30680Y298490D02*
X37660Y298490D01*
X13140Y300670D02*
X13140Y293690D01*
X13140Y300670D02*
X20120Y300670D01*
X20120Y293690D01*
X13140Y293690D01*
X13140Y298490D02*
X20120Y298490D01*
D17*
X88900Y441080D03*
X88900Y458080D03*
D18*
X118500Y393580D03*
X118500Y388580D03*
X118500Y383580D03*
X118500Y378580D03*
X135500Y378580D03*
X135500Y383580D03*
X135500Y388580D03*
X135500Y393580D03*
D19*
X21336Y436880D03*
X29464Y436880D03*
D17*
X50800Y445380D03*
X50800Y428380D03*
D20*
X152400Y374080D03*
D21*
X152400Y394350D03*
D22*
X149500Y437290D03*
X149500Y443790D03*
X149500Y450290D03*
X149500Y456790D03*
X104500Y456790D03*
X104500Y450290D03*
X104500Y443790D03*
X104500Y437290D03*
D12*
X97400Y411480D03*
X80400Y411480D03*
D16*
X98110Y391360D02*
X105090Y391360D01*
X98110Y391360D02*
X98110Y398340D01*
X105090Y398340D01*
X105090Y391360D01*
X105090Y396160D02*
X98110Y396160D01*
X98110Y373820D02*
X105090Y373820D01*
X98110Y373820D02*
X98110Y380800D01*
X105090Y380800D01*
X105090Y373820D01*
X105090Y378620D02*
X98110Y378620D01*
X132280Y364170D02*
X132280Y357190D01*
X132280Y364170D02*
X139260Y364170D01*
X139260Y357190D01*
X132280Y357190D01*
X132280Y361990D02*
X139260Y361990D01*
X114740Y364170D02*
X114740Y357190D01*
X114740Y364170D02*
X121720Y364170D01*
X121720Y357190D01*
X114740Y357190D01*
X114740Y361990D02*
X121720Y361990D01*
X121720Y407990D02*
X121720Y414970D01*
X121720Y407990D02*
X114740Y407990D01*
X114740Y414970D01*
X121720Y414970D01*
X121720Y412790D02*
X114740Y412790D01*
X139260Y414970D02*
X139260Y407990D01*
X132280Y407990D01*
X132280Y414970D01*
X139260Y414970D01*
X139260Y412790D02*
X132280Y412790D01*
D17*
X88900Y377580D03*
X88900Y394580D03*
D12*
X118500Y347980D03*
X135500Y347980D03*
X135500Y424180D03*
X118500Y424180D03*
D10*
X284480Y487680D03*
X487680Y487680D03*
D11*
X504190Y267970D03*
X266700Y505460D03*
D12*
X356480Y424180D03*
X339480Y424180D03*
X432680Y424180D03*
X415680Y424180D03*
D13*
X273130Y414080D03*
X273130Y358080D03*
D14*
X309880Y401080D03*
X309880Y391080D03*
X309880Y381080D03*
X309880Y371080D03*
D15*
X335280Y271780D03*
X360680Y271780D03*
X386080Y271780D03*
X411480Y271780D03*
D13*
X499030Y358080D03*
X499030Y414080D03*
D14*
X462280Y371080D03*
X462280Y381080D03*
X462280Y391080D03*
X462280Y401080D03*
D15*
X436880Y271780D03*
D12*
X415680Y411480D03*
X432680Y411480D03*
X275980Y284480D03*
X292980Y284480D03*
D16*
X289760Y293690D02*
X289760Y300670D01*
X296740Y300670D01*
X296740Y293690D01*
X289760Y293690D01*
X289760Y298490D02*
X296740Y298490D01*
X272220Y300670D02*
X272220Y293690D01*
X272220Y300670D02*
X279200Y300670D01*
X279200Y293690D01*
X272220Y293690D01*
X272220Y298490D02*
X279200Y298490D01*
D17*
X347980Y441080D03*
X347980Y458080D03*
D18*
X377580Y393580D03*
X377580Y388580D03*
X377580Y383580D03*
X377580Y378580D03*
X394580Y378580D03*
X394580Y383580D03*
X394580Y388580D03*
X394580Y393580D03*
D19*
X280416Y436880D03*
X288544Y436880D03*
D17*
X309880Y445380D03*
X309880Y428380D03*
D20*
X411480Y374080D03*
D21*
X411480Y394350D03*
D22*
X408580Y437290D03*
X408580Y443790D03*
X408580Y450290D03*
X408580Y456790D03*
X363580Y456790D03*
X363580Y450290D03*
X363580Y443790D03*
X363580Y437290D03*
D12*
X356480Y411480D03*
X339480Y411480D03*
D16*
X357190Y391360D02*
X364170Y391360D01*
X357190Y391360D02*
X357190Y398340D01*
X364170Y398340D01*
X364170Y391360D01*
X364170Y396160D02*
X357190Y396160D01*
X357190Y373820D02*
X364170Y373820D01*
X357190Y373820D02*
X357190Y380800D01*
X364170Y380800D01*
X364170Y373820D01*
X364170Y378620D02*
X357190Y378620D01*
X391360Y364170D02*
X391360Y357190D01*
X391360Y364170D02*
X398340Y364170D01*
X398340Y357190D01*
X391360Y357190D01*
X391360Y361990D02*
X398340Y361990D01*
X373820Y364170D02*
X373820Y357190D01*
X373820Y364170D02*
X380800Y364170D01*
X380800Y357190D01*
X373820Y357190D01*
X373820Y361990D02*
X380800Y361990D01*
X380800Y407990D02*
X380800Y414970D01*
X380800Y407990D02*
X373820Y407990D01*
X373820Y414970D01*
X380800Y414970D01*
X380800Y412790D02*
X373820Y412790D01*
X398340Y414970D02*
X398340Y407990D01*
X391360Y407990D01*
X391360Y414970D01*
X398340Y414970D01*
X398340Y412790D02*
X391360Y412790D01*
D17*
X347980Y377580D03*
X347980Y394580D03*
D12*
X377580Y347980D03*
X394580Y347980D03*
X394580Y424180D03*
X377580Y424180D03*
D10*
X543560Y487680D03*
X746760Y487680D03*
D11*
X763270Y267970D03*
X525780Y505460D03*
D12*
X615560Y424180D03*
X598560Y424180D03*
X691760Y424180D03*
X674760Y424180D03*
D13*
X532210Y414080D03*
X532210Y358080D03*
D14*
X568960Y401080D03*
X568960Y391080D03*
X568960Y381080D03*
X568960Y371080D03*
D15*
X594360Y271780D03*
X619760Y271780D03*
X645160Y271780D03*
X670560Y271780D03*
D13*
X758110Y358080D03*
X758110Y414080D03*
D14*
X721360Y371080D03*
X721360Y381080D03*
X721360Y391080D03*
X721360Y401080D03*
D15*
X695960Y271780D03*
D12*
X674760Y411480D03*
X691760Y411480D03*
X535060Y284480D03*
X552060Y284480D03*
D16*
X548840Y293690D02*
X548840Y300670D01*
X555820Y300670D01*
X555820Y293690D01*
X548840Y293690D01*
X548840Y298490D02*
X555820Y298490D01*
X531300Y300670D02*
X531300Y293690D01*
X531300Y300670D02*
X538280Y300670D01*
X538280Y293690D01*
X531300Y293690D01*
X531300Y298490D02*
X538280Y298490D01*
D17*
X607060Y441080D03*
X607060Y458080D03*
D18*
X636660Y393580D03*
X636660Y388580D03*
X636660Y383580D03*
X636660Y378580D03*
X653660Y378580D03*
X653660Y383580D03*
X653660Y388580D03*
X653660Y393580D03*
D19*
X539496Y436880D03*
X547624Y436880D03*
D17*
X568960Y445380D03*
X568960Y428380D03*
D20*
X670560Y374080D03*
D21*
X670560Y394350D03*
D22*
X667660Y437290D03*
X667660Y443790D03*
X667660Y450290D03*
X667660Y456790D03*
X622660Y456790D03*
X622660Y450290D03*
X622660Y443790D03*
X622660Y437290D03*
D12*
X615560Y411480D03*
X598560Y411480D03*
D16*
X616270Y391360D02*
X623250Y391360D01*
X616270Y391360D02*
X616270Y398340D01*
X623250Y398340D01*
X623250Y391360D01*
X623250Y396160D02*
X616270Y396160D01*
X616270Y373820D02*
X623250Y373820D01*
X616270Y373820D02*
X616270Y380800D01*
X623250Y380800D01*
X623250Y373820D01*
X623250Y378620D02*
X616270Y378620D01*
X650440Y364170D02*
X650440Y357190D01*
X650440Y364170D02*
X657420Y364170D01*
X657420Y357190D01*
X650440Y357190D01*
X650440Y361990D02*
X657420Y361990D01*
X632900Y364170D02*
X632900Y357190D01*
X632900Y364170D02*
X639880Y364170D01*
X639880Y357190D01*
X632900Y357190D01*
X632900Y361990D02*
X639880Y361990D01*
X639880Y407990D02*
X639880Y414970D01*
X639880Y407990D02*
X632900Y407990D01*
X632900Y414970D01*
X639880Y414970D01*
X639880Y412790D02*
X632900Y412790D01*
X657420Y414970D02*
X657420Y407990D01*
X650440Y407990D01*
X650440Y414970D01*
X657420Y414970D01*
X657420Y412790D02*
X650440Y412790D01*
D17*
X607060Y377580D03*
X607060Y394580D03*
D12*
X636660Y347980D03*
X653660Y347980D03*
X653660Y424180D03*
X636660Y424180D03*
D10*
X802640Y487680D03*
X1005840Y487680D03*
D11*
X1022350Y267970D03*
X784860Y505460D03*
D12*
X874640Y424180D03*
X857640Y424180D03*
X950840Y424180D03*
X933840Y424180D03*
D13*
X791290Y414080D03*
X791290Y358080D03*
D14*
X828040Y401080D03*
X828040Y391080D03*
X828040Y381080D03*
X828040Y371080D03*
D15*
X853440Y271780D03*
X878840Y271780D03*
X904240Y271780D03*
X929640Y271780D03*
D13*
X1017190Y358080D03*
X1017190Y414080D03*
D14*
X980440Y371080D03*
X980440Y381080D03*
X980440Y391080D03*
X980440Y401080D03*
D15*
X955040Y271780D03*
D12*
X933840Y411480D03*
X950840Y411480D03*
X794140Y284480D03*
X811140Y284480D03*
D16*
X807920Y293690D02*
X807920Y300670D01*
X814900Y300670D01*
X814900Y293690D01*
X807920Y293690D01*
X807920Y298490D02*
X814900Y298490D01*
X790380Y300670D02*
X790380Y293690D01*
X790380Y300670D02*
X797360Y300670D01*
X797360Y293690D01*
X790380Y293690D01*
X790380Y298490D02*
X797360Y298490D01*
D17*
X866140Y441080D03*
X866140Y458080D03*
D18*
X895740Y393580D03*
X895740Y388580D03*
X895740Y383580D03*
X895740Y378580D03*
X912740Y378580D03*
X912740Y383580D03*
X912740Y388580D03*
X912740Y393580D03*
D19*
X798576Y436880D03*
X806704Y436880D03*
D17*
X828040Y445380D03*
X828040Y428380D03*
D20*
X929640Y374080D03*
D21*
X929640Y394350D03*
D22*
X926740Y437290D03*
X926740Y443790D03*
X926740Y450290D03*
X926740Y456790D03*
X881740Y456790D03*
X881740Y450290D03*
X881740Y443790D03*
X881740Y437290D03*
D12*
X874640Y411480D03*
X857640Y411480D03*
D16*
X875350Y391360D02*
X882330Y391360D01*
X875350Y391360D02*
X875350Y398340D01*
X882330Y398340D01*
X882330Y391360D01*
X882330Y396160D02*
X875350Y396160D01*
X875350Y373820D02*
X882330Y373820D01*
X875350Y373820D02*
X875350Y380800D01*
X882330Y380800D01*
X882330Y373820D01*
X882330Y378620D02*
X875350Y378620D01*
X909520Y364170D02*
X909520Y357190D01*
X909520Y364170D02*
X916500Y364170D01*
X916500Y357190D01*
X909520Y357190D01*
X909520Y361990D02*
X916500Y361990D01*
X891980Y364170D02*
X891980Y357190D01*
X891980Y364170D02*
X898960Y364170D01*
X898960Y357190D01*
X891980Y357190D01*
X891980Y361990D02*
X898960Y361990D01*
X898960Y407990D02*
X898960Y414970D01*
X898960Y407990D02*
X891980Y407990D01*
X891980Y414970D01*
X898960Y414970D01*
X898960Y412790D02*
X891980Y412790D01*
X916500Y414970D02*
X916500Y407990D01*
X909520Y407990D01*
X909520Y414970D01*
X916500Y414970D01*
X916500Y412790D02*
X909520Y412790D01*
D17*
X866140Y377580D03*
X866140Y394580D03*
D12*
X895740Y347980D03*
X912740Y347980D03*
X912740Y424180D03*
X895740Y424180D03*
D10*
X25400Y746760D03*
X228600Y746760D03*
D11*
X245110Y527050D03*
X7620Y764540D03*
D12*
X97400Y683260D03*
X80400Y683260D03*
X173600Y683260D03*
X156600Y683260D03*
D13*
X14050Y673160D03*
X14050Y617160D03*
D14*
X50800Y660160D03*
X50800Y650160D03*
X50800Y640160D03*
X50800Y630160D03*
D15*
X76200Y530860D03*
X101600Y530860D03*
X127000Y530860D03*
X152400Y530860D03*
D13*
X239950Y617160D03*
X239950Y673160D03*
D14*
X203200Y630160D03*
X203200Y640160D03*
X203200Y650160D03*
X203200Y660160D03*
D15*
X177800Y530860D03*
D12*
X156600Y670560D03*
X173600Y670560D03*
X16900Y543560D03*
X33900Y543560D03*
D16*
X30680Y552770D02*
X30680Y559750D01*
X37660Y559750D01*
X37660Y552770D01*
X30680Y552770D01*
X30680Y557570D02*
X37660Y557570D01*
X13140Y559750D02*
X13140Y552770D01*
X13140Y559750D02*
X20120Y559750D01*
X20120Y552770D01*
X13140Y552770D01*
X13140Y557570D02*
X20120Y557570D01*
D17*
X88900Y700160D03*
X88900Y717160D03*
D18*
X118500Y652660D03*
X118500Y647660D03*
X118500Y642660D03*
X118500Y637660D03*
X135500Y637660D03*
X135500Y642660D03*
X135500Y647660D03*
X135500Y652660D03*
D19*
X21336Y695960D03*
X29464Y695960D03*
D17*
X50800Y704460D03*
X50800Y687460D03*
D20*
X152400Y633160D03*
D21*
X152400Y653430D03*
D22*
X149500Y696370D03*
X149500Y702870D03*
X149500Y709370D03*
X149500Y715870D03*
X104500Y715870D03*
X104500Y709370D03*
X104500Y702870D03*
X104500Y696370D03*
D12*
X97400Y670560D03*
X80400Y670560D03*
D16*
X98110Y650440D02*
X105090Y650440D01*
X98110Y650440D02*
X98110Y657420D01*
X105090Y657420D01*
X105090Y650440D01*
X105090Y655240D02*
X98110Y655240D01*
X98110Y632900D02*
X105090Y632900D01*
X98110Y632900D02*
X98110Y639880D01*
X105090Y639880D01*
X105090Y632900D01*
X105090Y637700D02*
X98110Y637700D01*
X132280Y623250D02*
X132280Y616270D01*
X132280Y623250D02*
X139260Y623250D01*
X139260Y616270D01*
X132280Y616270D01*
X132280Y621070D02*
X139260Y621070D01*
X114740Y623250D02*
X114740Y616270D01*
X114740Y623250D02*
X121720Y623250D01*
X121720Y616270D01*
X114740Y616270D01*
X114740Y621070D02*
X121720Y621070D01*
X121720Y667070D02*
X121720Y674050D01*
X121720Y667070D02*
X114740Y667070D01*
X114740Y674050D01*
X121720Y674050D01*
X121720Y671870D02*
X114740Y671870D01*
X139260Y674050D02*
X139260Y667070D01*
X132280Y667070D01*
X132280Y674050D01*
X139260Y674050D01*
X139260Y671870D02*
X132280Y671870D01*
D17*
X88900Y636660D03*
X88900Y653660D03*
D12*
X118500Y607060D03*
X135500Y607060D03*
X135500Y683260D03*
X118500Y683260D03*
D10*
X284480Y746760D03*
X487680Y746760D03*
D11*
X504190Y527050D03*
X266700Y764540D03*
D12*
X356480Y683260D03*
X339480Y683260D03*
X432680Y683260D03*
X415680Y683260D03*
D13*
X273130Y673160D03*
X273130Y617160D03*
D14*
X309880Y660160D03*
X309880Y650160D03*
X309880Y640160D03*
X309880Y630160D03*
D15*
X335280Y530860D03*
X360680Y530860D03*
X386080Y530860D03*
X411480Y530860D03*
D13*
X499030Y617160D03*
X499030Y673160D03*
D14*
X462280Y630160D03*
X462280Y640160D03*
X462280Y650160D03*
X462280Y660160D03*
D15*
X436880Y530860D03*
D12*
X415680Y670560D03*
X432680Y670560D03*
X275980Y543560D03*
X292980Y543560D03*
D16*
X289760Y552770D02*
X289760Y559750D01*
X296740Y559750D01*
X296740Y552770D01*
X289760Y552770D01*
X289760Y557570D02*
X296740Y557570D01*
X272220Y559750D02*
X272220Y552770D01*
X272220Y559750D02*
X279200Y559750D01*
X279200Y552770D01*
X272220Y552770D01*
X272220Y557570D02*
X279200Y557570D01*
D17*
X347980Y700160D03*
X347980Y717160D03*
D18*
X377580Y652660D03*
X377580Y647660D03*
X377580Y642660D03*
X377580Y637660D03*
X394580Y637660D03*
X394580Y642660D03*
X394580Y647660D03*
X394580Y652660D03*
D19*
X280416Y695960D03*
X288544Y695960D03*
D17*
X309880Y704460D03*
X309880Y687460D03*
D20*
X411480Y633160D03*
D21*
X411480Y653430D03*
D22*
X408580Y696370D03*
X408580Y702870D03*
X408580Y709370D03*
X408580Y715870D03*
X363580Y715870D03*
X363580Y709370D03*
X363580Y702870D03*
X363580Y696370D03*
D12*
X356480Y670560D03*
X339480Y670560D03*
D16*
X357190Y650440D02*
X364170Y650440D01*
X357190Y650440D02*
X357190Y657420D01*
X364170Y657420D01*
X364170Y650440D01*
X364170Y655240D02*
X357190Y655240D01*
X357190Y632900D02*
X364170Y632900D01*
X357190Y632900D02*
X357190Y639880D01*
X364170Y639880D01*
X364170Y632900D01*
X364170Y637700D02*
X357190Y637700D01*
X391360Y623250D02*
X391360Y616270D01*
X391360Y623250D02*
X398340Y623250D01*
X398340Y616270D01*
X391360Y616270D01*
X391360Y621070D02*
X398340Y621070D01*
X373820Y623250D02*
X373820Y616270D01*
X373820Y623250D02*
X380800Y623250D01*
X380800Y616270D01*
X373820Y616270D01*
X373820Y621070D02*
X380800Y621070D01*
X380800Y667070D02*
X380800Y674050D01*
X380800Y667070D02*
X373820Y667070D01*
X373820Y674050D01*
X380800Y674050D01*
X380800Y671870D02*
X373820Y671870D01*
X398340Y674050D02*
X398340Y667070D01*
X391360Y667070D01*
X391360Y674050D01*
X398340Y674050D01*
X398340Y671870D02*
X391360Y671870D01*
D17*
X347980Y636660D03*
X347980Y653660D03*
D12*
X377580Y607060D03*
X394580Y607060D03*
X394580Y683260D03*
X377580Y683260D03*
D10*
X543560Y746760D03*
X746760Y746760D03*
D11*
X763270Y527050D03*
X525780Y764540D03*
D12*
X615560Y683260D03*
X598560Y683260D03*
X691760Y683260D03*
X674760Y683260D03*
D13*
X532210Y673160D03*
X532210Y617160D03*
D14*
X568960Y660160D03*
X568960Y650160D03*
X568960Y640160D03*
X568960Y630160D03*
D15*
X594360Y530860D03*
X619760Y530860D03*
X645160Y530860D03*
X670560Y530860D03*
D13*
X758110Y617160D03*
X758110Y673160D03*
D14*
X721360Y630160D03*
X721360Y640160D03*
X721360Y650160D03*
X721360Y660160D03*
D15*
X695960Y530860D03*
D12*
X674760Y670560D03*
X691760Y670560D03*
X535060Y543560D03*
X552060Y543560D03*
D16*
X548840Y552770D02*
X548840Y559750D01*
X555820Y559750D01*
X555820Y552770D01*
X548840Y552770D01*
X548840Y557570D02*
X555820Y557570D01*
X531300Y559750D02*
X531300Y552770D01*
X531300Y559750D02*
X538280Y559750D01*
X538280Y552770D01*
X531300Y552770D01*
X531300Y557570D02*
X538280Y557570D01*
D17*
X607060Y700160D03*
X607060Y717160D03*
D18*
X636660Y652660D03*
X636660Y647660D03*
X636660Y642660D03*
X636660Y637660D03*
X653660Y637660D03*
X653660Y642660D03*
X653660Y647660D03*
X653660Y652660D03*
D19*
X539496Y695960D03*
X547624Y695960D03*
D17*
X568960Y704460D03*
X568960Y687460D03*
D20*
X670560Y633160D03*
D21*
X670560Y653430D03*
D22*
X667660Y696370D03*
X667660Y702870D03*
X667660Y709370D03*
X667660Y715870D03*
X622660Y715870D03*
X622660Y709370D03*
X622660Y702870D03*
X622660Y696370D03*
D12*
X615560Y670560D03*
X598560Y670560D03*
D16*
X616270Y650440D02*
X623250Y650440D01*
X616270Y650440D02*
X616270Y657420D01*
X623250Y657420D01*
X623250Y650440D01*
X623250Y655240D02*
X616270Y655240D01*
X616270Y632900D02*
X623250Y632900D01*
X616270Y632900D02*
X616270Y639880D01*
X623250Y639880D01*
X623250Y632900D01*
X623250Y637700D02*
X616270Y637700D01*
X650440Y623250D02*
X650440Y616270D01*
X650440Y623250D02*
X657420Y623250D01*
X657420Y616270D01*
X650440Y616270D01*
X650440Y621070D02*
X657420Y621070D01*
X632900Y623250D02*
X632900Y616270D01*
X632900Y623250D02*
X639880Y623250D01*
X639880Y616270D01*
X632900Y616270D01*
X632900Y621070D02*
X639880Y621070D01*
X639880Y667070D02*
X639880Y674050D01*
X639880Y667070D02*
X632900Y667070D01*
X632900Y674050D01*
X639880Y674050D01*
X639880Y671870D02*
X632900Y671870D01*
X657420Y674050D02*
X657420Y667070D01*
X650440Y667070D01*
X650440Y674050D01*
X657420Y674050D01*
X657420Y671870D02*
X650440Y671870D01*
D17*
X607060Y636660D03*
X607060Y653660D03*
D12*
X636660Y607060D03*
X653660Y607060D03*
X653660Y683260D03*
X636660Y683260D03*
D10*
X802640Y746760D03*
X1005840Y746760D03*
D11*
X1022350Y527050D03*
X784860Y764540D03*
D12*
X874640Y683260D03*
X857640Y683260D03*
X950840Y683260D03*
X933840Y683260D03*
D13*
X791290Y673160D03*
X791290Y617160D03*
D14*
X828040Y660160D03*
X828040Y650160D03*
X828040Y640160D03*
X828040Y630160D03*
D15*
X853440Y530860D03*
X878840Y530860D03*
X904240Y530860D03*
X929640Y530860D03*
D13*
X1017190Y617160D03*
X1017190Y673160D03*
D14*
X980440Y630160D03*
X980440Y640160D03*
X980440Y650160D03*
X980440Y660160D03*
D15*
X955040Y530860D03*
D12*
X933840Y670560D03*
X950840Y670560D03*
X794140Y543560D03*
X811140Y543560D03*
D16*
X807920Y552770D02*
X807920Y559750D01*
X814900Y559750D01*
X814900Y552770D01*
X807920Y552770D01*
X807920Y557570D02*
X814900Y557570D01*
X790380Y559750D02*
X790380Y552770D01*
X790380Y559750D02*
X797360Y559750D01*
X797360Y552770D01*
X790380Y552770D01*
X790380Y557570D02*
X797360Y557570D01*
D17*
X866140Y700160D03*
X866140Y717160D03*
D18*
X895740Y652660D03*
X895740Y647660D03*
X895740Y642660D03*
X895740Y637660D03*
X912740Y637660D03*
X912740Y642660D03*
X912740Y647660D03*
X912740Y652660D03*
D19*
X798576Y695960D03*
X806704Y695960D03*
D17*
X828040Y704460D03*
X828040Y687460D03*
D20*
X929640Y633160D03*
D21*
X929640Y653430D03*
D22*
X926740Y696370D03*
X926740Y702870D03*
X926740Y709370D03*
X926740Y715870D03*
X881740Y715870D03*
X881740Y709370D03*
X881740Y702870D03*
X881740Y696370D03*
D12*
X874640Y670560D03*
X857640Y670560D03*
D16*
X875350Y650440D02*
X882330Y650440D01*
X875350Y650440D02*
X875350Y657420D01*
X882330Y657420D01*
X882330Y650440D01*
X882330Y655240D02*
X875350Y655240D01*
X875350Y632900D02*
X882330Y632900D01*
X875350Y632900D02*
X875350Y639880D01*
X882330Y639880D01*
X882330Y632900D01*
X882330Y637700D02*
X875350Y637700D01*
X909520Y623250D02*
X909520Y616270D01*
X909520Y623250D02*
X916500Y623250D01*
X916500Y616270D01*
X909520Y616270D01*
X909520Y621070D02*
X916500Y621070D01*
X891980Y623250D02*
X891980Y616270D01*
X891980Y623250D02*
X898960Y623250D01*
X898960Y616270D01*
X891980Y616270D01*
X891980Y621070D02*
X898960Y621070D01*
X898960Y667070D02*
X898960Y674050D01*
X898960Y667070D02*
X891980Y667070D01*
X891980Y674050D01*
X898960Y674050D01*
X898960Y671870D02*
X891980Y671870D01*
X916500Y674050D02*
X916500Y667070D01*
X909520Y667070D01*
X909520Y674050D01*
X916500Y674050D01*
X916500Y671870D02*
X909520Y671870D01*
D17*
X866140Y636660D03*
X866140Y653660D03*
D12*
X895740Y607060D03*
X912740Y607060D03*
X912740Y683260D03*
X895740Y683260D03*
D10*
X25400Y1005840D03*
X228600Y1005840D03*
D11*
X245110Y786130D03*
X7620Y1023620D03*
D12*
X97400Y942340D03*
X80400Y942340D03*
X173600Y942340D03*
X156600Y942340D03*
D13*
X14050Y932240D03*
X14050Y876240D03*
D14*
X50800Y919240D03*
X50800Y909240D03*
X50800Y899240D03*
X50800Y889240D03*
D15*
X76200Y789940D03*
X101600Y789940D03*
X127000Y789940D03*
X152400Y789940D03*
D13*
X239950Y876240D03*
X239950Y932240D03*
D14*
X203200Y889240D03*
X203200Y899240D03*
X203200Y909240D03*
X203200Y919240D03*
D15*
X177800Y789940D03*
D12*
X156600Y929640D03*
X173600Y929640D03*
X16900Y802640D03*
X33900Y802640D03*
D16*
X30680Y811850D02*
X30680Y818830D01*
X37660Y818830D01*
X37660Y811850D01*
X30680Y811850D01*
X30680Y816650D02*
X37660Y816650D01*
X13140Y818830D02*
X13140Y811850D01*
X13140Y818830D02*
X20120Y818830D01*
X20120Y811850D01*
X13140Y811850D01*
X13140Y816650D02*
X20120Y816650D01*
D17*
X88900Y959240D03*
X88900Y976240D03*
D18*
X118500Y911740D03*
X118500Y906740D03*
X118500Y901740D03*
X118500Y896740D03*
X135500Y896740D03*
X135500Y901740D03*
X135500Y906740D03*
X135500Y911740D03*
D19*
X21336Y955040D03*
X29464Y955040D03*
D17*
X50800Y963540D03*
X50800Y946540D03*
D20*
X152400Y892240D03*
D21*
X152400Y912510D03*
D22*
X149500Y955450D03*
X149500Y961950D03*
X149500Y968450D03*
X149500Y974950D03*
X104500Y974950D03*
X104500Y968450D03*
X104500Y961950D03*
X104500Y955450D03*
D12*
X97400Y929640D03*
X80400Y929640D03*
D16*
X98110Y909520D02*
X105090Y909520D01*
X98110Y909520D02*
X98110Y916500D01*
X105090Y916500D01*
X105090Y909520D01*
X105090Y914320D02*
X98110Y914320D01*
X98110Y891980D02*
X105090Y891980D01*
X98110Y891980D02*
X98110Y898960D01*
X105090Y898960D01*
X105090Y891980D01*
X105090Y896780D02*
X98110Y896780D01*
X132280Y882330D02*
X132280Y875350D01*
X132280Y882330D02*
X139260Y882330D01*
X139260Y875350D01*
X132280Y875350D01*
X132280Y880150D02*
X139260Y880150D01*
X114740Y882330D02*
X114740Y875350D01*
X114740Y882330D02*
X121720Y882330D01*
X121720Y875350D01*
X114740Y875350D01*
X114740Y880150D02*
X121720Y880150D01*
X121720Y926150D02*
X121720Y933130D01*
X121720Y926150D02*
X114740Y926150D01*
X114740Y933130D01*
X121720Y933130D01*
X121720Y930950D02*
X114740Y930950D01*
X139260Y933130D02*
X139260Y926150D01*
X132280Y926150D01*
X132280Y933130D01*
X139260Y933130D01*
X139260Y930950D02*
X132280Y930950D01*
D17*
X88900Y895740D03*
X88900Y912740D03*
D12*
X118500Y866140D03*
X135500Y866140D03*
X135500Y942340D03*
X118500Y942340D03*
D10*
X284480Y1005840D03*
X487680Y1005840D03*
D11*
X504190Y786130D03*
X266700Y1023620D03*
D12*
X356480Y942340D03*
X339480Y942340D03*
X432680Y942340D03*
X415680Y942340D03*
D13*
X273130Y932240D03*
X273130Y876240D03*
D14*
X309880Y919240D03*
X309880Y909240D03*
X309880Y899240D03*
X309880Y889240D03*
D15*
X335280Y789940D03*
X360680Y789940D03*
X386080Y789940D03*
X411480Y789940D03*
D13*
X499030Y876240D03*
X499030Y932240D03*
D14*
X462280Y889240D03*
X462280Y899240D03*
X462280Y909240D03*
X462280Y919240D03*
D15*
X436880Y789940D03*
D12*
X415680Y929640D03*
X432680Y929640D03*
X275980Y802640D03*
X292980Y802640D03*
D16*
X289760Y811850D02*
X289760Y818830D01*
X296740Y818830D01*
X296740Y811850D01*
X289760Y811850D01*
X289760Y816650D02*
X296740Y816650D01*
X272220Y818830D02*
X272220Y811850D01*
X272220Y818830D02*
X279200Y818830D01*
X279200Y811850D01*
X272220Y811850D01*
X272220Y816650D02*
X279200Y816650D01*
D17*
X347980Y959240D03*
X347980Y976240D03*
D18*
X377580Y911740D03*
X377580Y906740D03*
X377580Y901740D03*
X377580Y896740D03*
X394580Y896740D03*
X394580Y901740D03*
X394580Y906740D03*
X394580Y911740D03*
D19*
X280416Y955040D03*
X288544Y955040D03*
D17*
X309880Y963540D03*
X309880Y946540D03*
D20*
X411480Y892240D03*
D21*
X411480Y912510D03*
D22*
X408580Y955450D03*
X408580Y961950D03*
X408580Y968450D03*
X408580Y974950D03*
X363580Y974950D03*
X363580Y968450D03*
X363580Y961950D03*
X363580Y955450D03*
D12*
X356480Y929640D03*
X339480Y929640D03*
D16*
X357190Y909520D02*
X364170Y909520D01*
X357190Y909520D02*
X357190Y916500D01*
X364170Y916500D01*
X364170Y909520D01*
X364170Y914320D02*
X357190Y914320D01*
X357190Y891980D02*
X364170Y891980D01*
X357190Y891980D02*
X357190Y898960D01*
X364170Y898960D01*
X364170Y891980D01*
X364170Y896780D02*
X357190Y896780D01*
X391360Y882330D02*
X391360Y875350D01*
X391360Y882330D02*
X398340Y882330D01*
X398340Y875350D01*
X391360Y875350D01*
X391360Y880150D02*
X398340Y880150D01*
X373820Y882330D02*
X373820Y875350D01*
X373820Y882330D02*
X380800Y882330D01*
X380800Y875350D01*
X373820Y875350D01*
X373820Y880150D02*
X380800Y880150D01*
X380800Y926150D02*
X380800Y933130D01*
X380800Y926150D02*
X373820Y926150D01*
X373820Y933130D01*
X380800Y933130D01*
X380800Y930950D02*
X373820Y930950D01*
X398340Y933130D02*
X398340Y926150D01*
X391360Y926150D01*
X391360Y933130D01*
X398340Y933130D01*
X398340Y930950D02*
X391360Y930950D01*
D17*
X347980Y895740D03*
X347980Y912740D03*
D12*
X377580Y866140D03*
X394580Y866140D03*
X394580Y942340D03*
X377580Y942340D03*
D10*
X543560Y1005840D03*
X746760Y1005840D03*
D11*
X763270Y786130D03*
X525780Y1023620D03*
D12*
X615560Y942340D03*
X598560Y942340D03*
X691760Y942340D03*
X674760Y942340D03*
D13*
X532210Y932240D03*
X532210Y876240D03*
D14*
X568960Y919240D03*
X568960Y909240D03*
X568960Y899240D03*
X568960Y889240D03*
D15*
X594360Y789940D03*
X619760Y789940D03*
X645160Y789940D03*
X670560Y789940D03*
D13*
X758110Y876240D03*
X758110Y932240D03*
D14*
X721360Y889240D03*
X721360Y899240D03*
X721360Y909240D03*
X721360Y919240D03*
D15*
X695960Y789940D03*
D12*
X674760Y929640D03*
X691760Y929640D03*
X535060Y802640D03*
X552060Y802640D03*
D16*
X548840Y811850D02*
X548840Y818830D01*
X555820Y818830D01*
X555820Y811850D01*
X548840Y811850D01*
X548840Y816650D02*
X555820Y816650D01*
X531300Y818830D02*
X531300Y811850D01*
X531300Y818830D02*
X538280Y818830D01*
X538280Y811850D01*
X531300Y811850D01*
X531300Y816650D02*
X538280Y816650D01*
D17*
X607060Y959240D03*
X607060Y976240D03*
D18*
X636660Y911740D03*
X636660Y906740D03*
X636660Y901740D03*
X636660Y896740D03*
X653660Y896740D03*
X653660Y901740D03*
X653660Y906740D03*
X653660Y911740D03*
D19*
X539496Y955040D03*
X547624Y955040D03*
D17*
X568960Y963540D03*
X568960Y946540D03*
D20*
X670560Y892240D03*
D21*
X670560Y912510D03*
D22*
X667660Y955450D03*
X667660Y961950D03*
X667660Y968450D03*
X667660Y974950D03*
X622660Y974950D03*
X622660Y968450D03*
X622660Y961950D03*
X622660Y955450D03*
D12*
X615560Y929640D03*
X598560Y929640D03*
D16*
X616270Y909520D02*
X623250Y909520D01*
X616270Y909520D02*
X616270Y916500D01*
X623250Y916500D01*
X623250Y909520D01*
X623250Y914320D02*
X616270Y914320D01*
X616270Y891980D02*
X623250Y891980D01*
X616270Y891980D02*
X616270Y898960D01*
X623250Y898960D01*
X623250Y891980D01*
X623250Y896780D02*
X616270Y896780D01*
X650440Y882330D02*
X650440Y875350D01*
X650440Y882330D02*
X657420Y882330D01*
X657420Y875350D01*
X650440Y875350D01*
X650440Y880150D02*
X657420Y880150D01*
X632900Y882330D02*
X632900Y875350D01*
X632900Y882330D02*
X639880Y882330D01*
X639880Y875350D01*
X632900Y875350D01*
X632900Y880150D02*
X639880Y880150D01*
X639880Y926150D02*
X639880Y933130D01*
X639880Y926150D02*
X632900Y926150D01*
X632900Y933130D01*
X639880Y933130D01*
X639880Y930950D02*
X632900Y930950D01*
X657420Y933130D02*
X657420Y926150D01*
X650440Y926150D01*
X650440Y933130D01*
X657420Y933130D01*
X657420Y930950D02*
X650440Y930950D01*
D17*
X607060Y895740D03*
X607060Y912740D03*
D12*
X636660Y866140D03*
X653660Y866140D03*
X653660Y942340D03*
X636660Y942340D03*
D10*
X802640Y1005840D03*
X1005840Y1005840D03*
D11*
X1022350Y786130D03*
X784860Y1023620D03*
D12*
X874640Y942340D03*
X857640Y942340D03*
X950840Y942340D03*
X933840Y942340D03*
D13*
X791290Y932240D03*
X791290Y876240D03*
D14*
X828040Y919240D03*
X828040Y909240D03*
X828040Y899240D03*
X828040Y889240D03*
D15*
X853440Y789940D03*
X878840Y789940D03*
X904240Y789940D03*
X929640Y789940D03*
D13*
X1017190Y876240D03*
X1017190Y932240D03*
D14*
X980440Y889240D03*
X980440Y899240D03*
X980440Y909240D03*
X980440Y919240D03*
D15*
X955040Y789940D03*
D12*
X933840Y929640D03*
X950840Y929640D03*
X794140Y802640D03*
X811140Y802640D03*
D16*
X807920Y811850D02*
X807920Y818830D01*
X814900Y818830D01*
X814900Y811850D01*
X807920Y811850D01*
X807920Y816650D02*
X814900Y816650D01*
X790380Y818830D02*
X790380Y811850D01*
X790380Y818830D02*
X797360Y818830D01*
X797360Y811850D01*
X790380Y811850D01*
X790380Y816650D02*
X797360Y816650D01*
D17*
X866140Y959240D03*
X866140Y976240D03*
D18*
X895740Y911740D03*
X895740Y906740D03*
X895740Y901740D03*
X895740Y896740D03*
X912740Y896740D03*
X912740Y901740D03*
X912740Y906740D03*
X912740Y911740D03*
D19*
X798576Y955040D03*
X806704Y955040D03*
D17*
X828040Y963540D03*
X828040Y946540D03*
D20*
X929640Y892240D03*
D21*
X929640Y912510D03*
D22*
X926740Y955450D03*
X926740Y961950D03*
X926740Y968450D03*
X926740Y974950D03*
X881740Y974950D03*
X881740Y968450D03*
X881740Y961950D03*
X881740Y955450D03*
D12*
X874640Y929640D03*
X857640Y929640D03*
D16*
X875350Y909520D02*
X882330Y909520D01*
X875350Y909520D02*
X875350Y916500D01*
X882330Y916500D01*
X882330Y909520D01*
X882330Y914320D02*
X875350Y914320D01*
X875350Y891980D02*
X882330Y891980D01*
X875350Y891980D02*
X875350Y898960D01*
X882330Y898960D01*
X882330Y891980D01*
X882330Y896780D02*
X875350Y896780D01*
X909520Y882330D02*
X909520Y875350D01*
X909520Y882330D02*
X916500Y882330D01*
X916500Y875350D01*
X909520Y875350D01*
X909520Y880150D02*
X916500Y880150D01*
X891980Y882330D02*
X891980Y875350D01*
X891980Y882330D02*
X898960Y882330D01*
X898960Y875350D01*
X891980Y875350D01*
X891980Y880150D02*
X898960Y880150D01*
X898960Y926150D02*
X898960Y933130D01*
X898960Y926150D02*
X891980Y926150D01*
X891980Y933130D01*
X898960Y933130D01*
X898960Y930950D02*
X891980Y930950D01*
X916500Y933130D02*
X916500Y926150D01*
X909520Y926150D01*
X909520Y933130D01*
X916500Y933130D01*
X916500Y930950D02*
X909520Y930950D01*
D17*
X866140Y895740D03*
X866140Y912740D03*
D12*
X895740Y866140D03*
X912740Y866140D03*
X912740Y942340D03*
X895740Y942340D03*
D10*
X25400Y1264920D03*
X228600Y1264920D03*
D11*
X245110Y1045210D03*
X7620Y1282700D03*
D12*
X97400Y1201420D03*
X80400Y1201420D03*
X173600Y1201420D03*
X156600Y1201420D03*
D13*
X14050Y1191320D03*
X14050Y1135320D03*
D14*
X50800Y1178320D03*
X50800Y1168320D03*
X50800Y1158320D03*
X50800Y1148320D03*
D15*
X76200Y1049020D03*
X101600Y1049020D03*
X127000Y1049020D03*
X152400Y1049020D03*
D13*
X239950Y1135320D03*
X239950Y1191320D03*
D14*
X203200Y1148320D03*
X203200Y1158320D03*
X203200Y1168320D03*
X203200Y1178320D03*
D15*
X177800Y1049020D03*
D12*
X156600Y1188720D03*
X173600Y1188720D03*
X16900Y1061720D03*
X33900Y1061720D03*
D16*
X30680Y1070930D02*
X30680Y1077910D01*
X37660Y1077910D01*
X37660Y1070930D01*
X30680Y1070930D01*
X30680Y1075730D02*
X37660Y1075730D01*
X13140Y1077910D02*
X13140Y1070930D01*
X13140Y1077910D02*
X20120Y1077910D01*
X20120Y1070930D01*
X13140Y1070930D01*
X13140Y1075730D02*
X20120Y1075730D01*
D17*
X88900Y1218320D03*
X88900Y1235320D03*
D18*
X118500Y1170820D03*
X118500Y1165820D03*
X118500Y1160820D03*
X118500Y1155820D03*
X135500Y1155820D03*
X135500Y1160820D03*
X135500Y1165820D03*
X135500Y1170820D03*
D19*
X21336Y1214120D03*
X29464Y1214120D03*
D17*
X50800Y1222620D03*
X50800Y1205620D03*
D20*
X152400Y1151320D03*
D21*
X152400Y1171590D03*
D22*
X149500Y1214530D03*
X149500Y1221030D03*
X149500Y1227530D03*
X149500Y1234030D03*
X104500Y1234030D03*
X104500Y1227530D03*
X104500Y1221030D03*
X104500Y1214530D03*
D12*
X97400Y1188720D03*
X80400Y1188720D03*
D16*
X98110Y1168600D02*
X105090Y1168600D01*
X98110Y1168600D02*
X98110Y1175580D01*
X105090Y1175580D01*
X105090Y1168600D01*
X105090Y1173400D02*
X98110Y1173400D01*
X98110Y1151060D02*
X105090Y1151060D01*
X98110Y1151060D02*
X98110Y1158040D01*
X105090Y1158040D01*
X105090Y1151060D01*
X105090Y1155860D02*
X98110Y1155860D01*
X132280Y1141410D02*
X132280Y1134430D01*
X132280Y1141410D02*
X139260Y1141410D01*
X139260Y1134430D01*
X132280Y1134430D01*
X132280Y1139230D02*
X139260Y1139230D01*
X114740Y1141410D02*
X114740Y1134430D01*
X114740Y1141410D02*
X121720Y1141410D01*
X121720Y1134430D01*
X114740Y1134430D01*
X114740Y1139230D02*
X121720Y1139230D01*
X121720Y1185230D02*
X121720Y1192210D01*
X121720Y1185230D02*
X114740Y1185230D01*
X114740Y1192210D01*
X121720Y1192210D01*
X121720Y1190030D02*
X114740Y1190030D01*
X139260Y1192210D02*
X139260Y1185230D01*
X132280Y1185230D01*
X132280Y1192210D01*
X139260Y1192210D01*
X139260Y1190030D02*
X132280Y1190030D01*
D17*
X88900Y1154820D03*
X88900Y1171820D03*
D12*
X118500Y1125220D03*
X135500Y1125220D03*
X135500Y1201420D03*
X118500Y1201420D03*
D10*
X284480Y1264920D03*
X487680Y1264920D03*
D11*
X504190Y1045210D03*
X266700Y1282700D03*
D12*
X356480Y1201420D03*
X339480Y1201420D03*
X432680Y1201420D03*
X415680Y1201420D03*
D13*
X273130Y1191320D03*
X273130Y1135320D03*
D14*
X309880Y1178320D03*
X309880Y1168320D03*
X309880Y1158320D03*
X309880Y1148320D03*
D15*
X335280Y1049020D03*
X360680Y1049020D03*
X386080Y1049020D03*
X411480Y1049020D03*
D13*
X499030Y1135320D03*
X499030Y1191320D03*
D14*
X462280Y1148320D03*
X462280Y1158320D03*
X462280Y1168320D03*
X462280Y1178320D03*
D15*
X436880Y1049020D03*
D12*
X415680Y1188720D03*
X432680Y1188720D03*
X275980Y1061720D03*
X292980Y1061720D03*
D16*
X289760Y1070930D02*
X289760Y1077910D01*
X296740Y1077910D01*
X296740Y1070930D01*
X289760Y1070930D01*
X289760Y1075730D02*
X296740Y1075730D01*
X272220Y1077910D02*
X272220Y1070930D01*
X272220Y1077910D02*
X279200Y1077910D01*
X279200Y1070930D01*
X272220Y1070930D01*
X272220Y1075730D02*
X279200Y1075730D01*
D17*
X347980Y1218320D03*
X347980Y1235320D03*
D18*
X377580Y1170820D03*
X377580Y1165820D03*
X377580Y1160820D03*
X377580Y1155820D03*
X394580Y1155820D03*
X394580Y1160820D03*
X394580Y1165820D03*
X394580Y1170820D03*
D19*
X280416Y1214120D03*
X288544Y1214120D03*
D17*
X309880Y1222620D03*
X309880Y1205620D03*
D20*
X411480Y1151320D03*
D21*
X411480Y1171590D03*
D22*
X408580Y1214530D03*
X408580Y1221030D03*
X408580Y1227530D03*
X408580Y1234030D03*
X363580Y1234030D03*
X363580Y1227530D03*
X363580Y1221030D03*
X363580Y1214530D03*
D12*
X356480Y1188720D03*
X339480Y1188720D03*
D16*
X357190Y1168600D02*
X364170Y1168600D01*
X357190Y1168600D02*
X357190Y1175580D01*
X364170Y1175580D01*
X364170Y1168600D01*
X364170Y1173400D02*
X357190Y1173400D01*
X357190Y1151060D02*
X364170Y1151060D01*
X357190Y1151060D02*
X357190Y1158040D01*
X364170Y1158040D01*
X364170Y1151060D01*
X364170Y1155860D02*
X357190Y1155860D01*
X391360Y1141410D02*
X391360Y1134430D01*
X391360Y1141410D02*
X398340Y1141410D01*
X398340Y1134430D01*
X391360Y1134430D01*
X391360Y1139230D02*
X398340Y1139230D01*
X373820Y1141410D02*
X373820Y1134430D01*
X373820Y1141410D02*
X380800Y1141410D01*
X380800Y1134430D01*
X373820Y1134430D01*
X373820Y1139230D02*
X380800Y1139230D01*
X380800Y1185230D02*
X380800Y1192210D01*
X380800Y1185230D02*
X373820Y1185230D01*
X373820Y1192210D01*
X380800Y1192210D01*
X380800Y1190030D02*
X373820Y1190030D01*
X398340Y1192210D02*
X398340Y1185230D01*
X391360Y1185230D01*
X391360Y1192210D01*
X398340Y1192210D01*
X398340Y1190030D02*
X391360Y1190030D01*
D17*
X347980Y1154820D03*
X347980Y1171820D03*
D12*
X377580Y1125220D03*
X394580Y1125220D03*
X394580Y1201420D03*
X377580Y1201420D03*
D10*
X543560Y1264920D03*
X746760Y1264920D03*
D11*
X763270Y1045210D03*
X525780Y1282700D03*
D12*
X615560Y1201420D03*
X598560Y1201420D03*
X691760Y1201420D03*
X674760Y1201420D03*
D13*
X532210Y1191320D03*
X532210Y1135320D03*
D14*
X568960Y1178320D03*
X568960Y1168320D03*
X568960Y1158320D03*
X568960Y1148320D03*
D15*
X594360Y1049020D03*
X619760Y1049020D03*
X645160Y1049020D03*
X670560Y1049020D03*
D13*
X758110Y1135320D03*
X758110Y1191320D03*
D14*
X721360Y1148320D03*
X721360Y1158320D03*
X721360Y1168320D03*
X721360Y1178320D03*
D15*
X695960Y1049020D03*
D12*
X674760Y1188720D03*
X691760Y1188720D03*
X535060Y1061720D03*
X552060Y1061720D03*
D16*
X548840Y1070930D02*
X548840Y1077910D01*
X555820Y1077910D01*
X555820Y1070930D01*
X548840Y1070930D01*
X548840Y1075730D02*
X555820Y1075730D01*
X531300Y1077910D02*
X531300Y1070930D01*
X531300Y1077910D02*
X538280Y1077910D01*
X538280Y1070930D01*
X531300Y1070930D01*
X531300Y1075730D02*
X538280Y1075730D01*
D17*
X607060Y1218320D03*
X607060Y1235320D03*
D18*
X636660Y1170820D03*
X636660Y1165820D03*
X636660Y1160820D03*
X636660Y1155820D03*
X653660Y1155820D03*
X653660Y1160820D03*
X653660Y1165820D03*
X653660Y1170820D03*
D19*
X539496Y1214120D03*
X547624Y1214120D03*
D17*
X568960Y1222620D03*
X568960Y1205620D03*
D20*
X670560Y1151320D03*
D21*
X670560Y1171590D03*
D22*
X667660Y1214530D03*
X667660Y1221030D03*
X667660Y1227530D03*
X667660Y1234030D03*
X622660Y1234030D03*
X622660Y1227530D03*
X622660Y1221030D03*
X622660Y1214530D03*
D12*
X615560Y1188720D03*
X598560Y1188720D03*
D16*
X616270Y1168600D02*
X623250Y1168600D01*
X616270Y1168600D02*
X616270Y1175580D01*
X623250Y1175580D01*
X623250Y1168600D01*
X623250Y1173400D02*
X616270Y1173400D01*
X616270Y1151060D02*
X623250Y1151060D01*
X616270Y1151060D02*
X616270Y1158040D01*
X623250Y1158040D01*
X623250Y1151060D01*
X623250Y1155860D02*
X616270Y1155860D01*
X650440Y1141410D02*
X650440Y1134430D01*
X650440Y1141410D02*
X657420Y1141410D01*
X657420Y1134430D01*
X650440Y1134430D01*
X650440Y1139230D02*
X657420Y1139230D01*
X632900Y1141410D02*
X632900Y1134430D01*
X632900Y1141410D02*
X639880Y1141410D01*
X639880Y1134430D01*
X632900Y1134430D01*
X632900Y1139230D02*
X639880Y1139230D01*
X639880Y1185230D02*
X639880Y1192210D01*
X639880Y1185230D02*
X632900Y1185230D01*
X632900Y1192210D01*
X639880Y1192210D01*
X639880Y1190030D02*
X632900Y1190030D01*
X657420Y1192210D02*
X657420Y1185230D01*
X650440Y1185230D01*
X650440Y1192210D01*
X657420Y1192210D01*
X657420Y1190030D02*
X650440Y1190030D01*
D17*
X607060Y1154820D03*
X607060Y1171820D03*
D12*
X636660Y1125220D03*
X653660Y1125220D03*
X653660Y1201420D03*
X636660Y1201420D03*
D10*
X802640Y1264920D03*
X1005840Y1264920D03*
D11*
X1022350Y1045210D03*
X784860Y1282700D03*
D12*
X874640Y1201420D03*
X857640Y1201420D03*
X950840Y1201420D03*
X933840Y1201420D03*
D13*
X791290Y1191320D03*
X791290Y1135320D03*
D14*
X828040Y1178320D03*
X828040Y1168320D03*
X828040Y1158320D03*
X828040Y1148320D03*
D15*
X853440Y1049020D03*
X878840Y1049020D03*
X904240Y1049020D03*
X929640Y1049020D03*
D13*
X1017190Y1135320D03*
X1017190Y1191320D03*
D14*
X980440Y1148320D03*
X980440Y1158320D03*
X980440Y1168320D03*
X980440Y1178320D03*
D15*
X955040Y1049020D03*
D12*
X933840Y1188720D03*
X950840Y1188720D03*
X794140Y1061720D03*
X811140Y1061720D03*
D16*
X807920Y1070930D02*
X807920Y1077910D01*
X814900Y1077910D01*
X814900Y1070930D01*
X807920Y1070930D01*
X807920Y1075730D02*
X814900Y1075730D01*
X790380Y1077910D02*
X790380Y1070930D01*
X790380Y1077910D02*
X797360Y1077910D01*
X797360Y1070930D01*
X790380Y1070930D01*
X790380Y1075730D02*
X797360Y1075730D01*
D17*
X866140Y1218320D03*
X866140Y1235320D03*
D18*
X895740Y1170820D03*
X895740Y1165820D03*
X895740Y1160820D03*
X895740Y1155820D03*
X912740Y1155820D03*
X912740Y1160820D03*
X912740Y1165820D03*
X912740Y1170820D03*
D19*
X798576Y1214120D03*
X806704Y1214120D03*
D17*
X828040Y1222620D03*
X828040Y1205620D03*
D20*
X929640Y1151320D03*
D21*
X929640Y1171590D03*
D22*
X926740Y1214530D03*
X926740Y1221030D03*
X926740Y1227530D03*
X926740Y1234030D03*
X881740Y1234030D03*
X881740Y1227530D03*
X881740Y1221030D03*
X881740Y1214530D03*
D12*
X874640Y1188720D03*
X857640Y1188720D03*
D16*
X875350Y1168600D02*
X882330Y1168600D01*
X875350Y1168600D02*
X875350Y1175580D01*
X882330Y1175580D01*
X882330Y1168600D01*
X882330Y1173400D02*
X875350Y1173400D01*
X875350Y1151060D02*
X882330Y1151060D01*
X875350Y1151060D02*
X875350Y1158040D01*
X882330Y1158040D01*
X882330Y1151060D01*
X882330Y1155860D02*
X875350Y1155860D01*
X909520Y1141410D02*
X909520Y1134430D01*
X909520Y1141410D02*
X916500Y1141410D01*
X916500Y1134430D01*
X909520Y1134430D01*
X909520Y1139230D02*
X916500Y1139230D01*
X891980Y1141410D02*
X891980Y1134430D01*
X891980Y1141410D02*
X898960Y1141410D01*
X898960Y1134430D01*
X891980Y1134430D01*
X891980Y1139230D02*
X898960Y1139230D01*
X898960Y1185230D02*
X898960Y1192210D01*
X898960Y1185230D02*
X891980Y1185230D01*
X891980Y1192210D01*
X898960Y1192210D01*
X898960Y1190030D02*
X891980Y1190030D01*
X916500Y1192210D02*
X916500Y1185230D01*
X909520Y1185230D01*
X909520Y1192210D01*
X916500Y1192210D01*
X916500Y1190030D02*
X909520Y1190030D01*
D17*
X866140Y1154820D03*
X866140Y1171820D03*
D12*
X895740Y1125220D03*
X912740Y1125220D03*
X912740Y1201420D03*
X895740Y1201420D03*
D10*
X25400Y1524000D03*
X228600Y1524000D03*
D11*
X245110Y1304290D03*
X7620Y1541780D03*
D12*
X97400Y1460500D03*
X80400Y1460500D03*
X173600Y1460500D03*
X156600Y1460500D03*
D13*
X14050Y1450400D03*
X14050Y1394400D03*
D14*
X50800Y1437400D03*
X50800Y1427400D03*
X50800Y1417400D03*
X50800Y1407400D03*
D15*
X76200Y1308100D03*
X101600Y1308100D03*
X127000Y1308100D03*
X152400Y1308100D03*
D13*
X239950Y1394400D03*
X239950Y1450400D03*
D14*
X203200Y1407400D03*
X203200Y1417400D03*
X203200Y1427400D03*
X203200Y1437400D03*
D15*
X177800Y1308100D03*
D12*
X156600Y1447800D03*
X173600Y1447800D03*
X16900Y1320800D03*
X33900Y1320800D03*
D16*
X30680Y1330010D02*
X30680Y1336990D01*
X37660Y1336990D01*
X37660Y1330010D01*
X30680Y1330010D01*
X30680Y1334810D02*
X37660Y1334810D01*
X13140Y1336990D02*
X13140Y1330010D01*
X13140Y1336990D02*
X20120Y1336990D01*
X20120Y1330010D01*
X13140Y1330010D01*
X13140Y1334810D02*
X20120Y1334810D01*
D17*
X88900Y1477400D03*
X88900Y1494400D03*
D18*
X118500Y1429900D03*
X118500Y1424900D03*
X118500Y1419900D03*
X118500Y1414900D03*
X135500Y1414900D03*
X135500Y1419900D03*
X135500Y1424900D03*
X135500Y1429900D03*
D19*
X21336Y1473200D03*
X29464Y1473200D03*
D17*
X50800Y1481700D03*
X50800Y1464700D03*
D20*
X152400Y1410400D03*
D21*
X152400Y1430670D03*
D22*
X149500Y1473610D03*
X149500Y1480110D03*
X149500Y1486610D03*
X149500Y1493110D03*
X104500Y1493110D03*
X104500Y1486610D03*
X104500Y1480110D03*
X104500Y1473610D03*
D12*
X97400Y1447800D03*
X80400Y1447800D03*
D16*
X98110Y1427680D02*
X105090Y1427680D01*
X98110Y1427680D02*
X98110Y1434660D01*
X105090Y1434660D01*
X105090Y1427680D01*
X105090Y1432480D02*
X98110Y1432480D01*
X98110Y1410140D02*
X105090Y1410140D01*
X98110Y1410140D02*
X98110Y1417120D01*
X105090Y1417120D01*
X105090Y1410140D01*
X105090Y1414940D02*
X98110Y1414940D01*
X132280Y1400490D02*
X132280Y1393510D01*
X132280Y1400490D02*
X139260Y1400490D01*
X139260Y1393510D01*
X132280Y1393510D01*
X132280Y1398310D02*
X139260Y1398310D01*
X114740Y1400490D02*
X114740Y1393510D01*
X114740Y1400490D02*
X121720Y1400490D01*
X121720Y1393510D01*
X114740Y1393510D01*
X114740Y1398310D02*
X121720Y1398310D01*
X121720Y1444310D02*
X121720Y1451290D01*
X121720Y1444310D02*
X114740Y1444310D01*
X114740Y1451290D01*
X121720Y1451290D01*
X121720Y1449110D02*
X114740Y1449110D01*
X139260Y1451290D02*
X139260Y1444310D01*
X132280Y1444310D01*
X132280Y1451290D01*
X139260Y1451290D01*
X139260Y1449110D02*
X132280Y1449110D01*
D17*
X88900Y1413900D03*
X88900Y1430900D03*
D12*
X118500Y1384300D03*
X135500Y1384300D03*
X135500Y1460500D03*
X118500Y1460500D03*
D10*
X284480Y1524000D03*
X487680Y1524000D03*
D11*
X504190Y1304290D03*
X266700Y1541780D03*
D12*
X356480Y1460500D03*
X339480Y1460500D03*
X432680Y1460500D03*
X415680Y1460500D03*
D13*
X273130Y1450400D03*
X273130Y1394400D03*
D14*
X309880Y1437400D03*
X309880Y1427400D03*
X309880Y1417400D03*
X309880Y1407400D03*
D15*
X335280Y1308100D03*
X360680Y1308100D03*
X386080Y1308100D03*
X411480Y1308100D03*
D13*
X499030Y1394400D03*
X499030Y1450400D03*
D14*
X462280Y1407400D03*
X462280Y1417400D03*
X462280Y1427400D03*
X462280Y1437400D03*
D15*
X436880Y1308100D03*
D12*
X415680Y1447800D03*
X432680Y1447800D03*
X275980Y1320800D03*
X292980Y1320800D03*
D16*
X289760Y1330010D02*
X289760Y1336990D01*
X296740Y1336990D01*
X296740Y1330010D01*
X289760Y1330010D01*
X289760Y1334810D02*
X296740Y1334810D01*
X272220Y1336990D02*
X272220Y1330010D01*
X272220Y1336990D02*
X279200Y1336990D01*
X279200Y1330010D01*
X272220Y1330010D01*
X272220Y1334810D02*
X279200Y1334810D01*
D17*
X347980Y1477400D03*
X347980Y1494400D03*
D18*
X377580Y1429900D03*
X377580Y1424900D03*
X377580Y1419900D03*
X377580Y1414900D03*
X394580Y1414900D03*
X394580Y1419900D03*
X394580Y1424900D03*
X394580Y1429900D03*
D19*
X280416Y1473200D03*
X288544Y1473200D03*
D17*
X309880Y1481700D03*
X309880Y1464700D03*
D20*
X411480Y1410400D03*
D21*
X411480Y1430670D03*
D22*
X408580Y1473610D03*
X408580Y1480110D03*
X408580Y1486610D03*
X408580Y1493110D03*
X363580Y1493110D03*
X363580Y1486610D03*
X363580Y1480110D03*
X363580Y1473610D03*
D12*
X356480Y1447800D03*
X339480Y1447800D03*
D16*
X357190Y1427680D02*
X364170Y1427680D01*
X357190Y1427680D02*
X357190Y1434660D01*
X364170Y1434660D01*
X364170Y1427680D01*
X364170Y1432480D02*
X357190Y1432480D01*
X357190Y1410140D02*
X364170Y1410140D01*
X357190Y1410140D02*
X357190Y1417120D01*
X364170Y1417120D01*
X364170Y1410140D01*
X364170Y1414940D02*
X357190Y1414940D01*
X391360Y1400490D02*
X391360Y1393510D01*
X391360Y1400490D02*
X398340Y1400490D01*
X398340Y1393510D01*
X391360Y1393510D01*
X391360Y1398310D02*
X398340Y1398310D01*
X373820Y1400490D02*
X373820Y1393510D01*
X373820Y1400490D02*
X380800Y1400490D01*
X380800Y1393510D01*
X373820Y1393510D01*
X373820Y1398310D02*
X380800Y1398310D01*
X380800Y1444310D02*
X380800Y1451290D01*
X380800Y1444310D02*
X373820Y1444310D01*
X373820Y1451290D01*
X380800Y1451290D01*
X380800Y1449110D02*
X373820Y1449110D01*
X398340Y1451290D02*
X398340Y1444310D01*
X391360Y1444310D01*
X391360Y1451290D01*
X398340Y1451290D01*
X398340Y1449110D02*
X391360Y1449110D01*
D17*
X347980Y1413900D03*
X347980Y1430900D03*
D12*
X377580Y1384300D03*
X394580Y1384300D03*
X394580Y1460500D03*
X377580Y1460500D03*
D10*
X543560Y1524000D03*
X746760Y1524000D03*
D11*
X763270Y1304290D03*
X525780Y1541780D03*
D12*
X615560Y1460500D03*
X598560Y1460500D03*
X691760Y1460500D03*
X674760Y1460500D03*
D13*
X532210Y1450400D03*
X532210Y1394400D03*
D14*
X568960Y1437400D03*
X568960Y1427400D03*
X568960Y1417400D03*
X568960Y1407400D03*
D15*
X594360Y1308100D03*
X619760Y1308100D03*
X645160Y1308100D03*
X670560Y1308100D03*
D13*
X758110Y1394400D03*
X758110Y1450400D03*
D14*
X721360Y1407400D03*
X721360Y1417400D03*
X721360Y1427400D03*
X721360Y1437400D03*
D15*
X695960Y1308100D03*
D12*
X674760Y1447800D03*
X691760Y1447800D03*
X535060Y1320800D03*
X552060Y1320800D03*
D16*
X548840Y1330010D02*
X548840Y1336990D01*
X555820Y1336990D01*
X555820Y1330010D01*
X548840Y1330010D01*
X548840Y1334810D02*
X555820Y1334810D01*
X531300Y1336990D02*
X531300Y1330010D01*
X531300Y1336990D02*
X538280Y1336990D01*
X538280Y1330010D01*
X531300Y1330010D01*
X531300Y1334810D02*
X538280Y1334810D01*
D17*
X607060Y1477400D03*
X607060Y1494400D03*
D18*
X636660Y1429900D03*
X636660Y1424900D03*
X636660Y1419900D03*
X636660Y1414900D03*
X653660Y1414900D03*
X653660Y1419900D03*
X653660Y1424900D03*
X653660Y1429900D03*
D19*
X539496Y1473200D03*
X547624Y1473200D03*
D17*
X568960Y1481700D03*
X568960Y1464700D03*
D20*
X670560Y1410400D03*
D21*
X670560Y1430670D03*
D22*
X667660Y1473610D03*
X667660Y1480110D03*
X667660Y1486610D03*
X667660Y1493110D03*
X622660Y1493110D03*
X622660Y1486610D03*
X622660Y1480110D03*
X622660Y1473610D03*
D12*
X615560Y1447800D03*
X598560Y1447800D03*
D16*
X616270Y1427680D02*
X623250Y1427680D01*
X616270Y1427680D02*
X616270Y1434660D01*
X623250Y1434660D01*
X623250Y1427680D01*
X623250Y1432480D02*
X616270Y1432480D01*
X616270Y1410140D02*
X623250Y1410140D01*
X616270Y1410140D02*
X616270Y1417120D01*
X623250Y1417120D01*
X623250Y1410140D01*
X623250Y1414940D02*
X616270Y1414940D01*
X650440Y1400490D02*
X650440Y1393510D01*
X650440Y1400490D02*
X657420Y1400490D01*
X657420Y1393510D01*
X650440Y1393510D01*
X650440Y1398310D02*
X657420Y1398310D01*
X632900Y1400490D02*
X632900Y1393510D01*
X632900Y1400490D02*
X639880Y1400490D01*
X639880Y1393510D01*
X632900Y1393510D01*
X632900Y1398310D02*
X639880Y1398310D01*
X639880Y1444310D02*
X639880Y1451290D01*
X639880Y1444310D02*
X632900Y1444310D01*
X632900Y1451290D01*
X639880Y1451290D01*
X639880Y1449110D02*
X632900Y1449110D01*
X657420Y1451290D02*
X657420Y1444310D01*
X650440Y1444310D01*
X650440Y1451290D01*
X657420Y1451290D01*
X657420Y1449110D02*
X650440Y1449110D01*
D17*
X607060Y1413900D03*
X607060Y1430900D03*
D12*
X636660Y1384300D03*
X653660Y1384300D03*
X653660Y1460500D03*
X636660Y1460500D03*
D10*
X802640Y1524000D03*
X1005840Y1524000D03*
D11*
X1022350Y1304290D03*
X784860Y1541780D03*
D12*
X874640Y1460500D03*
X857640Y1460500D03*
X950840Y1460500D03*
X933840Y1460500D03*
D13*
X791290Y1450400D03*
X791290Y1394400D03*
D14*
X828040Y1437400D03*
X828040Y1427400D03*
X828040Y1417400D03*
X828040Y1407400D03*
D15*
X853440Y1308100D03*
X878840Y1308100D03*
X904240Y1308100D03*
X929640Y1308100D03*
D13*
X1017190Y1394400D03*
X1017190Y1450400D03*
D14*
X980440Y1407400D03*
X980440Y1417400D03*
X980440Y1427400D03*
X980440Y1437400D03*
D15*
X955040Y1308100D03*
D12*
X933840Y1447800D03*
X950840Y1447800D03*
X794140Y1320800D03*
X811140Y1320800D03*
D16*
X807920Y1330010D02*
X807920Y1336990D01*
X814900Y1336990D01*
X814900Y1330010D01*
X807920Y1330010D01*
X807920Y1334810D02*
X814900Y1334810D01*
X790380Y1336990D02*
X790380Y1330010D01*
X790380Y1336990D02*
X797360Y1336990D01*
X797360Y1330010D01*
X790380Y1330010D01*
X790380Y1334810D02*
X797360Y1334810D01*
D17*
X866140Y1477400D03*
X866140Y1494400D03*
D18*
X895740Y1429900D03*
X895740Y1424900D03*
X895740Y1419900D03*
X895740Y1414900D03*
X912740Y1414900D03*
X912740Y1419900D03*
X912740Y1424900D03*
X912740Y1429900D03*
D19*
X798576Y1473200D03*
X806704Y1473200D03*
D17*
X828040Y1481700D03*
X828040Y1464700D03*
D20*
X929640Y1410400D03*
D21*
X929640Y1430670D03*
D22*
X926740Y1473610D03*
X926740Y1480110D03*
X926740Y1486610D03*
X926740Y1493110D03*
X881740Y1493110D03*
X881740Y1486610D03*
X881740Y1480110D03*
X881740Y1473610D03*
D12*
X874640Y1447800D03*
X857640Y1447800D03*
D16*
X875350Y1427680D02*
X882330Y1427680D01*
X875350Y1427680D02*
X875350Y1434660D01*
X882330Y1434660D01*
X882330Y1427680D01*
X882330Y1432480D02*
X875350Y1432480D01*
X875350Y1410140D02*
X882330Y1410140D01*
X875350Y1410140D02*
X875350Y1417120D01*
X882330Y1417120D01*
X882330Y1410140D01*
X882330Y1414940D02*
X875350Y1414940D01*
X909520Y1400490D02*
X909520Y1393510D01*
X909520Y1400490D02*
X916500Y1400490D01*
X916500Y1393510D01*
X909520Y1393510D01*
X909520Y1398310D02*
X916500Y1398310D01*
X891980Y1400490D02*
X891980Y1393510D01*
X891980Y1400490D02*
X898960Y1400490D01*
X898960Y1393510D01*
X891980Y1393510D01*
X891980Y1398310D02*
X898960Y1398310D01*
X898960Y1444310D02*
X898960Y1451290D01*
X898960Y1444310D02*
X891980Y1444310D01*
X891980Y1451290D01*
X898960Y1451290D01*
X898960Y1449110D02*
X891980Y1449110D01*
X916500Y1451290D02*
X916500Y1444310D01*
X909520Y1444310D01*
X909520Y1451290D01*
X916500Y1451290D01*
X916500Y1449110D02*
X909520Y1449110D01*
D17*
X866140Y1413900D03*
X866140Y1430900D03*
D12*
X895740Y1384300D03*
X912740Y1384300D03*
X912740Y1460500D03*
X895740Y1460500D03*
D23*
X68580Y1570355D03*
X962025Y1570355D03*
D24*
X59525Y-20955D02*
X59528Y-20733D01*
X59536Y-20511D01*
X59550Y-20289D01*
X59569Y-20067D01*
X59593Y-19847D01*
X59623Y-19626D01*
X59658Y-19407D01*
X59699Y-19188D01*
X59745Y-18971D01*
X59796Y-18755D01*
X59853Y-18540D01*
X59915Y-18326D01*
X59982Y-18115D01*
X60054Y-17904D01*
X60132Y-17696D01*
X60214Y-17490D01*
X60302Y-17286D01*
X60394Y-17083D01*
X60492Y-16884D01*
X60594Y-16687D01*
X60701Y-16492D01*
X60813Y-16300D01*
X60930Y-16111D01*
X61051Y-15924D01*
X61177Y-15741D01*
X61307Y-15561D01*
X61442Y-15384D01*
X61580Y-15211D01*
X61723Y-15041D01*
X61871Y-14874D01*
X62022Y-14711D01*
X62177Y-14552D01*
X62336Y-14397D01*
X62499Y-14246D01*
X62666Y-14098D01*
X62836Y-13955D01*
X63009Y-13817D01*
X63186Y-13682D01*
X63366Y-13552D01*
X63549Y-13426D01*
X63736Y-13305D01*
X63925Y-13188D01*
X64117Y-13076D01*
X64312Y-12969D01*
X64509Y-12867D01*
X64708Y-12769D01*
X64911Y-12677D01*
X65115Y-12589D01*
X65321Y-12507D01*
X65529Y-12429D01*
X65740Y-12357D01*
X65951Y-12290D01*
X66165Y-12228D01*
X66380Y-12171D01*
X66596Y-12120D01*
X66813Y-12074D01*
X67032Y-12033D01*
X67251Y-11998D01*
X67472Y-11968D01*
X67692Y-11944D01*
X67914Y-11925D01*
X68136Y-11911D01*
X68358Y-11903D01*
X68580Y-11900D01*
X68802Y-11903D01*
X69024Y-11911D01*
X69246Y-11925D01*
X69468Y-11944D01*
X69688Y-11968D01*
X69909Y-11998D01*
X70128Y-12033D01*
X70347Y-12074D01*
X70564Y-12120D01*
X70780Y-12171D01*
X70995Y-12228D01*
X71209Y-12290D01*
X71420Y-12357D01*
X71631Y-12429D01*
X71839Y-12507D01*
X72045Y-12589D01*
X72249Y-12677D01*
X72452Y-12769D01*
X72651Y-12867D01*
X72848Y-12969D01*
X73043Y-13076D01*
X73235Y-13188D01*
X73424Y-13305D01*
X73611Y-13426D01*
X73794Y-13552D01*
X73974Y-13682D01*
X74151Y-13817D01*
X74324Y-13955D01*
X74494Y-14098D01*
X74661Y-14246D01*
X74824Y-14397D01*
X74983Y-14552D01*
X75138Y-14711D01*
X75289Y-14874D01*
X75437Y-15041D01*
X75580Y-15211D01*
X75718Y-15384D01*
X75853Y-15561D01*
X75983Y-15741D01*
X76109Y-15924D01*
X76230Y-16111D01*
X76347Y-16300D01*
X76459Y-16492D01*
X76566Y-16687D01*
X76668Y-16884D01*
X76766Y-17083D01*
X76858Y-17286D01*
X76946Y-17490D01*
X77028Y-17696D01*
X77106Y-17904D01*
X77178Y-18115D01*
X77245Y-18326D01*
X77307Y-18540D01*
X77364Y-18755D01*
X77415Y-18971D01*
X77461Y-19188D01*
X77502Y-19407D01*
X77537Y-19626D01*
X77567Y-19847D01*
X77591Y-20067D01*
X77610Y-20289D01*
X77624Y-20511D01*
X77632Y-20733D01*
X77635Y-20955D01*
X77632Y-21177D01*
X77624Y-21399D01*
X77610Y-21621D01*
X77591Y-21843D01*
X77567Y-22063D01*
X77537Y-22284D01*
X77502Y-22503D01*
X77461Y-22722D01*
X77415Y-22939D01*
X77364Y-23155D01*
X77307Y-23370D01*
X77245Y-23584D01*
X77178Y-23795D01*
X77106Y-24006D01*
X77028Y-24214D01*
X76946Y-24420D01*
X76858Y-24624D01*
X76766Y-24827D01*
X76668Y-25026D01*
X76566Y-25223D01*
X76459Y-25418D01*
X76347Y-25610D01*
X76230Y-25799D01*
X76109Y-25986D01*
X75983Y-26169D01*
X75853Y-26349D01*
X75718Y-26526D01*
X75580Y-26699D01*
X75437Y-26869D01*
X75289Y-27036D01*
X75138Y-27199D01*
X74983Y-27358D01*
X74824Y-27513D01*
X74661Y-27664D01*
X74494Y-27812D01*
X74324Y-27955D01*
X74151Y-28093D01*
X73974Y-28228D01*
X73794Y-28358D01*
X73611Y-28484D01*
X73424Y-28605D01*
X73235Y-28722D01*
X73043Y-28834D01*
X72848Y-28941D01*
X72651Y-29043D01*
X72452Y-29141D01*
X72249Y-29233D01*
X72045Y-29321D01*
X71839Y-29403D01*
X71631Y-29481D01*
X71420Y-29553D01*
X71209Y-29620D01*
X70995Y-29682D01*
X70780Y-29739D01*
X70564Y-29790D01*
X70347Y-29836D01*
X70128Y-29877D01*
X69909Y-29912D01*
X69688Y-29942D01*
X69468Y-29966D01*
X69246Y-29985D01*
X69024Y-29999D01*
X68802Y-30007D01*
X68580Y-30010D01*
X68358Y-30007D01*
X68136Y-29999D01*
X67914Y-29985D01*
X67692Y-29966D01*
X67472Y-29942D01*
X67251Y-29912D01*
X67032Y-29877D01*
X66813Y-29836D01*
X66596Y-29790D01*
X66380Y-29739D01*
X66165Y-29682D01*
X65951Y-29620D01*
X65740Y-29553D01*
X65529Y-29481D01*
X65321Y-29403D01*
X65115Y-29321D01*
X64911Y-29233D01*
X64708Y-29141D01*
X64509Y-29043D01*
X64312Y-28941D01*
X64117Y-28834D01*
X63925Y-28722D01*
X63736Y-28605D01*
X63549Y-28484D01*
X63366Y-28358D01*
X63186Y-28228D01*
X63009Y-28093D01*
X62836Y-27955D01*
X62666Y-27812D01*
X62499Y-27664D01*
X62336Y-27513D01*
X62177Y-27358D01*
X62022Y-27199D01*
X61871Y-27036D01*
X61723Y-26869D01*
X61580Y-26699D01*
X61442Y-26526D01*
X61307Y-26349D01*
X61177Y-26169D01*
X61051Y-25986D01*
X60930Y-25799D01*
X60813Y-25610D01*
X60701Y-25418D01*
X60594Y-25223D01*
X60492Y-25026D01*
X60394Y-24827D01*
X60302Y-24624D01*
X60214Y-24420D01*
X60132Y-24214D01*
X60054Y-24006D01*
X59982Y-23795D01*
X59915Y-23584D01*
X59853Y-23370D01*
X59796Y-23155D01*
X59745Y-22939D01*
X59699Y-22722D01*
X59658Y-22503D01*
X59623Y-22284D01*
X59593Y-22063D01*
X59569Y-21843D01*
X59550Y-21621D01*
X59536Y-21399D01*
X59528Y-21177D01*
X59525Y-20955D01*
D25*
X68580Y-20955D03*
M02*
