G75*
%MOIN*%
%OFA0B0*%
%FSLAX25Y25*%
%IPPOS*%
%LPD*%
%AMOC8*
5,1,8,0,0,1.08239X$1,22.5*
%
%ADD10R,0.04331X0.03937*%
%ADD11R,0.07874X0.04724*%
%ADD12R,0.05315X0.02362*%
%ADD13C,0.01181*%
%ADD14R,0.03937X0.04331*%
%ADD15R,0.01969X0.00984*%
%ADD16R,0.02362X0.02362*%
%ADD17R,0.04331X0.01575*%
D10*
X0035404Y0038750D03*
X0042096Y0038750D03*
X0075404Y0063750D03*
X0082096Y0063750D03*
X0090404Y0088750D03*
X0090404Y0093750D03*
X0097096Y0093750D03*
X0097096Y0088750D03*
X0082096Y0093750D03*
X0075404Y0093750D03*
X0067096Y0093750D03*
X0067096Y0088750D03*
X0060404Y0088750D03*
X0060404Y0093750D03*
X0042096Y0140750D03*
X0035404Y0140750D03*
X0075404Y0165750D03*
X0082096Y0165750D03*
X0090404Y0190750D03*
X0090404Y0195750D03*
X0097096Y0195750D03*
X0097096Y0190750D03*
X0082096Y0195750D03*
X0075404Y0195750D03*
X0067096Y0195750D03*
X0067096Y0190750D03*
X0060404Y0190750D03*
X0060404Y0195750D03*
X0042096Y0242750D03*
X0035404Y0242750D03*
X0075404Y0267750D03*
X0082096Y0267750D03*
X0090404Y0292750D03*
X0090404Y0297750D03*
X0097096Y0297750D03*
X0097096Y0292750D03*
X0082096Y0297750D03*
X0075404Y0297750D03*
X0067096Y0297750D03*
X0067096Y0292750D03*
X0060404Y0292750D03*
X0060404Y0297750D03*
X0137404Y0242750D03*
X0144096Y0242750D03*
X0177404Y0267750D03*
X0184096Y0267750D03*
X0192404Y0292750D03*
X0199096Y0292750D03*
X0199096Y0297750D03*
X0192404Y0297750D03*
X0184096Y0297750D03*
X0177404Y0297750D03*
X0169096Y0297750D03*
X0162404Y0297750D03*
X0162404Y0292750D03*
X0169096Y0292750D03*
X0239404Y0242750D03*
X0246096Y0242750D03*
X0279404Y0267750D03*
X0286096Y0267750D03*
X0294404Y0292750D03*
X0294404Y0297750D03*
X0301096Y0297750D03*
X0301096Y0292750D03*
X0286096Y0297750D03*
X0279404Y0297750D03*
X0271096Y0297750D03*
X0271096Y0292750D03*
X0264404Y0292750D03*
X0264404Y0297750D03*
X0264404Y0195750D03*
X0264404Y0190750D03*
X0271096Y0190750D03*
X0271096Y0195750D03*
X0279404Y0195750D03*
X0286096Y0195750D03*
X0294404Y0195750D03*
X0294404Y0190750D03*
X0301096Y0190750D03*
X0301096Y0195750D03*
X0286096Y0165750D03*
X0279404Y0165750D03*
X0246096Y0140750D03*
X0239404Y0140750D03*
X0264404Y0093750D03*
X0264404Y0088750D03*
X0271096Y0088750D03*
X0271096Y0093750D03*
X0279404Y0093750D03*
X0286096Y0093750D03*
X0294404Y0093750D03*
X0294404Y0088750D03*
X0301096Y0088750D03*
X0301096Y0093750D03*
X0286096Y0063750D03*
X0279404Y0063750D03*
X0246096Y0038750D03*
X0239404Y0038750D03*
X0184096Y0063750D03*
X0177404Y0063750D03*
X0169096Y0088750D03*
X0169096Y0093750D03*
X0162404Y0093750D03*
X0162404Y0088750D03*
X0177404Y0093750D03*
X0184096Y0093750D03*
X0192404Y0093750D03*
X0192404Y0088750D03*
X0199096Y0088750D03*
X0199096Y0093750D03*
X0144096Y0140750D03*
X0137404Y0140750D03*
X0177404Y0165750D03*
X0184096Y0165750D03*
X0192404Y0190750D03*
X0192404Y0195750D03*
X0199096Y0195750D03*
X0199096Y0190750D03*
X0184096Y0195750D03*
X0177404Y0195750D03*
X0169096Y0195750D03*
X0169096Y0190750D03*
X0162404Y0190750D03*
X0162404Y0195750D03*
X0144096Y0038750D03*
X0137404Y0038750D03*
D11*
X0136281Y0067726D03*
X0123219Y0067726D03*
X0123219Y0089774D03*
X0136281Y0089774D03*
X0136281Y0169726D03*
X0123219Y0169726D03*
X0123219Y0191774D03*
X0136281Y0191774D03*
X0136281Y0271726D03*
X0123219Y0271726D03*
X0123219Y0293774D03*
X0136281Y0293774D03*
X0225219Y0293774D03*
X0238281Y0293774D03*
X0238281Y0271726D03*
X0225219Y0271726D03*
X0225219Y0191774D03*
X0238281Y0191774D03*
X0238281Y0169726D03*
X0225219Y0169726D03*
X0225219Y0089774D03*
X0238281Y0089774D03*
X0238281Y0067726D03*
X0225219Y0067726D03*
X0327219Y0067726D03*
X0327219Y0089774D03*
X0327219Y0169726D03*
X0327219Y0191774D03*
X0327219Y0271726D03*
X0327219Y0293774D03*
X0034281Y0293774D03*
X0034281Y0271726D03*
X0034281Y0191774D03*
X0034281Y0169726D03*
X0034281Y0089774D03*
X0034281Y0067726D03*
D12*
X0048750Y0072844D03*
X0048750Y0076781D03*
X0048750Y0080719D03*
X0048750Y0084656D03*
X0108750Y0084656D03*
X0108750Y0080719D03*
X0108750Y0076781D03*
X0108750Y0072844D03*
X0150750Y0072844D03*
X0150750Y0076781D03*
X0150750Y0080719D03*
X0150750Y0084656D03*
X0210750Y0084656D03*
X0210750Y0080719D03*
X0210750Y0076781D03*
X0210750Y0072844D03*
X0252750Y0072844D03*
X0252750Y0076781D03*
X0252750Y0080719D03*
X0252750Y0084656D03*
X0312750Y0084656D03*
X0312750Y0080719D03*
X0312750Y0076781D03*
X0312750Y0072844D03*
X0312750Y0174844D03*
X0312750Y0178781D03*
X0312750Y0182719D03*
X0312750Y0186656D03*
X0252750Y0186656D03*
X0252750Y0182719D03*
X0252750Y0178781D03*
X0252750Y0174844D03*
X0210750Y0174844D03*
X0210750Y0178781D03*
X0210750Y0182719D03*
X0210750Y0186656D03*
X0150750Y0186656D03*
X0150750Y0182719D03*
X0150750Y0178781D03*
X0150750Y0174844D03*
X0108750Y0174844D03*
X0108750Y0178781D03*
X0108750Y0182719D03*
X0108750Y0186656D03*
X0048750Y0186656D03*
X0048750Y0182719D03*
X0048750Y0178781D03*
X0048750Y0174844D03*
X0048750Y0276844D03*
X0048750Y0280781D03*
X0048750Y0284719D03*
X0048750Y0288656D03*
X0108750Y0288656D03*
X0108750Y0284719D03*
X0108750Y0280781D03*
X0108750Y0276844D03*
X0150750Y0276844D03*
X0150750Y0280781D03*
X0150750Y0284719D03*
X0150750Y0288656D03*
X0210750Y0288656D03*
X0210750Y0284719D03*
X0210750Y0280781D03*
X0210750Y0276844D03*
X0252750Y0276844D03*
X0252750Y0280781D03*
X0252750Y0284719D03*
X0252750Y0288656D03*
X0312750Y0288656D03*
X0312750Y0284719D03*
X0312750Y0280781D03*
X0312750Y0276844D03*
D13*
X0284825Y0274128D02*
X0284825Y0271372D01*
X0284825Y0274128D02*
X0287581Y0274128D01*
X0287581Y0271372D01*
X0284825Y0271372D01*
X0284825Y0272552D02*
X0287581Y0272552D01*
X0287581Y0273732D02*
X0284825Y0273732D01*
X0277919Y0274128D02*
X0277919Y0271372D01*
X0277919Y0274128D02*
X0280675Y0274128D01*
X0280675Y0271372D01*
X0277919Y0271372D01*
X0277919Y0272552D02*
X0280675Y0272552D01*
X0280675Y0273732D02*
X0277919Y0273732D01*
X0274128Y0277919D02*
X0271372Y0277919D01*
X0271372Y0280675D01*
X0274128Y0280675D01*
X0274128Y0277919D01*
X0274128Y0279099D02*
X0271372Y0279099D01*
X0271372Y0280279D02*
X0274128Y0280279D01*
X0274128Y0284825D02*
X0271372Y0284825D01*
X0271372Y0287581D01*
X0274128Y0287581D01*
X0274128Y0284825D01*
X0274128Y0286005D02*
X0271372Y0286005D01*
X0271372Y0287185D02*
X0274128Y0287185D01*
X0280675Y0291372D02*
X0280675Y0294128D01*
X0280675Y0291372D02*
X0277919Y0291372D01*
X0277919Y0294128D01*
X0280675Y0294128D01*
X0280675Y0292552D02*
X0277919Y0292552D01*
X0277919Y0293732D02*
X0280675Y0293732D01*
X0287581Y0294128D02*
X0287581Y0291372D01*
X0284825Y0291372D01*
X0284825Y0294128D01*
X0287581Y0294128D01*
X0287581Y0292552D02*
X0284825Y0292552D01*
X0284825Y0293732D02*
X0287581Y0293732D01*
X0244825Y0249128D02*
X0244825Y0246372D01*
X0244825Y0249128D02*
X0247581Y0249128D01*
X0247581Y0246372D01*
X0244825Y0246372D01*
X0244825Y0247552D02*
X0247581Y0247552D01*
X0247581Y0248732D02*
X0244825Y0248732D01*
X0237919Y0249128D02*
X0237919Y0246372D01*
X0237919Y0249128D02*
X0240675Y0249128D01*
X0240675Y0246372D01*
X0237919Y0246372D01*
X0237919Y0247552D02*
X0240675Y0247552D01*
X0240675Y0248732D02*
X0237919Y0248732D01*
X0182825Y0271372D02*
X0182825Y0274128D01*
X0185581Y0274128D01*
X0185581Y0271372D01*
X0182825Y0271372D01*
X0182825Y0272552D02*
X0185581Y0272552D01*
X0185581Y0273732D02*
X0182825Y0273732D01*
X0175919Y0274128D02*
X0175919Y0271372D01*
X0175919Y0274128D02*
X0178675Y0274128D01*
X0178675Y0271372D01*
X0175919Y0271372D01*
X0175919Y0272552D02*
X0178675Y0272552D01*
X0178675Y0273732D02*
X0175919Y0273732D01*
X0172128Y0277919D02*
X0169372Y0277919D01*
X0169372Y0280675D01*
X0172128Y0280675D01*
X0172128Y0277919D01*
X0172128Y0279099D02*
X0169372Y0279099D01*
X0169372Y0280279D02*
X0172128Y0280279D01*
X0172128Y0284825D02*
X0169372Y0284825D01*
X0169372Y0287581D01*
X0172128Y0287581D01*
X0172128Y0284825D01*
X0172128Y0286005D02*
X0169372Y0286005D01*
X0169372Y0287185D02*
X0172128Y0287185D01*
X0178675Y0291372D02*
X0178675Y0294128D01*
X0178675Y0291372D02*
X0175919Y0291372D01*
X0175919Y0294128D01*
X0178675Y0294128D01*
X0178675Y0292552D02*
X0175919Y0292552D01*
X0175919Y0293732D02*
X0178675Y0293732D01*
X0185581Y0294128D02*
X0185581Y0291372D01*
X0182825Y0291372D01*
X0182825Y0294128D01*
X0185581Y0294128D01*
X0185581Y0292552D02*
X0182825Y0292552D01*
X0182825Y0293732D02*
X0185581Y0293732D01*
X0142825Y0249128D02*
X0142825Y0246372D01*
X0142825Y0249128D02*
X0145581Y0249128D01*
X0145581Y0246372D01*
X0142825Y0246372D01*
X0142825Y0247552D02*
X0145581Y0247552D01*
X0145581Y0248732D02*
X0142825Y0248732D01*
X0135919Y0249128D02*
X0135919Y0246372D01*
X0135919Y0249128D02*
X0138675Y0249128D01*
X0138675Y0246372D01*
X0135919Y0246372D01*
X0135919Y0247552D02*
X0138675Y0247552D01*
X0138675Y0248732D02*
X0135919Y0248732D01*
X0080825Y0271372D02*
X0080825Y0274128D01*
X0083581Y0274128D01*
X0083581Y0271372D01*
X0080825Y0271372D01*
X0080825Y0272552D02*
X0083581Y0272552D01*
X0083581Y0273732D02*
X0080825Y0273732D01*
X0073919Y0274128D02*
X0073919Y0271372D01*
X0073919Y0274128D02*
X0076675Y0274128D01*
X0076675Y0271372D01*
X0073919Y0271372D01*
X0073919Y0272552D02*
X0076675Y0272552D01*
X0076675Y0273732D02*
X0073919Y0273732D01*
X0070128Y0277919D02*
X0067372Y0277919D01*
X0067372Y0280675D01*
X0070128Y0280675D01*
X0070128Y0277919D01*
X0070128Y0279099D02*
X0067372Y0279099D01*
X0067372Y0280279D02*
X0070128Y0280279D01*
X0070128Y0284825D02*
X0067372Y0284825D01*
X0067372Y0287581D01*
X0070128Y0287581D01*
X0070128Y0284825D01*
X0070128Y0286005D02*
X0067372Y0286005D01*
X0067372Y0287185D02*
X0070128Y0287185D01*
X0076675Y0291372D02*
X0076675Y0294128D01*
X0076675Y0291372D02*
X0073919Y0291372D01*
X0073919Y0294128D01*
X0076675Y0294128D01*
X0076675Y0292552D02*
X0073919Y0292552D01*
X0073919Y0293732D02*
X0076675Y0293732D01*
X0083581Y0294128D02*
X0083581Y0291372D01*
X0080825Y0291372D01*
X0080825Y0294128D01*
X0083581Y0294128D01*
X0083581Y0292552D02*
X0080825Y0292552D01*
X0080825Y0293732D02*
X0083581Y0293732D01*
X0040825Y0249128D02*
X0040825Y0246372D01*
X0040825Y0249128D02*
X0043581Y0249128D01*
X0043581Y0246372D01*
X0040825Y0246372D01*
X0040825Y0247552D02*
X0043581Y0247552D01*
X0043581Y0248732D02*
X0040825Y0248732D01*
X0033919Y0249128D02*
X0033919Y0246372D01*
X0033919Y0249128D02*
X0036675Y0249128D01*
X0036675Y0246372D01*
X0033919Y0246372D01*
X0033919Y0247552D02*
X0036675Y0247552D01*
X0036675Y0248732D02*
X0033919Y0248732D01*
X0076675Y0192128D02*
X0076675Y0189372D01*
X0073919Y0189372D01*
X0073919Y0192128D01*
X0076675Y0192128D01*
X0076675Y0190552D02*
X0073919Y0190552D01*
X0073919Y0191732D02*
X0076675Y0191732D01*
X0083581Y0192128D02*
X0083581Y0189372D01*
X0080825Y0189372D01*
X0080825Y0192128D01*
X0083581Y0192128D01*
X0083581Y0190552D02*
X0080825Y0190552D01*
X0080825Y0191732D02*
X0083581Y0191732D01*
X0070128Y0182825D02*
X0067372Y0182825D01*
X0067372Y0185581D01*
X0070128Y0185581D01*
X0070128Y0182825D01*
X0070128Y0184005D02*
X0067372Y0184005D01*
X0067372Y0185185D02*
X0070128Y0185185D01*
X0070128Y0175919D02*
X0067372Y0175919D01*
X0067372Y0178675D01*
X0070128Y0178675D01*
X0070128Y0175919D01*
X0070128Y0177099D02*
X0067372Y0177099D01*
X0067372Y0178279D02*
X0070128Y0178279D01*
X0073919Y0172128D02*
X0073919Y0169372D01*
X0073919Y0172128D02*
X0076675Y0172128D01*
X0076675Y0169372D01*
X0073919Y0169372D01*
X0073919Y0170552D02*
X0076675Y0170552D01*
X0076675Y0171732D02*
X0073919Y0171732D01*
X0080825Y0172128D02*
X0080825Y0169372D01*
X0080825Y0172128D02*
X0083581Y0172128D01*
X0083581Y0169372D01*
X0080825Y0169372D01*
X0080825Y0170552D02*
X0083581Y0170552D01*
X0083581Y0171732D02*
X0080825Y0171732D01*
X0040825Y0147128D02*
X0040825Y0144372D01*
X0040825Y0147128D02*
X0043581Y0147128D01*
X0043581Y0144372D01*
X0040825Y0144372D01*
X0040825Y0145552D02*
X0043581Y0145552D01*
X0043581Y0146732D02*
X0040825Y0146732D01*
X0033919Y0147128D02*
X0033919Y0144372D01*
X0033919Y0147128D02*
X0036675Y0147128D01*
X0036675Y0144372D01*
X0033919Y0144372D01*
X0033919Y0145552D02*
X0036675Y0145552D01*
X0036675Y0146732D02*
X0033919Y0146732D01*
X0076675Y0090128D02*
X0076675Y0087372D01*
X0073919Y0087372D01*
X0073919Y0090128D01*
X0076675Y0090128D01*
X0076675Y0088552D02*
X0073919Y0088552D01*
X0073919Y0089732D02*
X0076675Y0089732D01*
X0083581Y0090128D02*
X0083581Y0087372D01*
X0080825Y0087372D01*
X0080825Y0090128D01*
X0083581Y0090128D01*
X0083581Y0088552D02*
X0080825Y0088552D01*
X0080825Y0089732D02*
X0083581Y0089732D01*
X0070128Y0080825D02*
X0067372Y0080825D01*
X0067372Y0083581D01*
X0070128Y0083581D01*
X0070128Y0080825D01*
X0070128Y0082005D02*
X0067372Y0082005D01*
X0067372Y0083185D02*
X0070128Y0083185D01*
X0070128Y0073919D02*
X0067372Y0073919D01*
X0067372Y0076675D01*
X0070128Y0076675D01*
X0070128Y0073919D01*
X0070128Y0075099D02*
X0067372Y0075099D01*
X0067372Y0076279D02*
X0070128Y0076279D01*
X0073919Y0070128D02*
X0073919Y0067372D01*
X0073919Y0070128D02*
X0076675Y0070128D01*
X0076675Y0067372D01*
X0073919Y0067372D01*
X0073919Y0068552D02*
X0076675Y0068552D01*
X0076675Y0069732D02*
X0073919Y0069732D01*
X0080825Y0070128D02*
X0080825Y0067372D01*
X0080825Y0070128D02*
X0083581Y0070128D01*
X0083581Y0067372D01*
X0080825Y0067372D01*
X0080825Y0068552D02*
X0083581Y0068552D01*
X0083581Y0069732D02*
X0080825Y0069732D01*
X0040825Y0045128D02*
X0040825Y0042372D01*
X0040825Y0045128D02*
X0043581Y0045128D01*
X0043581Y0042372D01*
X0040825Y0042372D01*
X0040825Y0043552D02*
X0043581Y0043552D01*
X0043581Y0044732D02*
X0040825Y0044732D01*
X0033919Y0045128D02*
X0033919Y0042372D01*
X0033919Y0045128D02*
X0036675Y0045128D01*
X0036675Y0042372D01*
X0033919Y0042372D01*
X0033919Y0043552D02*
X0036675Y0043552D01*
X0036675Y0044732D02*
X0033919Y0044732D01*
X0135919Y0045128D02*
X0135919Y0042372D01*
X0135919Y0045128D02*
X0138675Y0045128D01*
X0138675Y0042372D01*
X0135919Y0042372D01*
X0135919Y0043552D02*
X0138675Y0043552D01*
X0138675Y0044732D02*
X0135919Y0044732D01*
X0142825Y0045128D02*
X0142825Y0042372D01*
X0142825Y0045128D02*
X0145581Y0045128D01*
X0145581Y0042372D01*
X0142825Y0042372D01*
X0142825Y0043552D02*
X0145581Y0043552D01*
X0145581Y0044732D02*
X0142825Y0044732D01*
X0169372Y0073919D02*
X0172128Y0073919D01*
X0169372Y0073919D02*
X0169372Y0076675D01*
X0172128Y0076675D01*
X0172128Y0073919D01*
X0172128Y0075099D02*
X0169372Y0075099D01*
X0169372Y0076279D02*
X0172128Y0076279D01*
X0172128Y0080825D02*
X0169372Y0080825D01*
X0169372Y0083581D01*
X0172128Y0083581D01*
X0172128Y0080825D01*
X0172128Y0082005D02*
X0169372Y0082005D01*
X0169372Y0083185D02*
X0172128Y0083185D01*
X0178675Y0087372D02*
X0178675Y0090128D01*
X0178675Y0087372D02*
X0175919Y0087372D01*
X0175919Y0090128D01*
X0178675Y0090128D01*
X0178675Y0088552D02*
X0175919Y0088552D01*
X0175919Y0089732D02*
X0178675Y0089732D01*
X0185581Y0090128D02*
X0185581Y0087372D01*
X0182825Y0087372D01*
X0182825Y0090128D01*
X0185581Y0090128D01*
X0185581Y0088552D02*
X0182825Y0088552D01*
X0182825Y0089732D02*
X0185581Y0089732D01*
X0182825Y0070128D02*
X0182825Y0067372D01*
X0182825Y0070128D02*
X0185581Y0070128D01*
X0185581Y0067372D01*
X0182825Y0067372D01*
X0182825Y0068552D02*
X0185581Y0068552D01*
X0185581Y0069732D02*
X0182825Y0069732D01*
X0175919Y0070128D02*
X0175919Y0067372D01*
X0175919Y0070128D02*
X0178675Y0070128D01*
X0178675Y0067372D01*
X0175919Y0067372D01*
X0175919Y0068552D02*
X0178675Y0068552D01*
X0178675Y0069732D02*
X0175919Y0069732D01*
X0237919Y0045128D02*
X0237919Y0042372D01*
X0237919Y0045128D02*
X0240675Y0045128D01*
X0240675Y0042372D01*
X0237919Y0042372D01*
X0237919Y0043552D02*
X0240675Y0043552D01*
X0240675Y0044732D02*
X0237919Y0044732D01*
X0244825Y0045128D02*
X0244825Y0042372D01*
X0244825Y0045128D02*
X0247581Y0045128D01*
X0247581Y0042372D01*
X0244825Y0042372D01*
X0244825Y0043552D02*
X0247581Y0043552D01*
X0247581Y0044732D02*
X0244825Y0044732D01*
X0271372Y0073919D02*
X0274128Y0073919D01*
X0271372Y0073919D02*
X0271372Y0076675D01*
X0274128Y0076675D01*
X0274128Y0073919D01*
X0274128Y0075099D02*
X0271372Y0075099D01*
X0271372Y0076279D02*
X0274128Y0076279D01*
X0274128Y0080825D02*
X0271372Y0080825D01*
X0271372Y0083581D01*
X0274128Y0083581D01*
X0274128Y0080825D01*
X0274128Y0082005D02*
X0271372Y0082005D01*
X0271372Y0083185D02*
X0274128Y0083185D01*
X0280675Y0087372D02*
X0280675Y0090128D01*
X0280675Y0087372D02*
X0277919Y0087372D01*
X0277919Y0090128D01*
X0280675Y0090128D01*
X0280675Y0088552D02*
X0277919Y0088552D01*
X0277919Y0089732D02*
X0280675Y0089732D01*
X0287581Y0090128D02*
X0287581Y0087372D01*
X0284825Y0087372D01*
X0284825Y0090128D01*
X0287581Y0090128D01*
X0287581Y0088552D02*
X0284825Y0088552D01*
X0284825Y0089732D02*
X0287581Y0089732D01*
X0284825Y0070128D02*
X0284825Y0067372D01*
X0284825Y0070128D02*
X0287581Y0070128D01*
X0287581Y0067372D01*
X0284825Y0067372D01*
X0284825Y0068552D02*
X0287581Y0068552D01*
X0287581Y0069732D02*
X0284825Y0069732D01*
X0277919Y0070128D02*
X0277919Y0067372D01*
X0277919Y0070128D02*
X0280675Y0070128D01*
X0280675Y0067372D01*
X0277919Y0067372D01*
X0277919Y0068552D02*
X0280675Y0068552D01*
X0280675Y0069732D02*
X0277919Y0069732D01*
X0244825Y0144372D02*
X0244825Y0147128D01*
X0247581Y0147128D01*
X0247581Y0144372D01*
X0244825Y0144372D01*
X0244825Y0145552D02*
X0247581Y0145552D01*
X0247581Y0146732D02*
X0244825Y0146732D01*
X0237919Y0147128D02*
X0237919Y0144372D01*
X0237919Y0147128D02*
X0240675Y0147128D01*
X0240675Y0144372D01*
X0237919Y0144372D01*
X0237919Y0145552D02*
X0240675Y0145552D01*
X0240675Y0146732D02*
X0237919Y0146732D01*
X0271372Y0175919D02*
X0274128Y0175919D01*
X0271372Y0175919D02*
X0271372Y0178675D01*
X0274128Y0178675D01*
X0274128Y0175919D01*
X0274128Y0177099D02*
X0271372Y0177099D01*
X0271372Y0178279D02*
X0274128Y0178279D01*
X0274128Y0182825D02*
X0271372Y0182825D01*
X0271372Y0185581D01*
X0274128Y0185581D01*
X0274128Y0182825D01*
X0274128Y0184005D02*
X0271372Y0184005D01*
X0271372Y0185185D02*
X0274128Y0185185D01*
X0280675Y0189372D02*
X0280675Y0192128D01*
X0280675Y0189372D02*
X0277919Y0189372D01*
X0277919Y0192128D01*
X0280675Y0192128D01*
X0280675Y0190552D02*
X0277919Y0190552D01*
X0277919Y0191732D02*
X0280675Y0191732D01*
X0287581Y0192128D02*
X0287581Y0189372D01*
X0284825Y0189372D01*
X0284825Y0192128D01*
X0287581Y0192128D01*
X0287581Y0190552D02*
X0284825Y0190552D01*
X0284825Y0191732D02*
X0287581Y0191732D01*
X0284825Y0172128D02*
X0284825Y0169372D01*
X0284825Y0172128D02*
X0287581Y0172128D01*
X0287581Y0169372D01*
X0284825Y0169372D01*
X0284825Y0170552D02*
X0287581Y0170552D01*
X0287581Y0171732D02*
X0284825Y0171732D01*
X0277919Y0172128D02*
X0277919Y0169372D01*
X0277919Y0172128D02*
X0280675Y0172128D01*
X0280675Y0169372D01*
X0277919Y0169372D01*
X0277919Y0170552D02*
X0280675Y0170552D01*
X0280675Y0171732D02*
X0277919Y0171732D01*
X0182825Y0172128D02*
X0182825Y0169372D01*
X0182825Y0172128D02*
X0185581Y0172128D01*
X0185581Y0169372D01*
X0182825Y0169372D01*
X0182825Y0170552D02*
X0185581Y0170552D01*
X0185581Y0171732D02*
X0182825Y0171732D01*
X0175919Y0172128D02*
X0175919Y0169372D01*
X0175919Y0172128D02*
X0178675Y0172128D01*
X0178675Y0169372D01*
X0175919Y0169372D01*
X0175919Y0170552D02*
X0178675Y0170552D01*
X0178675Y0171732D02*
X0175919Y0171732D01*
X0172128Y0175919D02*
X0169372Y0175919D01*
X0169372Y0178675D01*
X0172128Y0178675D01*
X0172128Y0175919D01*
X0172128Y0177099D02*
X0169372Y0177099D01*
X0169372Y0178279D02*
X0172128Y0178279D01*
X0172128Y0182825D02*
X0169372Y0182825D01*
X0169372Y0185581D01*
X0172128Y0185581D01*
X0172128Y0182825D01*
X0172128Y0184005D02*
X0169372Y0184005D01*
X0169372Y0185185D02*
X0172128Y0185185D01*
X0178675Y0189372D02*
X0178675Y0192128D01*
X0178675Y0189372D02*
X0175919Y0189372D01*
X0175919Y0192128D01*
X0178675Y0192128D01*
X0178675Y0190552D02*
X0175919Y0190552D01*
X0175919Y0191732D02*
X0178675Y0191732D01*
X0185581Y0192128D02*
X0185581Y0189372D01*
X0182825Y0189372D01*
X0182825Y0192128D01*
X0185581Y0192128D01*
X0185581Y0190552D02*
X0182825Y0190552D01*
X0182825Y0191732D02*
X0185581Y0191732D01*
X0142825Y0147128D02*
X0142825Y0144372D01*
X0142825Y0147128D02*
X0145581Y0147128D01*
X0145581Y0144372D01*
X0142825Y0144372D01*
X0142825Y0145552D02*
X0145581Y0145552D01*
X0145581Y0146732D02*
X0142825Y0146732D01*
X0135919Y0147128D02*
X0135919Y0144372D01*
X0135919Y0147128D02*
X0138675Y0147128D01*
X0138675Y0144372D01*
X0135919Y0144372D01*
X0135919Y0145552D02*
X0138675Y0145552D01*
X0138675Y0146732D02*
X0135919Y0146732D01*
D14*
X0165750Y0177404D03*
X0165750Y0184096D03*
X0150750Y0197404D03*
X0150750Y0204096D03*
X0165750Y0202404D03*
X0165750Y0209096D03*
X0165750Y0279404D03*
X0165750Y0286096D03*
X0165750Y0304404D03*
X0165750Y0311096D03*
X0150750Y0306096D03*
X0150750Y0299404D03*
X0063750Y0304404D03*
X0063750Y0311096D03*
X0048750Y0306096D03*
X0048750Y0299404D03*
X0063750Y0286096D03*
X0063750Y0279404D03*
X0063750Y0209096D03*
X0063750Y0202404D03*
X0048750Y0204096D03*
X0048750Y0197404D03*
X0063750Y0184096D03*
X0063750Y0177404D03*
X0063750Y0107096D03*
X0063750Y0100404D03*
X0048750Y0102096D03*
X0048750Y0095404D03*
X0063750Y0082096D03*
X0063750Y0075404D03*
X0150750Y0095404D03*
X0150750Y0102096D03*
X0165750Y0100404D03*
X0165750Y0107096D03*
X0165750Y0082096D03*
X0165750Y0075404D03*
X0252750Y0095404D03*
X0252750Y0102096D03*
X0267750Y0100404D03*
X0267750Y0107096D03*
X0267750Y0082096D03*
X0267750Y0075404D03*
X0267750Y0177404D03*
X0267750Y0184096D03*
X0252750Y0197404D03*
X0252750Y0204096D03*
X0267750Y0202404D03*
X0267750Y0209096D03*
X0267750Y0279404D03*
X0267750Y0286096D03*
X0267750Y0304404D03*
X0267750Y0311096D03*
X0252750Y0306096D03*
X0252750Y0299404D03*
D15*
X0279404Y0285703D03*
X0279404Y0283734D03*
X0279404Y0281766D03*
X0279404Y0279797D03*
X0286096Y0279797D03*
X0286096Y0281766D03*
X0286096Y0283734D03*
X0286096Y0285703D03*
X0184096Y0285703D03*
X0184096Y0283734D03*
X0184096Y0281766D03*
X0184096Y0279797D03*
X0177404Y0279797D03*
X0177404Y0281766D03*
X0177404Y0283734D03*
X0177404Y0285703D03*
X0082096Y0285703D03*
X0082096Y0283734D03*
X0082096Y0281766D03*
X0082096Y0279797D03*
X0075404Y0279797D03*
X0075404Y0281766D03*
X0075404Y0283734D03*
X0075404Y0285703D03*
X0075404Y0183703D03*
X0075404Y0181734D03*
X0075404Y0179766D03*
X0075404Y0177797D03*
X0082096Y0177797D03*
X0082096Y0179766D03*
X0082096Y0181734D03*
X0082096Y0183703D03*
X0177404Y0183703D03*
X0177404Y0181734D03*
X0177404Y0179766D03*
X0177404Y0177797D03*
X0184096Y0177797D03*
X0184096Y0179766D03*
X0184096Y0181734D03*
X0184096Y0183703D03*
X0279404Y0183703D03*
X0279404Y0181734D03*
X0279404Y0179766D03*
X0279404Y0177797D03*
X0286096Y0177797D03*
X0286096Y0179766D03*
X0286096Y0181734D03*
X0286096Y0183703D03*
X0286096Y0081703D03*
X0286096Y0079734D03*
X0286096Y0077766D03*
X0286096Y0075797D03*
X0279404Y0075797D03*
X0279404Y0077766D03*
X0279404Y0079734D03*
X0279404Y0081703D03*
X0184096Y0081703D03*
X0184096Y0079734D03*
X0184096Y0077766D03*
X0184096Y0075797D03*
X0177404Y0075797D03*
X0177404Y0077766D03*
X0177404Y0079734D03*
X0177404Y0081703D03*
X0082096Y0081703D03*
X0082096Y0079734D03*
X0082096Y0077766D03*
X0082096Y0075797D03*
X0075404Y0075797D03*
X0075404Y0077766D03*
X0075404Y0079734D03*
X0075404Y0081703D03*
D16*
X0088750Y0079931D03*
X0088750Y0083868D03*
X0088750Y0074026D03*
X0190750Y0074026D03*
X0190750Y0079931D03*
X0190750Y0083868D03*
X0190750Y0176026D03*
X0190750Y0181931D03*
X0190750Y0185868D03*
X0190750Y0278026D03*
X0190750Y0283931D03*
X0190750Y0287868D03*
X0088750Y0287868D03*
X0088750Y0283931D03*
X0088750Y0278026D03*
X0088750Y0185868D03*
X0088750Y0181931D03*
X0088750Y0176026D03*
X0292750Y0176026D03*
X0292750Y0181931D03*
X0292750Y0185868D03*
X0292750Y0278026D03*
X0292750Y0283931D03*
X0292750Y0287868D03*
X0292750Y0083868D03*
X0292750Y0079931D03*
X0292750Y0074026D03*
D17*
X0291608Y0098911D03*
X0291608Y0101470D03*
X0291608Y0104030D03*
X0291608Y0106589D03*
X0273892Y0106589D03*
X0273892Y0104030D03*
X0273892Y0101470D03*
X0273892Y0098911D03*
X0189608Y0098911D03*
X0189608Y0101470D03*
X0189608Y0104030D03*
X0189608Y0106589D03*
X0171892Y0106589D03*
X0171892Y0104030D03*
X0171892Y0101470D03*
X0171892Y0098911D03*
X0087608Y0098911D03*
X0087608Y0101470D03*
X0087608Y0104030D03*
X0087608Y0106589D03*
X0069892Y0106589D03*
X0069892Y0104030D03*
X0069892Y0101470D03*
X0069892Y0098911D03*
X0069892Y0200911D03*
X0069892Y0203470D03*
X0069892Y0206030D03*
X0069892Y0208589D03*
X0087608Y0208589D03*
X0087608Y0206030D03*
X0087608Y0203470D03*
X0087608Y0200911D03*
X0171892Y0200911D03*
X0171892Y0203470D03*
X0171892Y0206030D03*
X0171892Y0208589D03*
X0189608Y0208589D03*
X0189608Y0206030D03*
X0189608Y0203470D03*
X0189608Y0200911D03*
X0273892Y0200911D03*
X0273892Y0203470D03*
X0273892Y0206030D03*
X0273892Y0208589D03*
X0291608Y0208589D03*
X0291608Y0206030D03*
X0291608Y0203470D03*
X0291608Y0200911D03*
X0291608Y0302911D03*
X0291608Y0305470D03*
X0291608Y0308030D03*
X0291608Y0310589D03*
X0273892Y0310589D03*
X0273892Y0308030D03*
X0273892Y0305470D03*
X0273892Y0302911D03*
X0189608Y0302911D03*
X0189608Y0305470D03*
X0189608Y0308030D03*
X0189608Y0310589D03*
X0171892Y0310589D03*
X0171892Y0308030D03*
X0171892Y0305470D03*
X0171892Y0302911D03*
X0087608Y0302911D03*
X0087608Y0305470D03*
X0087608Y0308030D03*
X0087608Y0310589D03*
X0069892Y0310589D03*
X0069892Y0308030D03*
X0069892Y0305470D03*
X0069892Y0302911D03*
M02*
