G75*
%MOIN*%
%OFA0B0*%
%FSLAX25Y25*%
%IPPOS*%
%LPD*%
%AMOC8*
5,1,8,0,0,1.08239X$1,22.5*
%
%ADD10C,0.13800*%
%ADD11C,0.03300*%
%ADD12R,0.05131X0.04737*%
%ADD13R,0.08674X0.05524*%
%ADD14R,0.06115X0.03162*%
%ADD15C,0.08200*%
%ADD16C,0.01421*%
%ADD17R,0.04737X0.05131*%
%ADD18R,0.02769X0.01784*%
%ADD19R,0.03300X0.05800*%
%ADD20R,0.03950X0.04737*%
%ADD21R,0.03950X0.08280*%
%ADD22R,0.05131X0.02375*%
%ADD23C,0.04737*%
%ADD24C,0.05000*%
%ADD25C,0.06706*%
D10*
X0038750Y0118750D03*
X0118750Y0118750D03*
X0140750Y0118750D03*
X0220750Y0118750D03*
X0242750Y0118750D03*
X0322750Y0118750D03*
X0322750Y0220750D03*
X0242750Y0220750D03*
X0220750Y0220750D03*
X0140750Y0220750D03*
X0118750Y0220750D03*
X0038750Y0220750D03*
X0038750Y0322750D03*
X0118750Y0322750D03*
X0140750Y0322750D03*
X0220750Y0322750D03*
X0242750Y0322750D03*
X0322750Y0322750D03*
D11*
X0235750Y0329750D03*
X0227250Y0236250D03*
X0235750Y0227750D03*
X0329250Y0236250D03*
X0329250Y0134250D03*
X0235750Y0125750D03*
X0227250Y0134250D03*
X0133750Y0125750D03*
X0125250Y0134250D03*
X0031750Y0125750D03*
X0125250Y0032250D03*
X0227250Y0032250D03*
X0329250Y0032250D03*
X0133750Y0227750D03*
X0125250Y0236250D03*
X0031750Y0227750D03*
X0031750Y0329750D03*
X0133750Y0329750D03*
D12*
X0035404Y0038750D03*
X0042096Y0038750D03*
X0075404Y0063750D03*
X0082096Y0063750D03*
X0090404Y0088750D03*
X0090404Y0093750D03*
X0097096Y0093750D03*
X0097096Y0088750D03*
X0082096Y0093750D03*
X0075404Y0093750D03*
X0067096Y0093750D03*
X0067096Y0088750D03*
X0060404Y0088750D03*
X0060404Y0093750D03*
X0042096Y0140750D03*
X0035404Y0140750D03*
X0075404Y0165750D03*
X0082096Y0165750D03*
X0090404Y0190750D03*
X0090404Y0195750D03*
X0097096Y0195750D03*
X0097096Y0190750D03*
X0082096Y0195750D03*
X0075404Y0195750D03*
X0067096Y0195750D03*
X0067096Y0190750D03*
X0060404Y0190750D03*
X0060404Y0195750D03*
X0042096Y0242750D03*
X0035404Y0242750D03*
X0075404Y0267750D03*
X0082096Y0267750D03*
X0090404Y0292750D03*
X0090404Y0297750D03*
X0097096Y0297750D03*
X0097096Y0292750D03*
X0082096Y0297750D03*
X0075404Y0297750D03*
X0067096Y0297750D03*
X0067096Y0292750D03*
X0060404Y0292750D03*
X0060404Y0297750D03*
X0137404Y0242750D03*
X0144096Y0242750D03*
X0177404Y0267750D03*
X0184096Y0267750D03*
X0192404Y0292750D03*
X0199096Y0292750D03*
X0199096Y0297750D03*
X0192404Y0297750D03*
X0184096Y0297750D03*
X0177404Y0297750D03*
X0169096Y0297750D03*
X0162404Y0297750D03*
X0162404Y0292750D03*
X0169096Y0292750D03*
X0239404Y0242750D03*
X0246096Y0242750D03*
X0279404Y0267750D03*
X0286096Y0267750D03*
X0294404Y0292750D03*
X0294404Y0297750D03*
X0301096Y0297750D03*
X0301096Y0292750D03*
X0286096Y0297750D03*
X0279404Y0297750D03*
X0271096Y0297750D03*
X0271096Y0292750D03*
X0264404Y0292750D03*
X0264404Y0297750D03*
X0264404Y0195750D03*
X0264404Y0190750D03*
X0271096Y0190750D03*
X0271096Y0195750D03*
X0279404Y0195750D03*
X0286096Y0195750D03*
X0294404Y0195750D03*
X0294404Y0190750D03*
X0301096Y0190750D03*
X0301096Y0195750D03*
X0286096Y0165750D03*
X0279404Y0165750D03*
X0246096Y0140750D03*
X0239404Y0140750D03*
X0264404Y0093750D03*
X0264404Y0088750D03*
X0271096Y0088750D03*
X0271096Y0093750D03*
X0279404Y0093750D03*
X0286096Y0093750D03*
X0294404Y0093750D03*
X0294404Y0088750D03*
X0301096Y0088750D03*
X0301096Y0093750D03*
X0286096Y0063750D03*
X0279404Y0063750D03*
X0246096Y0038750D03*
X0239404Y0038750D03*
X0184096Y0063750D03*
X0177404Y0063750D03*
X0169096Y0088750D03*
X0169096Y0093750D03*
X0162404Y0093750D03*
X0162404Y0088750D03*
X0177404Y0093750D03*
X0184096Y0093750D03*
X0192404Y0093750D03*
X0192404Y0088750D03*
X0199096Y0088750D03*
X0199096Y0093750D03*
X0144096Y0140750D03*
X0137404Y0140750D03*
X0177404Y0165750D03*
X0184096Y0165750D03*
X0192404Y0190750D03*
X0192404Y0195750D03*
X0199096Y0195750D03*
X0199096Y0190750D03*
X0184096Y0195750D03*
X0177404Y0195750D03*
X0169096Y0195750D03*
X0169096Y0190750D03*
X0162404Y0190750D03*
X0162404Y0195750D03*
X0144096Y0038750D03*
X0137404Y0038750D03*
D13*
X0136281Y0067726D03*
X0123219Y0067726D03*
X0123219Y0089774D03*
X0136281Y0089774D03*
X0136281Y0169726D03*
X0123219Y0169726D03*
X0123219Y0191774D03*
X0136281Y0191774D03*
X0136281Y0271726D03*
X0123219Y0271726D03*
X0123219Y0293774D03*
X0136281Y0293774D03*
X0225219Y0293774D03*
X0238281Y0293774D03*
X0238281Y0271726D03*
X0225219Y0271726D03*
X0225219Y0191774D03*
X0238281Y0191774D03*
X0238281Y0169726D03*
X0225219Y0169726D03*
X0225219Y0089774D03*
X0238281Y0089774D03*
X0238281Y0067726D03*
X0225219Y0067726D03*
X0327219Y0067726D03*
X0327219Y0089774D03*
X0327219Y0169726D03*
X0327219Y0191774D03*
X0327219Y0271726D03*
X0327219Y0293774D03*
X0034281Y0293774D03*
X0034281Y0271726D03*
X0034281Y0191774D03*
X0034281Y0169726D03*
X0034281Y0089774D03*
X0034281Y0067726D03*
D14*
X0048750Y0072844D03*
X0048750Y0076781D03*
X0048750Y0080719D03*
X0048750Y0084656D03*
X0108750Y0084656D03*
X0108750Y0080719D03*
X0108750Y0076781D03*
X0108750Y0072844D03*
X0150750Y0072844D03*
X0150750Y0076781D03*
X0150750Y0080719D03*
X0150750Y0084656D03*
X0210750Y0084656D03*
X0210750Y0080719D03*
X0210750Y0076781D03*
X0210750Y0072844D03*
X0252750Y0072844D03*
X0252750Y0076781D03*
X0252750Y0080719D03*
X0252750Y0084656D03*
X0312750Y0084656D03*
X0312750Y0080719D03*
X0312750Y0076781D03*
X0312750Y0072844D03*
X0312750Y0174844D03*
X0312750Y0178781D03*
X0312750Y0182719D03*
X0312750Y0186656D03*
X0252750Y0186656D03*
X0252750Y0182719D03*
X0252750Y0178781D03*
X0252750Y0174844D03*
X0210750Y0174844D03*
X0210750Y0178781D03*
X0210750Y0182719D03*
X0210750Y0186656D03*
X0150750Y0186656D03*
X0150750Y0182719D03*
X0150750Y0178781D03*
X0150750Y0174844D03*
X0108750Y0174844D03*
X0108750Y0178781D03*
X0108750Y0182719D03*
X0108750Y0186656D03*
X0048750Y0186656D03*
X0048750Y0182719D03*
X0048750Y0178781D03*
X0048750Y0174844D03*
X0048750Y0276844D03*
X0048750Y0280781D03*
X0048750Y0284719D03*
X0048750Y0288656D03*
X0108750Y0288656D03*
X0108750Y0284719D03*
X0108750Y0280781D03*
X0108750Y0276844D03*
X0150750Y0276844D03*
X0150750Y0280781D03*
X0150750Y0284719D03*
X0150750Y0288656D03*
X0210750Y0288656D03*
X0210750Y0284719D03*
X0210750Y0280781D03*
X0210750Y0276844D03*
X0252750Y0276844D03*
X0252750Y0280781D03*
X0252750Y0284719D03*
X0252750Y0288656D03*
X0312750Y0288656D03*
X0312750Y0284719D03*
X0312750Y0280781D03*
X0312750Y0276844D03*
D15*
X0302750Y0237750D03*
X0292750Y0237750D03*
X0282750Y0237750D03*
X0272750Y0237750D03*
X0262750Y0237750D03*
X0200750Y0237750D03*
X0190750Y0237750D03*
X0180750Y0237750D03*
X0170750Y0237750D03*
X0160750Y0237750D03*
X0098750Y0237750D03*
X0088750Y0237750D03*
X0078750Y0237750D03*
X0068750Y0237750D03*
X0058750Y0237750D03*
X0058750Y0135750D03*
X0068750Y0135750D03*
X0078750Y0135750D03*
X0088750Y0135750D03*
X0098750Y0135750D03*
X0160750Y0135750D03*
X0170750Y0135750D03*
X0180750Y0135750D03*
X0190750Y0135750D03*
X0200750Y0135750D03*
X0262750Y0135750D03*
X0272750Y0135750D03*
X0282750Y0135750D03*
X0292750Y0135750D03*
X0302750Y0135750D03*
X0302750Y0033750D03*
X0292750Y0033750D03*
X0282750Y0033750D03*
X0272750Y0033750D03*
X0262750Y0033750D03*
X0200750Y0033750D03*
X0190750Y0033750D03*
X0180750Y0033750D03*
X0170750Y0033750D03*
X0160750Y0033750D03*
X0098750Y0033750D03*
X0088750Y0033750D03*
X0078750Y0033750D03*
X0068750Y0033750D03*
X0058750Y0033750D03*
D16*
X0040545Y0042092D02*
X0040545Y0045408D01*
X0043861Y0045408D01*
X0043861Y0042092D01*
X0040545Y0042092D01*
X0040545Y0043512D02*
X0043861Y0043512D01*
X0043861Y0044932D02*
X0040545Y0044932D01*
X0033639Y0045408D02*
X0033639Y0042092D01*
X0033639Y0045408D02*
X0036955Y0045408D01*
X0036955Y0042092D01*
X0033639Y0042092D01*
X0033639Y0043512D02*
X0036955Y0043512D01*
X0036955Y0044932D02*
X0033639Y0044932D01*
X0067092Y0073639D02*
X0070408Y0073639D01*
X0067092Y0073639D02*
X0067092Y0076955D01*
X0070408Y0076955D01*
X0070408Y0073639D01*
X0070408Y0075059D02*
X0067092Y0075059D01*
X0067092Y0076479D02*
X0070408Y0076479D01*
X0070408Y0080545D02*
X0067092Y0080545D01*
X0067092Y0083861D01*
X0070408Y0083861D01*
X0070408Y0080545D01*
X0070408Y0081965D02*
X0067092Y0081965D01*
X0067092Y0083385D02*
X0070408Y0083385D01*
X0076955Y0087092D02*
X0076955Y0090408D01*
X0076955Y0087092D02*
X0073639Y0087092D01*
X0073639Y0090408D01*
X0076955Y0090408D01*
X0076955Y0088512D02*
X0073639Y0088512D01*
X0073639Y0089932D02*
X0076955Y0089932D01*
X0083861Y0090408D02*
X0083861Y0087092D01*
X0080545Y0087092D01*
X0080545Y0090408D01*
X0083861Y0090408D01*
X0083861Y0088512D02*
X0080545Y0088512D01*
X0080545Y0089932D02*
X0083861Y0089932D01*
X0080545Y0070408D02*
X0080545Y0067092D01*
X0080545Y0070408D02*
X0083861Y0070408D01*
X0083861Y0067092D01*
X0080545Y0067092D01*
X0080545Y0068512D02*
X0083861Y0068512D01*
X0083861Y0069932D02*
X0080545Y0069932D01*
X0073639Y0070408D02*
X0073639Y0067092D01*
X0073639Y0070408D02*
X0076955Y0070408D01*
X0076955Y0067092D01*
X0073639Y0067092D01*
X0073639Y0068512D02*
X0076955Y0068512D01*
X0076955Y0069932D02*
X0073639Y0069932D01*
X0135639Y0045408D02*
X0135639Y0042092D01*
X0135639Y0045408D02*
X0138955Y0045408D01*
X0138955Y0042092D01*
X0135639Y0042092D01*
X0135639Y0043512D02*
X0138955Y0043512D01*
X0138955Y0044932D02*
X0135639Y0044932D01*
X0142545Y0045408D02*
X0142545Y0042092D01*
X0142545Y0045408D02*
X0145861Y0045408D01*
X0145861Y0042092D01*
X0142545Y0042092D01*
X0142545Y0043512D02*
X0145861Y0043512D01*
X0145861Y0044932D02*
X0142545Y0044932D01*
X0169092Y0073639D02*
X0172408Y0073639D01*
X0169092Y0073639D02*
X0169092Y0076955D01*
X0172408Y0076955D01*
X0172408Y0073639D01*
X0172408Y0075059D02*
X0169092Y0075059D01*
X0169092Y0076479D02*
X0172408Y0076479D01*
X0172408Y0080545D02*
X0169092Y0080545D01*
X0169092Y0083861D01*
X0172408Y0083861D01*
X0172408Y0080545D01*
X0172408Y0081965D02*
X0169092Y0081965D01*
X0169092Y0083385D02*
X0172408Y0083385D01*
X0178955Y0087092D02*
X0178955Y0090408D01*
X0178955Y0087092D02*
X0175639Y0087092D01*
X0175639Y0090408D01*
X0178955Y0090408D01*
X0178955Y0088512D02*
X0175639Y0088512D01*
X0175639Y0089932D02*
X0178955Y0089932D01*
X0185861Y0090408D02*
X0185861Y0087092D01*
X0182545Y0087092D01*
X0182545Y0090408D01*
X0185861Y0090408D01*
X0185861Y0088512D02*
X0182545Y0088512D01*
X0182545Y0089932D02*
X0185861Y0089932D01*
X0182545Y0070408D02*
X0182545Y0067092D01*
X0182545Y0070408D02*
X0185861Y0070408D01*
X0185861Y0067092D01*
X0182545Y0067092D01*
X0182545Y0068512D02*
X0185861Y0068512D01*
X0185861Y0069932D02*
X0182545Y0069932D01*
X0175639Y0070408D02*
X0175639Y0067092D01*
X0175639Y0070408D02*
X0178955Y0070408D01*
X0178955Y0067092D01*
X0175639Y0067092D01*
X0175639Y0068512D02*
X0178955Y0068512D01*
X0178955Y0069932D02*
X0175639Y0069932D01*
X0237639Y0045408D02*
X0237639Y0042092D01*
X0237639Y0045408D02*
X0240955Y0045408D01*
X0240955Y0042092D01*
X0237639Y0042092D01*
X0237639Y0043512D02*
X0240955Y0043512D01*
X0240955Y0044932D02*
X0237639Y0044932D01*
X0244545Y0045408D02*
X0244545Y0042092D01*
X0244545Y0045408D02*
X0247861Y0045408D01*
X0247861Y0042092D01*
X0244545Y0042092D01*
X0244545Y0043512D02*
X0247861Y0043512D01*
X0247861Y0044932D02*
X0244545Y0044932D01*
X0271092Y0073639D02*
X0274408Y0073639D01*
X0271092Y0073639D02*
X0271092Y0076955D01*
X0274408Y0076955D01*
X0274408Y0073639D01*
X0274408Y0075059D02*
X0271092Y0075059D01*
X0271092Y0076479D02*
X0274408Y0076479D01*
X0274408Y0080545D02*
X0271092Y0080545D01*
X0271092Y0083861D01*
X0274408Y0083861D01*
X0274408Y0080545D01*
X0274408Y0081965D02*
X0271092Y0081965D01*
X0271092Y0083385D02*
X0274408Y0083385D01*
X0280955Y0087092D02*
X0280955Y0090408D01*
X0280955Y0087092D02*
X0277639Y0087092D01*
X0277639Y0090408D01*
X0280955Y0090408D01*
X0280955Y0088512D02*
X0277639Y0088512D01*
X0277639Y0089932D02*
X0280955Y0089932D01*
X0287861Y0090408D02*
X0287861Y0087092D01*
X0284545Y0087092D01*
X0284545Y0090408D01*
X0287861Y0090408D01*
X0287861Y0088512D02*
X0284545Y0088512D01*
X0284545Y0089932D02*
X0287861Y0089932D01*
X0284545Y0070408D02*
X0284545Y0067092D01*
X0284545Y0070408D02*
X0287861Y0070408D01*
X0287861Y0067092D01*
X0284545Y0067092D01*
X0284545Y0068512D02*
X0287861Y0068512D01*
X0287861Y0069932D02*
X0284545Y0069932D01*
X0277639Y0070408D02*
X0277639Y0067092D01*
X0277639Y0070408D02*
X0280955Y0070408D01*
X0280955Y0067092D01*
X0277639Y0067092D01*
X0277639Y0068512D02*
X0280955Y0068512D01*
X0280955Y0069932D02*
X0277639Y0069932D01*
X0244545Y0144092D02*
X0244545Y0147408D01*
X0247861Y0147408D01*
X0247861Y0144092D01*
X0244545Y0144092D01*
X0244545Y0145512D02*
X0247861Y0145512D01*
X0247861Y0146932D02*
X0244545Y0146932D01*
X0237639Y0147408D02*
X0237639Y0144092D01*
X0237639Y0147408D02*
X0240955Y0147408D01*
X0240955Y0144092D01*
X0237639Y0144092D01*
X0237639Y0145512D02*
X0240955Y0145512D01*
X0240955Y0146932D02*
X0237639Y0146932D01*
X0271092Y0175639D02*
X0274408Y0175639D01*
X0271092Y0175639D02*
X0271092Y0178955D01*
X0274408Y0178955D01*
X0274408Y0175639D01*
X0274408Y0177059D02*
X0271092Y0177059D01*
X0271092Y0178479D02*
X0274408Y0178479D01*
X0274408Y0182545D02*
X0271092Y0182545D01*
X0271092Y0185861D01*
X0274408Y0185861D01*
X0274408Y0182545D01*
X0274408Y0183965D02*
X0271092Y0183965D01*
X0271092Y0185385D02*
X0274408Y0185385D01*
X0280955Y0189092D02*
X0280955Y0192408D01*
X0280955Y0189092D02*
X0277639Y0189092D01*
X0277639Y0192408D01*
X0280955Y0192408D01*
X0280955Y0190512D02*
X0277639Y0190512D01*
X0277639Y0191932D02*
X0280955Y0191932D01*
X0287861Y0192408D02*
X0287861Y0189092D01*
X0284545Y0189092D01*
X0284545Y0192408D01*
X0287861Y0192408D01*
X0287861Y0190512D02*
X0284545Y0190512D01*
X0284545Y0191932D02*
X0287861Y0191932D01*
X0284545Y0172408D02*
X0284545Y0169092D01*
X0284545Y0172408D02*
X0287861Y0172408D01*
X0287861Y0169092D01*
X0284545Y0169092D01*
X0284545Y0170512D02*
X0287861Y0170512D01*
X0287861Y0171932D02*
X0284545Y0171932D01*
X0277639Y0172408D02*
X0277639Y0169092D01*
X0277639Y0172408D02*
X0280955Y0172408D01*
X0280955Y0169092D01*
X0277639Y0169092D01*
X0277639Y0170512D02*
X0280955Y0170512D01*
X0280955Y0171932D02*
X0277639Y0171932D01*
X0244545Y0246092D02*
X0244545Y0249408D01*
X0247861Y0249408D01*
X0247861Y0246092D01*
X0244545Y0246092D01*
X0244545Y0247512D02*
X0247861Y0247512D01*
X0247861Y0248932D02*
X0244545Y0248932D01*
X0237639Y0249408D02*
X0237639Y0246092D01*
X0237639Y0249408D02*
X0240955Y0249408D01*
X0240955Y0246092D01*
X0237639Y0246092D01*
X0237639Y0247512D02*
X0240955Y0247512D01*
X0240955Y0248932D02*
X0237639Y0248932D01*
X0271092Y0277639D02*
X0274408Y0277639D01*
X0271092Y0277639D02*
X0271092Y0280955D01*
X0274408Y0280955D01*
X0274408Y0277639D01*
X0274408Y0279059D02*
X0271092Y0279059D01*
X0271092Y0280479D02*
X0274408Y0280479D01*
X0274408Y0284545D02*
X0271092Y0284545D01*
X0271092Y0287861D01*
X0274408Y0287861D01*
X0274408Y0284545D01*
X0274408Y0285965D02*
X0271092Y0285965D01*
X0271092Y0287385D02*
X0274408Y0287385D01*
X0280955Y0291092D02*
X0280955Y0294408D01*
X0280955Y0291092D02*
X0277639Y0291092D01*
X0277639Y0294408D01*
X0280955Y0294408D01*
X0280955Y0292512D02*
X0277639Y0292512D01*
X0277639Y0293932D02*
X0280955Y0293932D01*
X0287861Y0294408D02*
X0287861Y0291092D01*
X0284545Y0291092D01*
X0284545Y0294408D01*
X0287861Y0294408D01*
X0287861Y0292512D02*
X0284545Y0292512D01*
X0284545Y0293932D02*
X0287861Y0293932D01*
X0284545Y0274408D02*
X0284545Y0271092D01*
X0284545Y0274408D02*
X0287861Y0274408D01*
X0287861Y0271092D01*
X0284545Y0271092D01*
X0284545Y0272512D02*
X0287861Y0272512D01*
X0287861Y0273932D02*
X0284545Y0273932D01*
X0277639Y0274408D02*
X0277639Y0271092D01*
X0277639Y0274408D02*
X0280955Y0274408D01*
X0280955Y0271092D01*
X0277639Y0271092D01*
X0277639Y0272512D02*
X0280955Y0272512D01*
X0280955Y0273932D02*
X0277639Y0273932D01*
X0182545Y0274408D02*
X0182545Y0271092D01*
X0182545Y0274408D02*
X0185861Y0274408D01*
X0185861Y0271092D01*
X0182545Y0271092D01*
X0182545Y0272512D02*
X0185861Y0272512D01*
X0185861Y0273932D02*
X0182545Y0273932D01*
X0175639Y0274408D02*
X0175639Y0271092D01*
X0175639Y0274408D02*
X0178955Y0274408D01*
X0178955Y0271092D01*
X0175639Y0271092D01*
X0175639Y0272512D02*
X0178955Y0272512D01*
X0178955Y0273932D02*
X0175639Y0273932D01*
X0172408Y0277639D02*
X0169092Y0277639D01*
X0169092Y0280955D01*
X0172408Y0280955D01*
X0172408Y0277639D01*
X0172408Y0279059D02*
X0169092Y0279059D01*
X0169092Y0280479D02*
X0172408Y0280479D01*
X0172408Y0284545D02*
X0169092Y0284545D01*
X0169092Y0287861D01*
X0172408Y0287861D01*
X0172408Y0284545D01*
X0172408Y0285965D02*
X0169092Y0285965D01*
X0169092Y0287385D02*
X0172408Y0287385D01*
X0178955Y0291092D02*
X0178955Y0294408D01*
X0178955Y0291092D02*
X0175639Y0291092D01*
X0175639Y0294408D01*
X0178955Y0294408D01*
X0178955Y0292512D02*
X0175639Y0292512D01*
X0175639Y0293932D02*
X0178955Y0293932D01*
X0185861Y0294408D02*
X0185861Y0291092D01*
X0182545Y0291092D01*
X0182545Y0294408D01*
X0185861Y0294408D01*
X0185861Y0292512D02*
X0182545Y0292512D01*
X0182545Y0293932D02*
X0185861Y0293932D01*
X0142545Y0249408D02*
X0142545Y0246092D01*
X0142545Y0249408D02*
X0145861Y0249408D01*
X0145861Y0246092D01*
X0142545Y0246092D01*
X0142545Y0247512D02*
X0145861Y0247512D01*
X0145861Y0248932D02*
X0142545Y0248932D01*
X0135639Y0249408D02*
X0135639Y0246092D01*
X0135639Y0249408D02*
X0138955Y0249408D01*
X0138955Y0246092D01*
X0135639Y0246092D01*
X0135639Y0247512D02*
X0138955Y0247512D01*
X0138955Y0248932D02*
X0135639Y0248932D01*
X0080545Y0271092D02*
X0080545Y0274408D01*
X0083861Y0274408D01*
X0083861Y0271092D01*
X0080545Y0271092D01*
X0080545Y0272512D02*
X0083861Y0272512D01*
X0083861Y0273932D02*
X0080545Y0273932D01*
X0073639Y0274408D02*
X0073639Y0271092D01*
X0073639Y0274408D02*
X0076955Y0274408D01*
X0076955Y0271092D01*
X0073639Y0271092D01*
X0073639Y0272512D02*
X0076955Y0272512D01*
X0076955Y0273932D02*
X0073639Y0273932D01*
X0070408Y0277639D02*
X0067092Y0277639D01*
X0067092Y0280955D01*
X0070408Y0280955D01*
X0070408Y0277639D01*
X0070408Y0279059D02*
X0067092Y0279059D01*
X0067092Y0280479D02*
X0070408Y0280479D01*
X0070408Y0284545D02*
X0067092Y0284545D01*
X0067092Y0287861D01*
X0070408Y0287861D01*
X0070408Y0284545D01*
X0070408Y0285965D02*
X0067092Y0285965D01*
X0067092Y0287385D02*
X0070408Y0287385D01*
X0076955Y0291092D02*
X0076955Y0294408D01*
X0076955Y0291092D02*
X0073639Y0291092D01*
X0073639Y0294408D01*
X0076955Y0294408D01*
X0076955Y0292512D02*
X0073639Y0292512D01*
X0073639Y0293932D02*
X0076955Y0293932D01*
X0083861Y0294408D02*
X0083861Y0291092D01*
X0080545Y0291092D01*
X0080545Y0294408D01*
X0083861Y0294408D01*
X0083861Y0292512D02*
X0080545Y0292512D01*
X0080545Y0293932D02*
X0083861Y0293932D01*
X0040545Y0249408D02*
X0040545Y0246092D01*
X0040545Y0249408D02*
X0043861Y0249408D01*
X0043861Y0246092D01*
X0040545Y0246092D01*
X0040545Y0247512D02*
X0043861Y0247512D01*
X0043861Y0248932D02*
X0040545Y0248932D01*
X0033639Y0249408D02*
X0033639Y0246092D01*
X0033639Y0249408D02*
X0036955Y0249408D01*
X0036955Y0246092D01*
X0033639Y0246092D01*
X0033639Y0247512D02*
X0036955Y0247512D01*
X0036955Y0248932D02*
X0033639Y0248932D01*
X0076955Y0192408D02*
X0076955Y0189092D01*
X0073639Y0189092D01*
X0073639Y0192408D01*
X0076955Y0192408D01*
X0076955Y0190512D02*
X0073639Y0190512D01*
X0073639Y0191932D02*
X0076955Y0191932D01*
X0083861Y0192408D02*
X0083861Y0189092D01*
X0080545Y0189092D01*
X0080545Y0192408D01*
X0083861Y0192408D01*
X0083861Y0190512D02*
X0080545Y0190512D01*
X0080545Y0191932D02*
X0083861Y0191932D01*
X0070408Y0182545D02*
X0067092Y0182545D01*
X0067092Y0185861D01*
X0070408Y0185861D01*
X0070408Y0182545D01*
X0070408Y0183965D02*
X0067092Y0183965D01*
X0067092Y0185385D02*
X0070408Y0185385D01*
X0070408Y0175639D02*
X0067092Y0175639D01*
X0067092Y0178955D01*
X0070408Y0178955D01*
X0070408Y0175639D01*
X0070408Y0177059D02*
X0067092Y0177059D01*
X0067092Y0178479D02*
X0070408Y0178479D01*
X0073639Y0172408D02*
X0073639Y0169092D01*
X0073639Y0172408D02*
X0076955Y0172408D01*
X0076955Y0169092D01*
X0073639Y0169092D01*
X0073639Y0170512D02*
X0076955Y0170512D01*
X0076955Y0171932D02*
X0073639Y0171932D01*
X0080545Y0172408D02*
X0080545Y0169092D01*
X0080545Y0172408D02*
X0083861Y0172408D01*
X0083861Y0169092D01*
X0080545Y0169092D01*
X0080545Y0170512D02*
X0083861Y0170512D01*
X0083861Y0171932D02*
X0080545Y0171932D01*
X0040545Y0147408D02*
X0040545Y0144092D01*
X0040545Y0147408D02*
X0043861Y0147408D01*
X0043861Y0144092D01*
X0040545Y0144092D01*
X0040545Y0145512D02*
X0043861Y0145512D01*
X0043861Y0146932D02*
X0040545Y0146932D01*
X0033639Y0147408D02*
X0033639Y0144092D01*
X0033639Y0147408D02*
X0036955Y0147408D01*
X0036955Y0144092D01*
X0033639Y0144092D01*
X0033639Y0145512D02*
X0036955Y0145512D01*
X0036955Y0146932D02*
X0033639Y0146932D01*
X0135639Y0147408D02*
X0135639Y0144092D01*
X0135639Y0147408D02*
X0138955Y0147408D01*
X0138955Y0144092D01*
X0135639Y0144092D01*
X0135639Y0145512D02*
X0138955Y0145512D01*
X0138955Y0146932D02*
X0135639Y0146932D01*
X0142545Y0147408D02*
X0142545Y0144092D01*
X0142545Y0147408D02*
X0145861Y0147408D01*
X0145861Y0144092D01*
X0142545Y0144092D01*
X0142545Y0145512D02*
X0145861Y0145512D01*
X0145861Y0146932D02*
X0142545Y0146932D01*
X0169092Y0175639D02*
X0172408Y0175639D01*
X0169092Y0175639D02*
X0169092Y0178955D01*
X0172408Y0178955D01*
X0172408Y0175639D01*
X0172408Y0177059D02*
X0169092Y0177059D01*
X0169092Y0178479D02*
X0172408Y0178479D01*
X0172408Y0182545D02*
X0169092Y0182545D01*
X0169092Y0185861D01*
X0172408Y0185861D01*
X0172408Y0182545D01*
X0172408Y0183965D02*
X0169092Y0183965D01*
X0169092Y0185385D02*
X0172408Y0185385D01*
X0178955Y0189092D02*
X0178955Y0192408D01*
X0178955Y0189092D02*
X0175639Y0189092D01*
X0175639Y0192408D01*
X0178955Y0192408D01*
X0178955Y0190512D02*
X0175639Y0190512D01*
X0175639Y0191932D02*
X0178955Y0191932D01*
X0185861Y0192408D02*
X0185861Y0189092D01*
X0182545Y0189092D01*
X0182545Y0192408D01*
X0185861Y0192408D01*
X0185861Y0190512D02*
X0182545Y0190512D01*
X0182545Y0191932D02*
X0185861Y0191932D01*
X0182545Y0172408D02*
X0182545Y0169092D01*
X0182545Y0172408D02*
X0185861Y0172408D01*
X0185861Y0169092D01*
X0182545Y0169092D01*
X0182545Y0170512D02*
X0185861Y0170512D01*
X0185861Y0171932D02*
X0182545Y0171932D01*
X0175639Y0172408D02*
X0175639Y0169092D01*
X0175639Y0172408D02*
X0178955Y0172408D01*
X0178955Y0169092D01*
X0175639Y0169092D01*
X0175639Y0170512D02*
X0178955Y0170512D01*
X0178955Y0171932D02*
X0175639Y0171932D01*
D17*
X0165750Y0177404D03*
X0165750Y0184096D03*
X0150750Y0197404D03*
X0150750Y0204096D03*
X0165750Y0202404D03*
X0165750Y0209096D03*
X0165750Y0279404D03*
X0165750Y0286096D03*
X0165750Y0304404D03*
X0165750Y0311096D03*
X0150750Y0306096D03*
X0150750Y0299404D03*
X0063750Y0304404D03*
X0063750Y0311096D03*
X0048750Y0306096D03*
X0048750Y0299404D03*
X0063750Y0286096D03*
X0063750Y0279404D03*
X0063750Y0209096D03*
X0063750Y0202404D03*
X0048750Y0204096D03*
X0048750Y0197404D03*
X0063750Y0184096D03*
X0063750Y0177404D03*
X0063750Y0107096D03*
X0063750Y0100404D03*
X0048750Y0102096D03*
X0048750Y0095404D03*
X0063750Y0082096D03*
X0063750Y0075404D03*
X0150750Y0095404D03*
X0150750Y0102096D03*
X0165750Y0100404D03*
X0165750Y0107096D03*
X0165750Y0082096D03*
X0165750Y0075404D03*
X0252750Y0095404D03*
X0252750Y0102096D03*
X0267750Y0100404D03*
X0267750Y0107096D03*
X0267750Y0082096D03*
X0267750Y0075404D03*
X0267750Y0177404D03*
X0267750Y0184096D03*
X0252750Y0197404D03*
X0252750Y0204096D03*
X0267750Y0202404D03*
X0267750Y0209096D03*
X0267750Y0279404D03*
X0267750Y0286096D03*
X0267750Y0304404D03*
X0267750Y0311096D03*
X0252750Y0306096D03*
X0252750Y0299404D03*
D18*
X0279404Y0285703D03*
X0279404Y0283734D03*
X0279404Y0281766D03*
X0279404Y0279797D03*
X0286096Y0279797D03*
X0286096Y0281766D03*
X0286096Y0283734D03*
X0286096Y0285703D03*
X0184096Y0285703D03*
X0184096Y0283734D03*
X0184096Y0281766D03*
X0184096Y0279797D03*
X0177404Y0279797D03*
X0177404Y0281766D03*
X0177404Y0283734D03*
X0177404Y0285703D03*
X0082096Y0285703D03*
X0082096Y0283734D03*
X0082096Y0281766D03*
X0082096Y0279797D03*
X0075404Y0279797D03*
X0075404Y0281766D03*
X0075404Y0283734D03*
X0075404Y0285703D03*
X0075404Y0183703D03*
X0075404Y0181734D03*
X0075404Y0179766D03*
X0075404Y0177797D03*
X0082096Y0177797D03*
X0082096Y0179766D03*
X0082096Y0181734D03*
X0082096Y0183703D03*
X0177404Y0183703D03*
X0177404Y0181734D03*
X0177404Y0179766D03*
X0177404Y0177797D03*
X0184096Y0177797D03*
X0184096Y0179766D03*
X0184096Y0181734D03*
X0184096Y0183703D03*
X0279404Y0183703D03*
X0279404Y0181734D03*
X0279404Y0179766D03*
X0279404Y0177797D03*
X0286096Y0177797D03*
X0286096Y0179766D03*
X0286096Y0181734D03*
X0286096Y0183703D03*
X0286096Y0081703D03*
X0286096Y0079734D03*
X0286096Y0077766D03*
X0286096Y0075797D03*
X0279404Y0075797D03*
X0279404Y0077766D03*
X0279404Y0079734D03*
X0279404Y0081703D03*
X0184096Y0081703D03*
X0184096Y0079734D03*
X0184096Y0077766D03*
X0184096Y0075797D03*
X0177404Y0075797D03*
X0177404Y0077766D03*
X0177404Y0079734D03*
X0177404Y0081703D03*
X0082096Y0081703D03*
X0082096Y0079734D03*
X0082096Y0077766D03*
X0082096Y0075797D03*
X0075404Y0075797D03*
X0075404Y0077766D03*
X0075404Y0079734D03*
X0075404Y0081703D03*
D19*
X0040350Y0098750D03*
X0037150Y0098750D03*
X0139150Y0098750D03*
X0142350Y0098750D03*
X0241150Y0098750D03*
X0244350Y0098750D03*
X0244350Y0200750D03*
X0241150Y0200750D03*
X0142350Y0200750D03*
X0139150Y0200750D03*
X0040350Y0200750D03*
X0037150Y0200750D03*
X0037150Y0302750D03*
X0040350Y0302750D03*
X0139150Y0302750D03*
X0142350Y0302750D03*
X0241150Y0302750D03*
X0244350Y0302750D03*
D20*
X0292750Y0278026D03*
X0190750Y0278026D03*
X0088750Y0278026D03*
X0088750Y0176026D03*
X0190750Y0176026D03*
X0292750Y0176026D03*
X0292750Y0074026D03*
X0190750Y0074026D03*
X0088750Y0074026D03*
D21*
X0088750Y0082006D03*
X0190750Y0082006D03*
X0292750Y0082006D03*
X0292750Y0184006D03*
X0190750Y0184006D03*
X0088750Y0184006D03*
X0088750Y0286006D03*
X0190750Y0286006D03*
X0292750Y0286006D03*
D22*
X0291608Y0302911D03*
X0291608Y0305470D03*
X0291608Y0308030D03*
X0291608Y0310589D03*
X0273892Y0310589D03*
X0273892Y0308030D03*
X0273892Y0305470D03*
X0273892Y0302911D03*
X0189608Y0302911D03*
X0189608Y0305470D03*
X0189608Y0308030D03*
X0189608Y0310589D03*
X0171892Y0310589D03*
X0171892Y0308030D03*
X0171892Y0305470D03*
X0171892Y0302911D03*
X0087608Y0302911D03*
X0087608Y0305470D03*
X0087608Y0308030D03*
X0087608Y0310589D03*
X0069892Y0310589D03*
X0069892Y0308030D03*
X0069892Y0305470D03*
X0069892Y0302911D03*
X0069892Y0208589D03*
X0069892Y0206030D03*
X0069892Y0203470D03*
X0069892Y0200911D03*
X0087608Y0200911D03*
X0087608Y0203470D03*
X0087608Y0206030D03*
X0087608Y0208589D03*
X0171892Y0208589D03*
X0171892Y0206030D03*
X0171892Y0203470D03*
X0171892Y0200911D03*
X0189608Y0200911D03*
X0189608Y0203470D03*
X0189608Y0206030D03*
X0189608Y0208589D03*
X0273892Y0208589D03*
X0273892Y0206030D03*
X0273892Y0203470D03*
X0273892Y0200911D03*
X0291608Y0200911D03*
X0291608Y0203470D03*
X0291608Y0206030D03*
X0291608Y0208589D03*
X0291608Y0106589D03*
X0291608Y0104030D03*
X0291608Y0101470D03*
X0291608Y0098911D03*
X0273892Y0098911D03*
X0273892Y0101470D03*
X0273892Y0104030D03*
X0273892Y0106589D03*
X0189608Y0106589D03*
X0189608Y0104030D03*
X0189608Y0101470D03*
X0189608Y0098911D03*
X0171892Y0098911D03*
X0171892Y0101470D03*
X0171892Y0104030D03*
X0171892Y0106589D03*
X0087608Y0106589D03*
X0087608Y0104030D03*
X0087608Y0101470D03*
X0087608Y0098911D03*
X0069892Y0098911D03*
X0069892Y0101470D03*
X0069892Y0104030D03*
X0069892Y0106589D03*
D23*
X0055750Y0341000D03*
X0305750Y0341000D03*
D24*
X0052185Y0020500D02*
X0052187Y0020619D01*
X0052193Y0020738D01*
X0052203Y0020857D01*
X0052217Y0020975D01*
X0052235Y0021093D01*
X0052256Y0021210D01*
X0052282Y0021326D01*
X0052312Y0021442D01*
X0052345Y0021556D01*
X0052382Y0021669D01*
X0052423Y0021781D01*
X0052468Y0021892D01*
X0052516Y0022001D01*
X0052568Y0022108D01*
X0052624Y0022213D01*
X0052683Y0022317D01*
X0052745Y0022418D01*
X0052811Y0022518D01*
X0052880Y0022615D01*
X0052952Y0022709D01*
X0053028Y0022802D01*
X0053106Y0022891D01*
X0053187Y0022978D01*
X0053272Y0023063D01*
X0053359Y0023144D01*
X0053448Y0023222D01*
X0053541Y0023298D01*
X0053635Y0023370D01*
X0053732Y0023439D01*
X0053832Y0023505D01*
X0053933Y0023567D01*
X0054037Y0023626D01*
X0054142Y0023682D01*
X0054249Y0023734D01*
X0054358Y0023782D01*
X0054469Y0023827D01*
X0054581Y0023868D01*
X0054694Y0023905D01*
X0054808Y0023938D01*
X0054924Y0023968D01*
X0055040Y0023994D01*
X0055157Y0024015D01*
X0055275Y0024033D01*
X0055393Y0024047D01*
X0055512Y0024057D01*
X0055631Y0024063D01*
X0055750Y0024065D01*
X0055869Y0024063D01*
X0055988Y0024057D01*
X0056107Y0024047D01*
X0056225Y0024033D01*
X0056343Y0024015D01*
X0056460Y0023994D01*
X0056576Y0023968D01*
X0056692Y0023938D01*
X0056806Y0023905D01*
X0056919Y0023868D01*
X0057031Y0023827D01*
X0057142Y0023782D01*
X0057251Y0023734D01*
X0057358Y0023682D01*
X0057463Y0023626D01*
X0057567Y0023567D01*
X0057668Y0023505D01*
X0057768Y0023439D01*
X0057865Y0023370D01*
X0057959Y0023298D01*
X0058052Y0023222D01*
X0058141Y0023144D01*
X0058228Y0023063D01*
X0058313Y0022978D01*
X0058394Y0022891D01*
X0058472Y0022802D01*
X0058548Y0022709D01*
X0058620Y0022615D01*
X0058689Y0022518D01*
X0058755Y0022418D01*
X0058817Y0022317D01*
X0058876Y0022213D01*
X0058932Y0022108D01*
X0058984Y0022001D01*
X0059032Y0021892D01*
X0059077Y0021781D01*
X0059118Y0021669D01*
X0059155Y0021556D01*
X0059188Y0021442D01*
X0059218Y0021326D01*
X0059244Y0021210D01*
X0059265Y0021093D01*
X0059283Y0020975D01*
X0059297Y0020857D01*
X0059307Y0020738D01*
X0059313Y0020619D01*
X0059315Y0020500D01*
X0059313Y0020381D01*
X0059307Y0020262D01*
X0059297Y0020143D01*
X0059283Y0020025D01*
X0059265Y0019907D01*
X0059244Y0019790D01*
X0059218Y0019674D01*
X0059188Y0019558D01*
X0059155Y0019444D01*
X0059118Y0019331D01*
X0059077Y0019219D01*
X0059032Y0019108D01*
X0058984Y0018999D01*
X0058932Y0018892D01*
X0058876Y0018787D01*
X0058817Y0018683D01*
X0058755Y0018582D01*
X0058689Y0018482D01*
X0058620Y0018385D01*
X0058548Y0018291D01*
X0058472Y0018198D01*
X0058394Y0018109D01*
X0058313Y0018022D01*
X0058228Y0017937D01*
X0058141Y0017856D01*
X0058052Y0017778D01*
X0057959Y0017702D01*
X0057865Y0017630D01*
X0057768Y0017561D01*
X0057668Y0017495D01*
X0057567Y0017433D01*
X0057463Y0017374D01*
X0057358Y0017318D01*
X0057251Y0017266D01*
X0057142Y0017218D01*
X0057031Y0017173D01*
X0056919Y0017132D01*
X0056806Y0017095D01*
X0056692Y0017062D01*
X0056576Y0017032D01*
X0056460Y0017006D01*
X0056343Y0016985D01*
X0056225Y0016967D01*
X0056107Y0016953D01*
X0055988Y0016943D01*
X0055869Y0016937D01*
X0055750Y0016935D01*
X0055631Y0016937D01*
X0055512Y0016943D01*
X0055393Y0016953D01*
X0055275Y0016967D01*
X0055157Y0016985D01*
X0055040Y0017006D01*
X0054924Y0017032D01*
X0054808Y0017062D01*
X0054694Y0017095D01*
X0054581Y0017132D01*
X0054469Y0017173D01*
X0054358Y0017218D01*
X0054249Y0017266D01*
X0054142Y0017318D01*
X0054037Y0017374D01*
X0053933Y0017433D01*
X0053832Y0017495D01*
X0053732Y0017561D01*
X0053635Y0017630D01*
X0053541Y0017702D01*
X0053448Y0017778D01*
X0053359Y0017856D01*
X0053272Y0017937D01*
X0053187Y0018022D01*
X0053106Y0018109D01*
X0053028Y0018198D01*
X0052952Y0018291D01*
X0052880Y0018385D01*
X0052811Y0018482D01*
X0052745Y0018582D01*
X0052683Y0018683D01*
X0052624Y0018787D01*
X0052568Y0018892D01*
X0052516Y0018999D01*
X0052468Y0019108D01*
X0052423Y0019219D01*
X0052382Y0019331D01*
X0052345Y0019444D01*
X0052312Y0019558D01*
X0052282Y0019674D01*
X0052256Y0019790D01*
X0052235Y0019907D01*
X0052217Y0020025D01*
X0052203Y0020143D01*
X0052193Y0020262D01*
X0052187Y0020381D01*
X0052185Y0020500D01*
D25*
X0055750Y0020500D03*
M02*
